<?xml version="1.0" encoding="iso-8859-1"?><svg id="MegFaceHypnotized" version="1.1" xmlns="http://www.w3.org/2000/svg" xmlns:xlink="http://www.w3.org/1999/xlink" xml:space="preserve" x="0px" y="0px" viewbox="0 0 400 400" width="400" height="400" ><g id="Face"><g  /><g  /><circle  cx="133.333" cy="173.238" r="20" class="SkinColor" fill="#F7CCBA"  /><circle  cx="266.667" cy="173.238" r="20" class="SkinColor" fill="#F7CCBA"  /><circle  fill="#D97755" cx="266.667" cy="173.238" r="10.146" /><circle  fill="#D97755" cx="133.333" cy="173.238" r="10.146" /><path  d="M200.667,80H200h-0.667C162.883,80,133,102.549,133,139l4,48c-15.5,11.5-14.748,29.741-5.667,40.5    c11.91,14.111,44.842,51.939,69.251,51.435c22.727-0.469,56.993-38.296,68.083-51.435c9.081-10.759,10.083-29-5.667-40.5l4-48    C267,102.549,237.117,80,200.667,80z" class="SkinColor" fill="#F7CCBA"  /></g><g id="Beard"><path  d="M210.198,219.961c0,0-6.143,2.726-1.817,6.754c4.326,4.029,43.664-8.334,43.664-8.334L210.198,219.961z" class="BeardColor" fill="#5D2300"  /><path  d="M189.878,220.986c0,0,5.825,3.352,1.102,6.907c-4.723,3.555-42.555-12.847-42.555-12.847L189.878,220.986z" class="BeardColor" fill="#5D2300"  /></g><g id="Nose"><ellipse  fill="#D97755" cx="200" cy="202.875" rx="11.492" ry="8.625" /><ellipse  fill="#D97755" cx="200" cy="192.375" rx="4.5" ry="10.125" /></g><g id="Hair"><path  fill="#845F41" d="M151.663,102.037c-7.479,5.741-1.512,21.741-10.711,30.872c-3.96,3.934-4.493,27.592-4.493,27.592      l-14.017-5.945c-1.274-5.966-9.109-51.555,15.311-74.163c14.013-16.273,38.548-27.517,56.187-27.181      c19.754,0.375,35.56,8.997,35.56,8.997c46.023,7.292,49.5,44.644,44.427,69.528c-0.761,11.743-0.376,20.806-0.376,20.806      l-14.692,7.959c0,0-0.534-23.657-4.494-27.59c-9.2-9.132-3.232-25.133-10.711-30.874c-10.055-7.719-30.987,2.086-45.995,2.086      C182.651,104.122,161.718,94.318,151.663,102.037z" /></g><g id="Top"><path  fill="none" stroke="#000000" stroke-width="4" stroke-linecap="round" stroke-linejoin="round" stroke-miterlimit="10" d="M175.873,163.176c0,0,7.212,1.967,5.682-5.791c0,0-2.404-7.102-9.398-2.404c-6.542,4.395-6.921,15.978,5.245,17.702   c13.113,1.858,14.096-14.929,10.6-20.652c-2.222-3.637-14.861-15.298-25.678-0.874c-13.147,17.53,2.076,28.629,6.337,29.831" /><path  fill="none" stroke="#000000" stroke-width="4" stroke-linecap="round" stroke-linejoin="round" stroke-miterlimit="10" d="M223.592,159.783c0,0-5.24-5.331-7.826,2.141c0,0-1.5,7.347,6.908,6.81c7.865-0.502,14.027-10.318,4.384-17.935   c-10.393-8.21-19.697,5.798-19.559,12.503c0.088,4.261,5.133,20.7,21.744,13.688c20.187-8.523,12.626-25.779,9.549-28.963" /><path  fill="none" stroke="#000000" stroke-width="4" stroke-linecap="round" stroke-miterlimit="10" d="M167.546,236.541   c0,0,3.471,12.247,5.093,8.431c1.622-3.816,7.105-11.232,9.465-7.034c2.36,4.198,8.542,9.123,13.176,2.709   c4.634-6.415,10.922-6.514,13.798-2.457c2.876,4.057,5.726,10.995,8.664,5.237c2.939-5.758,9.85-9.737,11.329-4.205   c1.478,5.532,2.737,0.263,2.737,0.263" /><path  fill="#FFD110" stroke="#680505" stroke-width="4" stroke-linecap="round" stroke-linejoin="round" d="M285.813,122.487    c0,0,12.938-3.987,5.188-12.987c-8.964-10.41-168.5-37.25-182.75,3c0,0-2.583,9.5,14.083,12.5c0,0-40.333,3.25-16.833-24.25    c0,0,25.5-23.75,103.5-15.75c0,0,98,7.316,92.5,29.908C301.5,114.908,300.338,125.653,285.813,122.487z" /><polygon  fill="#FFD110" stroke="#680505" stroke-width="4" points="120,64.667 121,84.5 106,95.881 123.188,98.758 128,121.25     138,98 157.084,101.407 143.479,86.192 153.333,69.667 135.583,79.331" /><polygon  fill="#FFD110" stroke="#680505" stroke-width="4" points="72.476,120.899 70.907,132.556 63.685,138.036 71.96,139.421     79.939,150.25 80.711,136.16 91.262,130.756 78.145,130.026" /><polygon  fill="#FFD110" stroke="#680505" stroke-width="4" points="327.07,74.545 317.845,81.842 308.843,80.769 313.835,87.512     312.055,100.845 322.396,91.244 333.74,94.684 324.81,85.049" /><circle  fill="#FFD110" stroke="#680505" stroke-width="4" stroke-linecap="round" stroke-linejoin="round" cx="274.25" cy="99.75" r="11.417" /></g></svg>