<?xml version="1.0" encoding="iso-8859-1"?><svg id="MegFacePuke" version="1.1" xmlns="http://www.w3.org/2000/svg" xmlns:xlink="http://www.w3.org/1999/xlink" xml:space="preserve" x="0px" y="0px" viewbox="0 0 400 400" width="400" height="400" ><g id="Face"><g  /><g  /><circle  cx="133.333" cy="173.238" r="20" class="SkinColor" fill="#F7CCBA"  /><circle  cx="266.667" cy="173.238" r="20" class="SkinColor" fill="#F7CCBA"  /><circle  fill="#D97755" cx="266.667" cy="173.238" r="10.146" /><circle  fill="#D97755" cx="133.333" cy="173.238" r="10.146" /><path  d="M266.991,139c-0.184-37-29.986-59-66.325-59H200h-0.667c-36.338,0-66.141,22-66.325,59H133v112.667    C133,267.315,145.976,280,161.982,280h76.036C254.024,280,267,267.315,267,251.667V139H266.991z" class="SkinColor" fill="#F7CCBA"  /></g><g id="Beard"><path  d="M237.914,232.667c0.588,21.514-6.496,33.333-17.278,34.781c-20.001,6.178-35.59,1.095-41.147,0    c-10.782-1.447-17.798-13.266-17.21-34.781c0,0-13.424,35.792,4.507,42.458c0,0,14.733,6.248,33.209,5.721    c18.663,0.527,33.311-5.721,33.311-5.721C251.236,268.459,237.914,232.667,237.914,232.667z" class="BeardColor" fill="#5D2300"  /></g><g id="Nose"><path  fill="#D97755" d="M209.45,197.18c-8.787-7.417-11.48-7.348-20.307,0.228c-2.039,1.75-11.393,14.217,1.026,9.26    c2.221-0.887,5.362,5.764,9.195,5.832c4.148,0.074,7.515-6.807,9.707-5.729C220.75,212.511,213.788,200.841,209.45,197.18z" /><path  fill="#D97755" d="M200,212.511" /></g><g id="Eye"><path  fill="#FFFFFF" d="M170,184.667c7.732,0,14-8.667,14-19.667h-28C156,176,162.268,184.667,170,184.667z" /><path  fill="#FFFFFF" d="M230,184.667c7.732,0,14-8.667,14-19.667h-28C216,176,222.268,184.667,230,184.667z" /><circle  cx="230.167" cy="173.238" r="3.5" class="EyeColor" fill="#1860B5"  /><circle  cx="169.945" cy="173.238" r="3.5" class="EyeColor" fill="#1860B5"  /></g><g id="Eyebrow"><polygon  points="211.166,154.833 245.334,154.5 245.334,143.333" /><polygon  points="154.666,154.5 188.834,154.833 154.666,143.333" /></g><g id="Glass"><rect  x="188.508" y="165" width="22.984" height="5.033" /><polygon  fill="none" stroke="#000000" stroke-width="3" stroke-linecap="round" stroke-linejoin="round" stroke-miterlimit="10" points="254.115,159.5 211.115,159.5 211.115,185.75 254.115,185" /><polygon  fill="none" stroke="#000000" stroke-width="3" stroke-linecap="round" stroke-linejoin="round" stroke-miterlimit="10" points="145.885,159.5 188.885,159.5 188.885,185.75 145.885,185" /></g><g id="Hair"><path  fill="#845F41" d="M284.5,297.5c-5.833,3.333,3.064-12.29-4.506-9.449c-10.16,3.81-19.062-3.01-19.062-3.01      s13.042-0.502,12.415-8.528c-1.347-14.014-7.934-6.833-11.697-18.872c-3.157-10.1,11.568-15.566,2.099-18.881      c-7.524-2.634-6.622-11.816-3.2-15.334c4.013-7.526,7.975-9.405,0.45-16.426c-7.525-7.023-5.586-12.753-2.074-19.275      c3.511-6.52,10.532-16.268,5.741-19.392c-13.167-8.584-8.648-16.805-8.146-25.334c-19-4.665-9.205-19.74-16.354-22.75      c-8.087-3.406-5.819-8.503-14.852-13.286c-8.527-4.514-19.483,0-28.512,0c-14,0-32.686-8.026-40.71,14.547      c-4.321,12.153-19.043,9.497-17.031,21.654c2.883,17.433-9.705,23.509-4.061,31.787c5.644,8.277,3.817,16.618-1.073,21.133      s-0.57,8.134,5.073,17.165c5.643,9.029-4.511,10.98-0.75,17c3.763,6.02,7.731,14.972,0.583,23.25      c-11,11,2.333,18.125-3.309,23.015c-5.644,4.892-17.191,7.651-4.524,20.151c0,0-13.032-3.597-19.554-14.634      c-4.6-7.784-10.032-1.003-13.794,3.511c-3.763,4.515-10.639,9.313-14.652,2.29c-5.19-9.082-9.494-9.665-13.188-5.299      c-5.517,6.52-14.305,5.654-16.312-0.367c-2.007-6.02,6.333-11-5.258-14.181C35.484,260.5,39.483,250.85,45,244.83      c5.518-6.021,12.517-17.31,7.5-23.83c-17.016-13.5-8.513-27.976-4.5-35.5c4.704-8.821,16.789-14.184,9.773-23.358      c-6.52-8.528-6.294-13.086-3.01-18.562c4.514-7.524,9.531-7.524,11.537-19.061c2.007-11.535,3.352-15.832,8.367-21.852      C79.057,97.4,91,99,96.594,80C98,62,113.398,66.39,118.47,60.811c5.014-5.518,12.969-20.823,25.009-16.811      c15.521,10,23.647-6.264,32.176-5.26c8.528,1.002,26.132-3.966,36.117-3.512c11.037,0.502,16.051,7.526,21.068,7.526      c5.018,0,13.544-2.51,21.069,1.504C261.434,48.272,273.5,52,274.5,63c4.014,5.017,12.015,2.326,16.531,4.332      c4.515,2.008,12.039,3.009,16.554,11.537c3.71,7.01,0.501,12.541,6.02,18.059C319.123,102.446,338.5,102,334.5,125      c2.006,8.528,15.724,11.054,16.224,21.588c0.501,10.534-14.724,26.649,9.385,40.411c11.391,13,6.758,21.208,2.391,29.5      c-5.017,9.533-11,12.257-11,19.28c0,7.024,11.262,13.144,8.253,22.173c-3.01,9.029-13.203,6.246-12.542,11.536      c1.001,8.022-6.68,16.681-14.547,12.54c-5.031-2.647-11.199,1.028-14.852,6.085c-5.106,7.069-2.646,11.219-22.642,7.94      C295.17,296.056,290.333,294.167,284.5,297.5z" /></g><g id="Top"><path  fill="#51C2F4" d="M297.05,263.331c8.108,2.711,24.88,25.16,37.536,24.513c10.238-0.524,3.952-11.812,3.952-11.812     C330.565,264.252,297.05,263.331,297.05,263.331z" /><path  fill="#51C2F4" d="M338.954,183.096c13.184-3.813,6.439-10.195,6.439-10.195c-7.359-5.435-14.996,10.845-14.996,10.845     S332.285,185.025,338.954,183.096z" /><path  fill="#51C2F4" d="M312.493,244.604c0,0,1.876,0.953,8.16,3.903c9.935,4.663,10.274-2.268,10.274-2.268     C328.93,237.311,312.493,244.604,312.493,244.604z" /><path  fill="#51C2F4" d="M346.411,262.271c-0.094-5.559-27.954-4.968-27.954-4.968s15.069,7.185,19.571,7.833     C348.28,266.613,346.411,262.271,346.411,262.271z" /><path  fill="#51C2F4" d="M294.535,255.848c16.09-1.001,10.103-9.243,10.103-9.243c-1.932-4.341-14.309-6.637-29.031-7.812     c32.272-1,63.394-3.648,66.558-12.773c2.385-6.878-11.102-7.749-30.511-5.766c22.001-4.551,38.593-9.734,37.948-15.68     c-1.681-15.503-61.079,4.023-101.683,19.266l0,0c0,0,0.432-0.517,1.072-1.332c34.711-13.391,82.115-30.759,74.579-40.594     c-10.932-14.27-50.888,11.457-78.823,32.33c-0.81,0.356-1.654,0.738-2.527,1.145c13.317-9.923,27.368-29.893,20.78-34.262     c-11.069-7.341-30.028,38.208-48.966,48.875c-5.197,3-8.925,5.551-9.435,5.997c0,0-8.463,6.724-2.179,7.326     c3.612,0.346,9.451-0.535,18.417,0.423c12.063,3.657,29.303,10.508,50.077,23.174c20.393,12.435,25.307,0.463,5.011-10.541     c0,0-3.836-2.557-11.359-5.676C276.794,253.844,288.351,256.232,294.535,255.848z" /><path  fill="#A2DDF2" d="M227.979,237.796c0,0,57.635,16.127,58.894,9.952C288.401,240.249,268.276,238.132,227.979,237.796z" /><path  fill="#A2DDF2" d="M242.891,224.873c0,0,46.902-35.773,54.334-27.862C304.657,204.922,251.24,222.719,242.891,224.873z" /><path  fill="#A2DDF2" d="M321.419,215.154c8.098,3.305,6.476,17.266-50.979,12.371C270.44,227.525,311.211,210.988,321.419,215.154    z" /><path  fill="none" stroke="#000000" stroke-width="4" stroke-linecap="round" stroke-linejoin="round" stroke-miterlimit="10" d="M186.562,226.911c0,0,25.104,8.149,7.504,30.169" /></g></svg>