<?xml version="1.0" encoding="iso-8859-1"?><svg id="MegFaceSob" version="1.1" xmlns="http://www.w3.org/2000/svg" xmlns:xlink="http://www.w3.org/1999/xlink" xml:space="preserve" x="0px" y="0px" viewbox="0 0 400 400" width="400" height="400" ><g id="Face"><g  /><g  /><circle  cx="133.333" cy="173.238" r="20" class="SkinColor" fill="#F7CCBA"  /><circle  cx="266.667" cy="173.238" r="20" class="SkinColor" fill="#F7CCBA"  /><circle  fill="#D97755" cx="266.667" cy="173.238" r="10.146" /><circle  fill="#D97755" cx="133.333" cy="173.238" r="10.146" /><path  d="M200.667,80h-1.333C162.883,80,133,102.549,133,139v58c4,22.105,17.193,45.733,27.333,55.5    c24.917,24,36.479,22.833,39.667,22.833c3.63,0,17.083,0.265,39.667-22.833C249.509,242.433,263,219.105,267,197v-58    C267,102.549,237.117,80,200.667,80z" class="SkinColor" fill="#F7CCBA"  /></g><g id="Beard"><path  d="M246.378,218.938h-92.756c-3.427-25-14.622-23.75-20.622-25.275v20.275c0,36.451,23.75,66,67,66     s67-29.549,67-66v-20.275C261,195.188,249.799,193.938,246.378,218.938z M245.37,245.317c0,0-14.203,22.926-45.65,23.844     c-31.496-0.918-45.053-23.74-45.053-23.74c0.061-4.879-0.117-16.484-0.457-20.484h91.581     C245.452,228.938,245.309,240.438,245.37,245.317z" class="BeardColor" fill="#5D2300"  /></g><g id="Nose"><path  fill="#D97755" d="M209.45,199.181c0,0-8.677-27.241-9.45-29.514c-1.022,2.063-10.857,29.741-10.857,29.741    c-3.107,0.223-17.628,14.594,10.221,15.092C223.438,214.931,216.305,199.397,209.45,199.181z" /></g><g id="Eye"><path  fill="#51C2F4" d="M233.963,220.677c-0.634,0-1.278-0.121-1.9-0.377c-7.743-3.18-7.744-13.974-6.531-18.704   c0.313-1.218,0.921-2.351,1.563-3.551c2.232-4.163,2.401-5.608,0.857-7.365c-6.31-7.18-4.09-14.162-1.06-17.103   c0,0,9.668,1.853,9.774,1.714c-0.475,0.625-2.537,7.27-1.203,8.788c6.501,7.397,2.257,15.313,0.444,18.692   c-0.256,0.476-0.601,1.119-0.71,1.389c-0.561,2.31-0.181,6.266,0.673,6.895c2.555,1.049,3.77,3.967,2.721,6.521   C237.799,219.51,235.931,220.677,233.963,220.677z" /><path  fill="#51C2F4" d="M172.963,220.677c-0.634,0-1.278-0.121-1.9-0.377c-7.743-3.18-7.744-13.974-6.531-18.704   c0.313-1.218,0.921-2.351,1.563-3.551c2.232-4.163,2.401-5.608,0.857-7.365c-6.31-7.18-4.09-14.162-1.06-17.103   c0,0,9.334,0.92,9.441,0.78c-0.475,0.625-2.203,8.203-0.869,9.721c6.501,7.397,2.257,15.313,0.444,18.692   c-0.256,0.476-0.601,1.119-0.71,1.389c-0.561,2.31-0.181,6.266,0.673,6.895c2.555,1.049,3.77,3.967,2.721,6.521   C176.799,219.51,174.931,220.677,172.963,220.677z" /><polygon  points="158.046,174.934 179.656,168.447 181.191,173.309 159.094,180.352" /><polygon  points="221.502,167.42 242.919,173.897 241.892,179.536 219.722,172.982" /></g><g id="Eyebrow"><path  d="M211.438,148.083c0,0,4.75-19.458,36.125,6.167C247.563,154.25,220.813,151.416,211.438,148.083z" /><path  d="M188.563,148.083c0,0-4.75-19.458-36.125,6.167C152.438,154.25,179.188,151.416,188.563,148.083z" /></g><g id="Hair"><path  fill="#845F41" d="M282.667,125.667c0.427-40.667-19-55.375-43.333-60.042c-24.333-4.667-48.856-0.774-68.083,5.708    c0,0-12.583-14.333-30.583,1.333c-15.842,13.789-26,51.667-14.667,80.571l13.333,20c0,0-1.333-47.905,9-47.571    c0,0-3.195-15.492,6.568-20.981c4.084-0.965,9.045-1.031,15.099-0.019c2.714,8.402,29.695,13.241,39,13.241    c9.269,0,35.292,1.067,47.652,13.441l1.868,36.984L267,155.704v-0.022l6-0.85C273,154.833,282.439,147.344,282.667,125.667z" /><g  /></g><g id="Top"><path  d="M191.001,243.412c-8.607,0-14.491-1.881-11.098-3.573c3.391-1.691,9.726-3.137,21.454-3.194c0,0,11.326-0.146,18.543,3.096   c3.791,1.703-2.07,3.671-10.891,3.671H191.001z" /></g></svg>