<?xml version="1.0" encoding="iso-8859-1"?><svg id="MegFacePig" version="1.1" xmlns="http://www.w3.org/2000/svg" xmlns:xlink="http://www.w3.org/1999/xlink" xml:space="preserve" x="0px" y="0px" viewbox="0 0 400 400" width="400" height="400" ><g id="Face"><g  /><g  /><circle  cx="133.333" cy="173.238" r="20" class="SkinColor" fill="#F7CCBA"  /><circle  cx="266.667" cy="173.238" r="20" class="SkinColor" fill="#F7CCBA"  /><circle  fill="#D97755" cx="266.667" cy="173.238" r="10.146" /><circle  fill="#D97755" cx="133.333" cy="173.238" r="10.146" /><path  d="M267,189v-50h0.18c-0.184-37-29.986-59-66.325-59h-1.521c-36.338,0-66.141,22-66.325,59H133v50l12,64.999    c0,0,37.999,26.001,45,26.001h20.189c7.001,0,44.811-26,44.811-26L267,189z" class="SkinColor" fill="#F7CCBA"  /></g><g id="Hair"><path  fill="#845F41" d="M281.925,96.463c0,0-10.925-22.188-36.925-15.333v-0.001c0,0-6.501,1.873-19.448-1.317    c-5.177-1.275-15.013-4.092-25.351-4.366c-10.338-0.274-20.388,3.09-25.586,4.366C161.622,83.003,155,81.129,155,81.129v0.001    c-26-6.855-36.981,15.333-36.981,15.333c-16.356,35.722,9.628,54.036,9.628,54.036c2.274,2.845,4.066,5.255,5.353,7.301V139    c0-36.451,29.883-59,66.333-59H200h0.667C237.117,80,267,102.55,267,139v18.915c1.291-2.07,3.06-4.517,5.368-7.416    C272.368,150.499,298.223,132.185,281.925,96.463z" /></g><g id="Top"><ellipse  fill="#D97755" cx="246.876" cy="223.442" rx="17.672" ry="23.442" /><ellipse  cx="259" cy="223.442" rx="26.795" ry="25.422" class="SkinColor" fill="#F7CCBA"  /><ellipse  fill="#D97755" cx="153.124" cy="223.442" rx="17.672" ry="23.442" /><ellipse  cx="141" cy="223.442" rx="26.795" ry="25.422" class="SkinColor" fill="#F7CCBA"  /><ellipse  fill="#D97755" cx="200.5" cy="213.806" rx="41.275" ry="36.317" /><path  fill="#D97755" d="M177.641,236.931c-16.414,45.391,37.121,35.482,45.706,25.253c8.586-10.229-4.04-27.491-4.04-27.491   L177.641,236.931z" /><path  d="M181.654,239c-13.102,35.5,29.631,27.75,36.484,19.75s-3.225-21.5-3.225-21.5L181.654,239z" /><path  fill="#FFFFFF" d="M189.346,238.677c-9.581,17.432,17.085,13.424,22.251,9.823c6.499-4.53,0.796-12.333,0.796-12.333   L189.346,238.677z" /><ellipse  cx="200.5" cy="213.806" rx="36.75" ry="32.335" /><circle  fill="#D97755" cx="172.5" cy="165.375" r="22" /><circle  fill="#FFFFFF" cx="172.5" cy="165.375" r="17.375" /><circle  cx="172.5" cy="165.375" r="5.493" class="EyeColor" fill="#1860B5"  /><circle  fill="#D97755" cx="227.5" cy="165.375" r="22" /><circle  fill="#FFFFFF" cx="227.5" cy="165.375" r="17.375" /><circle  cx="227.5" cy="165.375" r="5.493" class="EyeColor" fill="#1860B5"  /><ellipse  fill="#E59477" cx="200.5" cy="213.806" rx="30.75" ry="27.056" /><ellipse  cx="187" cy="213.333" rx="5.833" ry="12.333" /><ellipse  cx="213" cy="213.333" rx="5.833" ry="12.333" /></g></svg>