<?xml version="1.0" encoding="iso-8859-1"?><svg id="MegFaceHellooo" version="1.1" xmlns="http://www.w3.org/2000/svg" xmlns:xlink="http://www.w3.org/1999/xlink" xml:space="preserve" x="0px" y="0px" viewbox="0 0 400 400" width="400" height="400" ><g id="Face"><g  /><g  /><circle  cx="133.333" cy="173.238" r="20" class="SkinColor" fill="#F7CCBA"  /><circle  cx="266.667" cy="173.238" r="20" class="SkinColor" fill="#F7CCBA"  /><circle  fill="#D97755" cx="266.667" cy="173.238" r="10.146" /><circle  fill="#D97755" cx="133.333" cy="173.238" r="10.146" /><path  d="M200.667,80h-1.333C162.883,80,133,102.549,133,139v58c4,22.105,17.193,45.733,27.333,55.5    c24.917,24,36.479,22.833,39.667,22.833c3.63,0,17.083,0.265,39.667-22.833C249.509,242.433,263,219.105,267,197v-58    C267,102.549,237.117,80,200.667,80z" class="SkinColor" fill="#F7CCBA"  /></g><g id="Mouth"><path  d="M166.358,234.294c3.127,14.167,16.998,24.847,33.642,24.847s30.516-10.68,33.642-24.847l0.608-4.044l-5.375,4.044H172    l-6.375-3.044L166.358,234.294z" /><path  fill="#FFFFFF" d="M178.335,248c3.898,4,10.525,6.42,21.728,6.824c0,0,13.178,0.176,20.58-6.824H178.335z" /><path  fill="#FFFFFF" d="M222.884,245c1.272-2,2.18-4,2.516-6h-52.307c0.286,1,1.055,3,2.863,6H222.884z" /></g><g id="Beard"><path  d="M246.378,218.938h-92.756c-3.427-25-14.622-23.75-20.622-25.275v20.275c0,36.451,23.75,66,67,66    s67-29.549,67-66v-20.275C261,195.188,249.799,193.938,246.378,218.938z M245.37,245.317c0,0-14.203,22.926-45.65,23.844    c-31.496-0.918-45.053-23.74-45.053-23.74c0.061-4.879-0.117-16.484-0.457-20.484h91.581    C245.452,228.938,245.309,240.438,245.37,245.317z" class="BeardColor" fill="#5D2300"  /></g><g id="Nose"><path  fill="#D97755" d="M209.45,199.181c0,0-8.677-27.241-9.45-29.514c-1.022,2.063-10.857,29.741-10.857,29.741    c-3.107,0.223-17.628,14.594,10.221,15.092C223.438,214.931,216.305,199.397,209.45,199.181z" /></g><g id="Eye"><path  fill="#FFFFFF" d="M215.02,172.768c0,0,11.276-30.335,27.959,1.509C242.979,174.277,228.169,160.544,215.02,172.768z" /><path  fill="#FFFFFF" d="M186.979,172.768c0,0-11.276-30.335-27.959,1.509C159.02,174.277,173.831,160.544,186.979,172.768z" /><path  d="M173.895,165.777c0-2.209-1.791-4-4-4c-2.209,0-4,1.791-4,4c0,1.381,0.7,2.598,1.764,3.317    c1.736-0.654,3.654-1.156,5.686-1.327C173.686,167.179,173.895,166.506,173.895,165.777z" class="EyeColor" fill="#1860B5"  /><path  d="M228.358,167.745c0.332-0.583,0.537-1.249,0.537-1.968c0-2.209-1.791-4-4-4c-2.209,0-4,1.791-4,4    c0,1.069,0.426,2.035,1.109,2.753C224.18,167.816,226.322,167.607,228.358,167.745z" class="EyeColor" fill="#1860B5"  /></g><g id="Eyebrow"><path  d="M211.438,139.083c0,0,4.75-19.458,36.125,6.167C247.563,145.25,220.813,142.416,211.438,139.083z" /><path  d="M188.563,139.083c0,0-4.75-19.458-36.125,6.167C152.438,145.25,179.188,142.416,188.563,139.083z" /></g><g id="Glass"><rect  x="188.508" y="170.721" width="22.984" height="5.033" /><ellipse  fill="none" stroke="#000000" stroke-width="3" stroke-linecap="round" stroke-linejoin="round" stroke-miterlimit="10" cx="233" cy="173.5" rx="22.515" ry="21" /><ellipse  fill="none" stroke="#000000" stroke-width="3" stroke-linecap="round" stroke-linejoin="round" stroke-miterlimit="10" cx="167" cy="173.5" rx="22.515" ry="21" /></g><g id="Hair"><path  fill="#845F41" d="M282.667,125.667c0.427-40.667-19-55.375-43.333-60.042c-24.333-4.667-48.856-0.774-68.083,5.708    c0,0-12.583-14.333-30.583,1.333c-15.842,13.789-26,51.667-14.667,80.571l13.333,20c0,0-1.333-47.905,9-47.571    c0,0-3.195-15.492,6.568-20.981c4.084-0.965,9.045-1.031,15.099-0.019c2.714,8.402,29.695,13.241,39,13.241    c9.269,0,35.292,1.067,47.652,13.441l1.868,36.984L267,155.704v-0.022l6-0.85C273,154.833,282.439,147.344,282.667,125.667z" /><g  /></g></svg>