<?xml version="1.0" encoding="iso-8859-1"?><svg id="MegFacePig" version="1.1" xmlns="http://www.w3.org/2000/svg" xmlns:xlink="http://www.w3.org/1999/xlink" xml:space="preserve" x="0px" y="0px" viewbox="0 0 400 400" width="400" height="400" ><g id="Face"><g  /><g  /><circle  cx="133.333" cy="173.238" r="20" class="SkinColor" fill="#F7CCBA"  /><circle  cx="266.667" cy="173.238" r="20" class="SkinColor" fill="#F7CCBA"  /><circle  fill="#D97755" cx="266.667" cy="173.238" r="10.146" /><circle  fill="#D97755" cx="133.333" cy="173.238" r="10.146" /><path  d="M200.667,80H200h-0.667C162.883,80,133,102.549,133,139l4,48c-15.5,11.5-14.748,29.741-5.667,40.5    c11.91,14.111,44.842,51.939,69.251,51.435c22.727-0.469,56.993-38.296,68.083-51.435c9.081-10.759,10.083-29-5.667-40.5l4-48    C267,102.549,237.117,80,200.667,80z" class="SkinColor" fill="#F7CCBA"  /></g><g id="Hair"><path  fill="#845F41" d="M151.663,102.037c-7.479,5.741-1.512,21.741-10.711,30.872c-3.96,3.934-4.493,27.592-4.493,27.592      l-14.017-5.945c-1.274-5.966-9.109-51.555,15.311-74.163c14.013-16.273,38.548-27.517,56.187-27.181      c19.754,0.375,35.56,8.997,35.56,8.997c46.023,7.292,49.5,44.644,44.427,69.528c-0.761,11.743-0.376,20.806-0.376,20.806      l-14.692,7.959c0,0-0.534-23.657-4.494-27.59c-9.2-9.132-3.232-25.133-10.711-30.874c-10.055-7.719-30.987,2.086-45.995,2.086      C182.651,104.122,161.718,94.318,151.663,102.037z" /></g><g id="Top"><ellipse  fill="#D97755" cx="246.876" cy="223.442" rx="17.672" ry="23.442" /><ellipse  cx="259" cy="223.442" rx="26.795" ry="25.422" class="SkinColor" fill="#F7CCBA"  /><ellipse  fill="#D97755" cx="153.124" cy="223.442" rx="17.672" ry="23.442" /><ellipse  cx="141" cy="223.442" rx="26.795" ry="25.422" class="SkinColor" fill="#F7CCBA"  /><ellipse  fill="#D97755" cx="200.5" cy="213.806" rx="41.275" ry="36.317" /><path  fill="#D97755" d="M177.641,236.931c-16.414,45.391,37.121,35.482,45.706,25.253c8.586-10.229-4.04-27.491-4.04-27.491   L177.641,236.931z" /><path  d="M181.654,239c-13.102,35.5,29.631,27.75,36.484,19.75s-3.225-21.5-3.225-21.5L181.654,239z" /><path  fill="#FFFFFF" d="M189.346,238.677c-9.581,17.432,17.085,13.424,22.251,9.823c6.499-4.53,0.796-12.333,0.796-12.333   L189.346,238.677z" /><ellipse  cx="200.5" cy="213.806" rx="36.75" ry="32.335" /><circle  fill="#D97755" cx="172.5" cy="165.375" r="22" /><circle  fill="#FFFFFF" cx="172.5" cy="165.375" r="17.375" /><circle  cx="172.5" cy="165.375" r="5.493" class="EyeColor" fill="#1860B5"  /><circle  fill="#D97755" cx="227.5" cy="165.375" r="22" /><circle  fill="#FFFFFF" cx="227.5" cy="165.375" r="17.375" /><circle  cx="227.5" cy="165.375" r="5.493" class="EyeColor" fill="#1860B5"  /><ellipse  fill="#E59477" cx="200.5" cy="213.806" rx="30.75" ry="27.056" /><ellipse  cx="187" cy="213.333" rx="5.833" ry="12.333" /><ellipse  cx="213" cy="213.333" rx="5.833" ry="12.333" /></g></svg>