<?xml version="1.0" encoding="iso-8859-1"?><svg id="MegFaceOn Fire" version="1.1" xmlns="http://www.w3.org/2000/svg" xmlns:xlink="http://www.w3.org/1999/xlink" xml:space="preserve" x="0px" y="0px" viewbox="0 0 400 400" width="400" height="400" ><g id="Face"><g  /><g  /><circle  cx="133.333" cy="173.238" r="20" class="SkinColor" fill="#F7CCBA"  /><circle  cx="266.667" cy="173.238" r="20" class="SkinColor" fill="#F7CCBA"  /><circle  fill="#D97755" cx="266.667" cy="173.238" r="10.146" /><circle  fill="#D97755" cx="133.333" cy="173.238" r="10.146" /><path  d="M200.667,80H200h-0.667C162.883,80,133,102.549,133,139l4,48c-15.5,11.5-14.748,29.741-5.667,40.5    c11.91,14.111,44.842,51.939,69.251,51.435c22.727-0.469,56.993-38.296,68.083-51.435c9.081-10.759,10.083-29-5.667-40.5l4-48    C267,102.549,237.117,80,200.667,80z" class="SkinColor" fill="#F7CCBA"  /></g><g id="Beard"><rect  x="157" y="221" width="86" height="10" class="BeardColor" fill="#5D2300"  /><path  d="M157,273.05V221h10v52.05c0,2.734-2.216,4.95-4.95,4.95h-0.1C159.216,278,157,275.784,157,273.05z" class="BeardColor" fill="#5D2300"  /><path  d="M233,273.05V221h10v52.05c0,2.734-2.216,4.95-4.95,4.95h-0.1C235.216,278,233,275.784,233,273.05z" class="BeardColor" fill="#5D2300"  /></g><g id="Nose"><ellipse  fill="#D97755" cx="200" cy="205.875" rx="11.492" ry="8.625" /><ellipse  fill="#D97755" cx="200" cy="195.375" rx="4.5" ry="10.125" /></g><g id="Eyebrow"><path  d="M213.584,150.884c0,0,30.527-8.358,24.464-17.461c0,0-2.521-4.032-8.831-2.336    C229.217,131.086,236.186,138.594,213.584,150.884z" /><path  d="M186.626,152.474c0,0-28.924-12.851-21.562-20.939c0,0,3.099-3.608,9.082-0.983    C174.145,130.552,166.126,136.927,186.626,152.474z" /></g><g id="Hair"><path  fill="#845F41" d="M151.663,102.037c-7.479,5.741-1.512,21.741-10.711,30.872c-3.96,3.934-4.493,27.592-4.493,27.592      l-14.017-5.945c-1.274-5.966-9.109-51.555,15.311-74.163c14.013-16.273,38.548-27.517,56.187-27.181      c19.754,0.375,35.56,8.997,35.56,8.997c46.023,7.292,49.5,44.644,44.427,69.528c-0.761,11.743-0.376,20.806-0.376,20.806      l-14.692,7.959c0,0-0.534-23.657-4.494-27.59c-9.2-9.132-3.232-25.133-10.711-30.874c-10.055-7.719-30.987,2.086-45.995,2.086      C182.651,104.122,161.718,94.318,151.663,102.037z" /></g><g id="Top"><path  fill="#FFFFFF" d="M213.75,169.25l36.25-15C250,154.25,245,202.5,213.75,169.25z" /><path  fill="#D30010" d="M221.56,170.537L242.19,162C242.19,162,239.345,189.46,221.56,170.537z" /><path  fill="#FFFFFF" d="M190,169.25l-36.25-15C153.75,154.25,158.75,202.5,190,169.25z" /><path  fill="#D30010" d="M182.19,170.537L161.56,162C161.56,162,164.405,189.46,182.19,170.537z" /><path  d="M229.697,249.394c0,0-26.451-43.172-58.311,1.889C171.386,251.283,196.278,234.405,229.697,249.394z" /><path  fill="#D30010" d="M275.795,141.064c0,0-6.979,7.713-15.059,2.938c-8.081-4.775-1.469-15.392-3.673-21.102   c0,0,10.174,3.472,9.128,8.614c0,0,5.564-12.781-4.72-26.408c0,0-8.081-12.893,8.448-20.606c0,0-11.019,17.263,9.55,34.893   c0,0,7.346,4.408,8.081,8.448c0,0,5.142-3.215,2.571-12.81C290.12,115.031,302.975,144.002,275.795,141.064z" /><path  fill="#D30010" d="M104.635,146.321c0,0-8.004,3.52-12.563-2.92c-4.559-6.44,4.162-12.314,4.433-17.452   c0,0,6.613,6.16,4.043,9.745c0,0,8.661-7.894,5.453-21.882c0,0-1.769-12.668,13.562-12.906c0,0-14.386,9.458-4.663,30.052   c0,0,4.121,5.906,3.297,9.258c0,0,5.05-0.7,6.374-8.945C124.57,131.27,124.478,157.915,104.635,146.321z" /><polygon  fill="#D97755" points="202.25,145 204,154.434 235.25,121.275 207.75,145" /><polygon  fill="#D97755" points="190,156.375 194.125,147.875 190,148.625 171.386,119.875" /><polygon  fill="#D97755" points="199,149 199,158 194.125,156" /></g></svg>