<?xml version="1.0" encoding="iso-8859-1"?><svg id="MegFacePucker" version="1.1" xmlns="http://www.w3.org/2000/svg" xmlns:xlink="http://www.w3.org/1999/xlink" xml:space="preserve" x="0px" y="0px" viewbox="0 0 400 400" width="400" height="400" ><g id="Face"><g  /><g  /><circle  cx="133.333" cy="173.238" r="20" class="SkinColor" fill="#F7CCBA"  /><circle  cx="266.667" cy="173.238" r="20" class="SkinColor" fill="#F7CCBA"  /><circle  fill="#D97755" cx="266.667" cy="173.238" r="10.146" /><circle  fill="#D97755" cx="133.333" cy="173.238" r="10.146" /><path  d="M200.667,80H200h-0.667C162.883,80,133,102.549,133,139l4,48c-15.5,11.5-14.748,29.741-5.667,40.5    c11.91,14.111,44.842,51.939,69.251,51.435c22.727-0.469,56.993-38.296,68.083-51.435c9.081-10.759,10.083-29-5.667-40.5l4-48    C267,102.549,237.117,80,200.667,80z" class="SkinColor" fill="#F7CCBA"  /></g><g id="Beard"><path  d="M210.198,219.961c0,0-6.143,2.726-1.817,6.754c4.326,4.029,43.664-8.334,43.664-8.334L210.198,219.961z" class="BeardColor" fill="#5D2300"  /><path  d="M189.878,220.986c0,0,5.825,3.352,1.102,6.907c-4.723,3.555-42.555-12.847-42.555-12.847L189.878,220.986z" class="BeardColor" fill="#5D2300"  /></g><g id="Nose"><ellipse  fill="#D97755" cx="200" cy="202.875" rx="11.492" ry="8.625" /><ellipse  fill="#D97755" cx="200" cy="192.375" rx="4.5" ry="10.125" /></g><g id="Eyebrow"><path  d="M212.392,145.084c0,0,31.5,3.083,29.083-7.583c0,0-0.917-4.666-7.417-5.333    C234.059,132.167,237.892,141.667,212.392,145.084z" /><path  d="M187.608,145.084c0,0-31.5,3.083-29.083-7.583c0,0,0.917-4.666,7.417-5.333    C165.941,132.167,162.108,141.667,187.608,145.084z" /></g><g id="Glass"><rect  x="188.508" y="165" width="22.984" height="5.033" /><polygon  fill="none" stroke="#000000" stroke-width="3" stroke-linecap="round" stroke-linejoin="round" stroke-miterlimit="10" points="254.115,159.5 211.115,159.5 211.115,200.083 254.115,198.924" /><polygon  fill="none" stroke="#000000" stroke-width="3" stroke-linecap="round" stroke-linejoin="round" stroke-miterlimit="10" points="145.885,159.5 188.885,159.5 188.885,200.083 145.885,198.924" /></g><g id="Hair"><path  fill="#845F41" d="M151.663,102.037c-7.479,5.741-1.512,21.741-10.711,30.872c-3.96,3.934-4.493,27.592-4.493,27.592      l-14.017-5.945c-1.274-5.966-9.109-51.555,15.311-74.163c14.013-16.273,38.548-27.517,56.187-27.181      c19.754,0.375,35.56,8.997,35.56,8.997c46.023,7.292,49.5,44.644,44.427,69.528c-0.761,11.743-0.376,20.806-0.376,20.806      l-14.692,7.959c0,0-0.534-23.657-4.494-27.59c-9.2-9.132-3.232-25.133-10.711-30.874c-10.055-7.719-30.987,2.086-45.995,2.086      C182.651,104.122,161.718,94.318,151.663,102.037z" /></g><g id="Top"><path  fill="none" stroke="#000000" stroke-width="4" stroke-linecap="round" stroke-linejoin="round" stroke-miterlimit="10" d="M202.625,240.375c0,0-6.75-7-10.625-1.75c-4.392,5.95-1.196,9,7.012,12.028c0,0-14.345,16.133,6.155,11.789" /><path  d="M230.167,172c3.314,0,6,2,6,6h4c0-6-4.477-10-10-10c-5.523,0-10,4-10,10h4C224.167,174,226.854,172,230.167,172z" /><path  d="M170.167,172c3.314,0,6,2,6,6h4c0-6-4.477-10-10-10c-5.523,0-10,4-10,10h4C164.167,174,166.854,172,170.167,172z" /></g></svg>