<?xml version="1.0" encoding="iso-8859-1"?><svg id="MegFaceLike" version="1.1" xmlns="http://www.w3.org/2000/svg" xmlns:xlink="http://www.w3.org/1999/xlink" xml:space="preserve" x="0px" y="0px" viewbox="0 0 400 400" width="400" height="400" ><g id="Face"><g  /><g  /><circle  cx="133.333" cy="173.238" r="20" class="SkinColor" fill="#F7CCBA"  /><circle  cx="266.667" cy="173.238" r="20" class="SkinColor" fill="#F7CCBA"  /><circle  fill="#D97755" cx="266.667" cy="173.238" r="10.146" /><circle  fill="#D97755" cx="133.333" cy="173.238" r="10.146" /><path  d="M200.667,80H200h-0.667C162.883,80,133,102.549,133,139l4,48c-15.5,11.5-14.748,29.741-5.667,40.5    c11.91,14.111,44.842,51.939,69.251,51.435c22.727-0.469,56.993-38.296,68.083-51.435c9.081-10.759,10.083-29-5.667-40.5l4-48    C267,102.549,237.117,80,200.667,80z" class="SkinColor" fill="#F7CCBA"  /></g><g id="Beard"><rect  x="157" y="221" width="86" height="10" class="BeardColor" fill="#5D2300"  /><path  d="M157,273.05V221h10v52.05c0,2.734-2.216,4.95-4.95,4.95h-0.1C159.216,278,157,275.784,157,273.05z" class="BeardColor" fill="#5D2300"  /><path  d="M233,273.05V221h10v52.05c0,2.734-2.216,4.95-4.95,4.95h-0.1C235.216,278,233,275.784,233,273.05z" class="BeardColor" fill="#5D2300"  /></g><g id="Nose"><ellipse  fill="#D97755" cx="200" cy="205.875" rx="11.492" ry="8.625" /><ellipse  fill="#D97755" cx="200" cy="195.375" rx="4.5" ry="10.125" /></g><g id="Eye"><radialGradient  cx="241.5589" cy="196.4411" r="21.559" gradientunits="userSpaceOnUse" /><circle  fill="url(#SVGID_1_)" cx="241.559" cy="196.441" r="21.559" /><radialGradient  cx="155.5589" cy="196.4411" r="21.5589" gradientunits="userSpaceOnUse" /><circle  fill="url(#SVGID_2_)" cx="155.559" cy="196.441" r="21.559" /></g><g id="Eyebrow"><path  d="M212.392,149.083c0,0,31.5,3.083,29.083-7.583c0,0-0.917-4.667-7.417-5.334    C234.059,136.166,237.892,145.666,212.392,149.083z" /><path  d="M187.608,149.083c0,0-31.5,3.083-29.083-7.583c0,0,0.917-4.667,7.417-5.334    C165.941,136.166,162.108,145.666,187.608,149.083z" /></g><g id="Glass"><rect  x="188.508" y="165" width="22.984" height="5.033" /><polygon  fill="none" stroke="#000000" stroke-width="3" stroke-linecap="round" stroke-linejoin="round" stroke-miterlimit="10" points="254.115,159.5 211.115,159.5 211.115,200.083 254.115,198.924" /><polygon  fill="none" stroke="#000000" stroke-width="3" stroke-linecap="round" stroke-linejoin="round" stroke-miterlimit="10" points="145.885,159.5 188.885,159.5 188.885,200.083 145.885,198.924" /></g><g id="Hair"><path  fill="#845F41" d="M151.663,102.037c-7.479,5.741-1.512,21.741-10.711,30.872c-3.96,3.934-4.493,27.592-4.493,27.592      l-14.017-5.945c-1.274-5.966-9.109-51.555,15.311-74.163c14.013-16.273,38.548-27.517,56.187-27.181      c19.754,0.375,35.56,8.997,35.56,8.997c46.023,7.292,49.5,44.644,44.427,69.528c-0.761,11.743-0.376,20.806-0.376,20.806      l-14.692,7.959c0,0-0.534-23.657-4.494-27.59c-9.2-9.132-3.232-25.133-10.711-30.874c-10.055-7.719-30.987,2.086-45.995,2.086      C182.651,104.122,161.718,94.318,151.663,102.037z" /></g><g id="Top"><polyline  fill="none" stroke="#000000" stroke-width="4" stroke-linecap="round" stroke-linejoin="round" stroke-miterlimit="10" points="184.667,242.167 198.833,253.5 214.5,241" /><path  fill="#AF2409" stroke="#FFFFFF" stroke-width="3" stroke-miterlimit="10" d="M60.062,149.592   c-3.737-2.562-9.768-0.753-13.097,2.157c-6.566,5.738-7.438,15.489-1.499,22.285c11.135,12.742,26.217,5.554,39.473,7.453   c0.133,0.033,0.262,0.042,0.404,0.051c1.552,0.097,2.895-1.076,3.006-2.627c0.011-0.143,0.002-0.256-0.013-0.393   c-0.112-13.415,9.082-27.323-2.098-40.116c-5.939-6.796-15.719-7.238-22.285-1.499C60.624,139.812,58.024,145.546,60.062,149.592z" /><path  fill="#AF2409" stroke="#FFFFFF" stroke-width="3" stroke-miterlimit="10" d="M64.461,226.037   c-3.271-1.17-7.39,1.348-9.292,4.156c-3.75,5.537-2.493,12.938,3.238,16.819c10.744,7.276,20.526-0.998,30.727-2.177   c0.105-0.001,0.203-0.02,0.31-0.041c1.17-0.231,1.937-1.363,1.717-2.535c-0.02-0.108-0.049-0.19-0.086-0.289   c-2.701-9.926,1.403-22.035-9.385-29.339c-5.731-3.88-13.069-2.3-16.819,3.238C62.969,218.675,62.16,223.434,64.461,226.037z" /><path  d="M230.167,172c3.314,0,6,2,6,6h4c0-6-4.477-10-10-10c-5.523,0-10,4-10,10h4C224.167,174,226.854,172,230.167,172z" /><path  d="M170.167,172c3.314,0,6,2,6,6h4c0-6-4.477-10-10-10c-5.523,0-10,4-10,10h4C164.167,174,166.854,172,170.167,172z" /></g></svg>