<?xml version="1.0" encoding="iso-8859-1"?><svg id="MegFaceEmbarrassed" version="1.1" xmlns="http://www.w3.org/2000/svg" xmlns:xlink="http://www.w3.org/1999/xlink" xml:space="preserve" x="0px" y="0px" viewbox="0 0 400 400" width="400" height="400" ><g id="Face"><g  /><g  /><circle  cx="133.333" cy="173.238" r="20" class="SkinColor" fill="#F7CCBA"  /><circle  cx="266.667" cy="173.238" r="20" class="SkinColor" fill="#F7CCBA"  /><circle  fill="#D97755" cx="266.667" cy="173.238" r="10.146" /><circle  fill="#D97755" cx="133.333" cy="173.238" r="10.146" /><path  d="M200.667,80H200h-0.667C162.883,80,133,102.549,133,139l4,48c-15.5,11.5-14.748,29.741-5.667,40.5    c11.91,14.111,44.842,51.939,69.251,51.435c22.727-0.469,56.993-38.296,68.083-51.435c9.081-10.759,10.083-29-5.667-40.5l4-48    C267,102.549,237.117,80,200.667,80z" class="SkinColor" fill="#F7CCBA"  /></g><g id="Mouth"><path  d="M169.146,239.908l63.708-3.167C232.854,236.742,201.438,253.575,169.146,239.908z" /></g><g id="Beard"><rect  x="157" y="221" width="86" height="10" class="BeardColor" fill="#5D2300"  /><path  d="M157,273.05V221h10v52.05c0,2.734-2.216,4.95-4.95,4.95h-0.1C159.216,278,157,275.784,157,273.05z" class="BeardColor" fill="#5D2300"  /><path  d="M233,273.05V221h10v52.05c0,2.734-2.216,4.95-4.95,4.95h-0.1C235.216,278,233,275.784,233,273.05z" class="BeardColor" fill="#5D2300"  /></g><g id="Nose"><ellipse  fill="#D97755" cx="200" cy="205.875" rx="11.492" ry="8.625" /><ellipse  fill="#D97755" cx="200" cy="195.375" rx="4.5" ry="10.125" /></g><g id="Eye"><ellipse  fill="#FFFFFF" cx="230" cy="175" rx="14" ry="5" /><ellipse  fill="#FFFFFF" cx="170" cy="175" rx="14" ry="5" /><circle  cx="235.722" cy="176" r="3.5" class="EyeColor" fill="#1860B5"  /><circle  cx="175.5" cy="176" r="3.5" class="EyeColor" fill="#1860B5"  /></g><g id="Eyebrow"><path  d="M212.392,145.084c0,0,31.5,3.083,29.083-7.583c0,0-0.917-4.666-7.417-5.333    C234.059,132.167,237.892,141.667,212.392,145.084z" /><path  d="M187.608,145.084c0,0-31.5,3.083-29.083-7.583c0,0,0.917-4.666,7.417-5.333    C165.941,132.167,162.108,141.667,187.608,145.084z" /></g><g id="Glass"><rect  x="188.508" y="165" width="22.984" height="5.033" /><polygon  fill="none" stroke="#000000" stroke-width="3" stroke-linecap="round" stroke-linejoin="round" stroke-miterlimit="10" points="254.115,159.5 211.115,159.5 211.115,200.083 254.115,198.924" /><polygon  fill="none" stroke="#000000" stroke-width="3" stroke-linecap="round" stroke-linejoin="round" stroke-miterlimit="10" points="145.885,159.5 188.885,159.5 188.885,200.083 145.885,198.924" /></g><g id="Hair"><path  fill="#845F41" d="M151.663,102.037c-7.479,5.741-1.512,21.741-10.711,30.872c-3.96,3.934-4.493,27.592-4.493,27.592      l-14.017-5.945c-1.274-5.966-9.109-51.555,15.311-74.163c14.013-16.273,38.548-27.517,56.187-27.181      c19.754,0.375,35.56,8.997,35.56,8.997c46.023,7.292,49.5,44.644,44.427,69.528c-0.761,11.743-0.376,20.806-0.376,20.806      l-14.692,7.959c0,0-0.534-23.657-4.494-27.59c-9.2-9.132-3.232-25.133-10.711-30.874c-10.055-7.719-30.987,2.086-45.995,2.086      C182.651,104.122,161.718,94.318,151.663,102.037z" /></g><g id="Top"><rect  x="251" y="73" width="7" height="54" /><rect  x="266" y="73" width="7" height="54" /><rect  x="280" y="73" width="7" height="54" /><path  fill="#034287" d="M136.57,129.267c0.509-3.925,2.815-9.485,8.336-17.393c0,0,17.836,24.009,0,26.753   c0,0-0.671,0.018-1.635-0.133c5.02,9.828,9.074,23.652-6.139,25.993C137.132,164.487,111.885,165.163,136.57,129.267z" /><path  fill="#51C2F4" d="M134.52,128.449c0,0,22.735,30.605,0,34.102C134.52,162.551,110.255,163.207,134.52,128.449z" /><path  fill="#51C2F4" d="M144.388,114.068c0,0,13.91,18.725,0,20.865C144.388,134.933,129.542,135.334,144.388,114.068z" /><path  fill="#FFFFFF" d="M136.694,159.251c0.175,0,0.353-0.031,0.527-0.096c2.844-1.066,4.661-2.637,5.402-4.669   c0.93-2.549-0.236-4.742-0.372-4.983c-0.406-0.723-1.32-0.979-2.042-0.572c-0.718,0.404-0.975,1.31-0.579,2.03   c0.026,0.05,0.641,1.262,0.164,2.527c-0.431,1.142-1.685,2.13-3.627,2.858c-0.775,0.29-1.169,1.155-0.877,1.931   C135.515,158.879,136.087,159.251,136.694,159.251z" /></g></svg>