<?xml version="1.0" encoding="iso-8859-1"?><svg id="MegFaceScream" version="1.1" xmlns="http://www.w3.org/2000/svg" xmlns:xlink="http://www.w3.org/1999/xlink" xml:space="preserve" x="0px" y="0px" viewbox="0 0 400 400" width="400" height="400" ><g id="Face"><g  /><g  /><circle  cx="133.333" cy="173.238" r="20" class="SkinColor" fill="#F7CCBA"  /><circle  cx="266.667" cy="173.238" r="20" class="SkinColor" fill="#F7CCBA"  /><circle  fill="#D97755" cx="266.667" cy="173.238" r="10.146" /><circle  fill="#D97755" cx="133.333" cy="173.238" r="10.146" /><path  d="M200.667,80H200h-0.667C162.883,80,133,102.549,133,139l4,48c-15.5,11.5-14.748,29.741-5.667,40.5    c11.91,14.111,44.842,51.939,69.251,51.435c22.727-0.469,56.993-38.296,68.083-51.435c9.081-10.759,10.083-29-5.667-40.5l4-48    C267,102.549,237.117,80,200.667,80z" class="SkinColor" fill="#F7CCBA"  /></g><g id="Beard"><path  d="M210.198,219.961c0,0-6.143,2.726-1.817,6.754c4.326,4.029,43.664-8.334,43.664-8.334L210.198,219.961z" class="BeardColor" fill="#5D2300"  /><path  d="M189.878,220.986c0,0,5.825,3.352,1.102,6.907c-4.723,3.555-42.555-12.847-42.555-12.847L189.878,220.986z" class="BeardColor" fill="#5D2300"  /></g><g id="Nose"><ellipse  fill="#D97755" cx="200" cy="202.875" rx="11.492" ry="8.625" /><ellipse  fill="#D97755" cx="200" cy="192.375" rx="4.5" ry="10.125" /></g><g id="Eyebrow"><path  d="M213.584,150.884c0,0,30.527-8.358,24.464-17.461c0,0-2.521-4.032-8.831-2.336    C229.217,131.086,236.186,138.594,213.584,150.884z" /><path  d="M186.626,152.474c0,0-28.924-12.851-21.562-20.939c0,0,3.099-3.608,9.082-0.983    C174.145,130.552,166.126,136.927,186.626,152.474z" /></g><g id="Hair"><path  fill="#845F41" d="M151.663,102.037c-7.479,5.741-1.512,21.741-10.711,30.872c-3.96,3.934-4.493,27.592-4.493,27.592      l-14.017-5.945c-1.274-5.966-9.109-51.555,15.311-74.163c14.013-16.273,38.548-27.517,56.187-27.181      c19.754,0.375,35.56,8.997,35.56,8.997c46.023,7.292,49.5,44.644,44.427,69.528c-0.761,11.743-0.376,20.806-0.376,20.806      l-14.692,7.959c0,0-0.534-23.657-4.494-27.59c-9.2-9.132-3.232-25.133-10.711-30.874c-10.055-7.719-30.987,2.086-45.995,2.086      C182.651,104.122,161.718,94.318,151.663,102.037z" /></g><g id="Top"><polygon  points="211.268,171.473 232.544,155.047 236.495,159.847 219.746,169.205 240.063,170.303 234.549,175.518" /><polygon  points="191.063,171.473 169.786,155.047 165.835,159.847 182.585,169.205 162.268,170.303 167.782,175.518" /><polygon  fill="#D97755" points="202.25,145 204,154.434 235.25,121.275 207.75,145" /><polygon  fill="#D97755" points="190,156.375 194.125,147.875 190,148.625 171.386,119.875" /><polygon  fill="#D97755" points="199,149 199,158 194.125,156" /><path  d="M200.886,236.865c0,0-4.886,1.642-9.896-2.64c-3.517-3.005-14.918-5.084-16.9,5.584   c-1.983,10.669,8.203,14.092,23.977,10.937c0,0,7.361-1.534,13.461,1.126c0,0,12.62,6.446,16.406-7.646   C227.933,244.226,233.509,226.822,200.886,236.865z" /><path  fill="#FFFFFF" d="M177.019,244.956c2.264,4.013,9.733,6.143,21.303,2.226c0,0,6.73-0.865,12.307,0.635    c0,0,10.425,5.743,14.257-1.752C209.894,242.949,183.914,244.474,177.019,244.956z" /><path  fill="#FFFFFF" d="M225.86,243.207c0.032-0.15,0.07-0.29,0.098-0.447c0,0-0.041-12.322-25.059-3.404    c0,0-4.467,0.926-9.048-1.488c-3.215-1.694-13.6-6.514-15.451,3.148c-0.063,0.331-0.095,0.659-0.105,0.982    C182.544,241.535,209.953,239.783,225.86,243.207z" /></g></svg>