<?xml version="1.0" encoding="iso-8859-1"?><svg id="MegFaceOn Fire" version="1.1" xmlns="http://www.w3.org/2000/svg" xmlns:xlink="http://www.w3.org/1999/xlink" xml:space="preserve" x="0px" y="0px" viewbox="0 0 400 400" width="400" height="400" ><g id="Face"><g  /><g  /><circle  cx="133.333" cy="173.238" r="20" class="SkinColor" fill="#F7CCBA"  /><circle  cx="266.667" cy="173.238" r="20" class="SkinColor" fill="#F7CCBA"  /><circle  fill="#D97755" cx="266.667" cy="173.238" r="10.146" /><circle  fill="#D97755" cx="133.333" cy="173.238" r="10.146" /><path  d="M267,189v-50h0.18c-0.184-37-29.986-59-66.325-59h-1.521c-36.338,0-66.141,22-66.325,59H133v50l12,64.999    c0,0,37.999,26.001,45,26.001h20.189c7.001,0,44.811-26,44.811-26L267,189z" class="SkinColor" fill="#F7CCBA"  /></g><g id="Beard"><path  d="M214.04,280l-0.072-0.123c-0.072-0.263-0.21-0.492-0.407-0.692L199.674,266.5l-13.234,12.645    c-0.2,0.225-0.347,0.471-0.419,0.746L185.96,280h0.045c-0.018,0-0.045,0.19-0.045,0.294c0,7.754,6.286,14.04,14.04,14.04    s14.04-6.286,14.04-14.04c0-0.107-0.033-0.294-0.051-0.294H214.04z" class="BeardColor" fill="#5D2300"  /></g><g id="Nose"><path  fill="#D97755" d="M200,169.667c-1.524,3.256-8.023,25.447-7.442,36.582c0.418,8.008,4.393,9.769,7.442,10.25    c3.239-0.481,7.024-2.242,7.442-10.25C208.022,195.114,201.046,172.923,200,169.667z" /></g><g id="Eyebrow"><polygon  points="212.415,153.629 223.5,156.375 240.589,127.562" /><polygon  points="177.5,154.434 188.25,154.434 161.175,127.562" /></g><g id="Hair"><path  fill="#845F41" d="M281.925,96.463c0,0-10.925-22.188-36.925-15.333v-0.001c0,0-6.501,1.873-19.448-1.317    c-5.177-1.275-15.013-4.092-25.351-4.366c-10.338-0.274-20.388,3.09-25.586,4.366C161.622,83.003,155,81.129,155,81.129v0.001    c-26-6.855-36.981,15.333-36.981,15.333c-16.356,35.722,9.628,54.036,9.628,54.036c2.274,2.845,4.066,5.255,5.353,7.301V139    c0-36.451,29.883-59,66.333-59H200h0.667C237.117,80,267,102.55,267,139v18.915c1.291-2.07,3.06-4.517,5.368-7.416    C272.368,150.499,298.223,132.185,281.925,96.463z" /></g><g id="Top"><path  fill="#FFFFFF" d="M213.75,169.25l36.25-15C250,154.25,245,202.5,213.75,169.25z" /><path  fill="#D30010" d="M221.56,170.537L242.19,162C242.19,162,239.345,189.46,221.56,170.537z" /><path  fill="#FFFFFF" d="M190,169.25l-36.25-15C153.75,154.25,158.75,202.5,190,169.25z" /><path  fill="#D30010" d="M182.19,170.537L161.56,162C161.56,162,164.405,189.46,182.19,170.537z" /><path  d="M229.697,249.394c0,0-26.451-43.172-58.311,1.889C171.386,251.283,196.278,234.405,229.697,249.394z" /><path  fill="#D30010" d="M275.795,141.064c0,0-6.979,7.713-15.059,2.938c-8.081-4.775-1.469-15.392-3.673-21.102   c0,0,10.174,3.472,9.128,8.614c0,0,5.564-12.781-4.72-26.408c0,0-8.081-12.893,8.448-20.606c0,0-11.019,17.263,9.55,34.893   c0,0,7.346,4.408,8.081,8.448c0,0,5.142-3.215,2.571-12.81C290.12,115.031,302.975,144.002,275.795,141.064z" /><path  fill="#D30010" d="M104.635,146.321c0,0-8.004,3.52-12.563-2.92c-4.559-6.44,4.162-12.314,4.433-17.452   c0,0,6.613,6.16,4.043,9.745c0,0,8.661-7.894,5.453-21.882c0,0-1.769-12.668,13.562-12.906c0,0-14.386,9.458-4.663,30.052   c0,0,4.121,5.906,3.297,9.258c0,0,5.05-0.7,6.374-8.945C124.57,131.27,124.478,157.915,104.635,146.321z" /><polygon  fill="#D97755" points="202.25,145 204,154.434 235.25,121.275 207.75,145" /><polygon  fill="#D97755" points="190,156.375 194.125,147.875 190,148.625 171.386,119.875" /><polygon  fill="#D97755" points="199,149 199,158 194.125,156" /></g></svg>