<?xml version="1.0" encoding="iso-8859-1"?><svg id="MegFaceCry" version="1.1" xmlns="http://www.w3.org/2000/svg" xmlns:xlink="http://www.w3.org/1999/xlink" xml:space="preserve" x="0px" y="0px" viewbox="0 0 400 400" width="400" height="400" ><g id="Face"><g  /><g  /><circle  cx="133.333" cy="173.238" r="20" class="SkinColor" fill="#F7CCBA"  /><circle  cx="266.667" cy="173.238" r="20" class="SkinColor" fill="#F7CCBA"  /><circle  fill="#D97755" cx="266.667" cy="173.238" r="10.146" /><circle  fill="#D97755" cx="133.333" cy="173.238" r="10.146" /><path  d="M200.667,80h-1.333C162.883,80,133,102.549,133,139v58c4,22.105,17.193,45.733,27.333,55.5    c24.917,24,36.479,22.833,39.667,22.833c3.63,0,17.083,0.265,39.667-22.833C249.509,242.433,263,219.105,267,197v-58    C267,102.549,237.117,80,200.667,80z" class="SkinColor" fill="#F7CCBA"  /></g><g id="Beard"><path  d="M246.378,218.938h-92.756c-3.427-25-14.622-23.75-20.622-25.275v20.275c0,36.451,23.75,66,67,66    s67-29.549,67-66v-20.275C261,195.188,249.799,193.938,246.378,218.938z M245.37,245.317c0,0-14.203,22.926-45.65,23.844    c-31.496-0.918-45.053-23.74-45.053-23.74c0.061-4.879-0.117-16.484-0.457-20.484h91.581    C245.452,228.938,245.309,240.438,245.37,245.317z" class="BeardColor" fill="#5D2300"  /></g><g id="Nose"><path  fill="#D97755" d="M209.45,199.181c0,0-8.677-27.241-9.45-29.514c-1.022,2.063-10.857,29.741-10.857,29.741    c-3.107,0.223-17.628,14.594,10.221,15.092C223.438,214.931,216.305,199.397,209.45,199.181z" /></g><g id="Eyebrow"><path  d="M214.797,135.016c0,0,8.997-17.895,33.818,14.119C248.615,149.136,223.184,140.369,214.797,135.016z" /><path  d="M186.876,133.675c0,0-10.337-17.156-32.642,16.66C154.234,150.335,178.922,139.653,186.876,133.675z" /></g><g id="Hair"><path  fill="#845F41" d="M282.667,125.667c0.427-40.667-19-55.375-43.333-60.042c-24.333-4.667-48.856-0.774-68.083,5.708    c0,0-12.583-14.333-30.583,1.333c-15.842,13.789-26,51.667-14.667,80.571l13.333,20c0,0-1.333-47.905,9-47.571    c0,0-3.195-15.492,6.568-20.981c4.084-0.965,9.045-1.031,15.099-0.019c2.714,8.402,29.695,13.241,39,13.241    c9.269,0,35.292,1.067,47.652,13.441l1.868,36.984L267,155.704v-0.022l6-0.85C273,154.833,282.439,147.344,282.667,125.667z" /><g  /></g><g id="Top"><path  d="M243.697,156.189c-16.195-8.906-28.839,7.641-28.839,7.641l4.779,4.481c0,0,8.227-9.922,21.73-6.556L243.697,156.189z" /><path  d="M156.715,154.865c16.952-7.364,28.005,10.285,28.005,10.285l-5.174,4.018c0,0-7.27-10.643-21.028-8.545L156.715,154.865z" /><path  fill="#51C2F4" d="M159.777,161.755l-2.019-4.823l0,0l0,0l-0.311-0.743c0,0-0.091-0.102-0.24-0.264     c-3.219-5.769-20.295-34.752-39.746-37.151c-3.222-0.397-6.537,0.527-8.854,2.801c-2.291,2.25-3.245,5.542,3.824,9.055     c-5.215-0.933-10.741-1.262-16.512-0.687c-2.243,0.224-4.413,1.101-6.018,2.684c-1.909,1.883-3.007,4.706,1.882,7.799     c0.904,0.572,1.905,0.97,2.954,1.176c1.492,0.293,4.153,0.825,7.568,1.544c-13.481-0.199-27.733,2.378-40.91,10.083     c-15.722,9.194-7,25.52,9.25,15.081C70.644,168.31,105.41,142.509,159.777,161.755z" /><path  fill="#51C2F4" d="M80.044,183.075c0,0,5.049,16.831,21.6-19.075C101.644,164,74.714,164.561,80.044,183.075z" /><path  fill="#51C2F4" d="M97.394,118.75c0,0-9.33-13.5-23.915-5.5c0,0-4.665,3.934,0,8.842     C73.479,122.092,81.255,128.977,97.394,118.75z" /><path  fill="#51C2F4" d="M131.144,116.333c0,0-2.667-9.167-9.667-9.667c0,0-6,0.765-3.333,6.049     C120.811,118,128.977,116.167,131.144,116.333z" /><path  fill="#51C2F4" d="M156.432,134.464c0,0,0.426-16.417-6.544-21.543c0,0-7.852-6.025-11.809,0.388     c-6.768,10.969,5.964,13.463,17.101,36.677C157.587,150.766,156.432,134.464,156.432,134.464z" /><path  fill="#51C2F4" d="M118.736,178.5c7.091-8.333,23.575-17.563,23.575-17.563c-23-0.126-35.39,10.741-35.39,10.741     C94.478,183.384,111.644,186.833,118.736,178.5z" /><path  fill="#51C2F4" d="M111.144,102.167c0,0-2.167-13.667-13.75-12.833c0,0-10.417,1.667-5.583,8.5     C97.786,106.281,105.311,98.333,111.144,102.167z" /><path  fill="#51C2F4" d="M128.894,99c4.426,3.541,6.25,3.167,6.25,3.167s-0.667-14.667-7.917-12.87     C127.227,89.297,120.144,92,128.894,99z" /><path  fill="#A2DDF2" d="M114.482,131.561c-0.734-0.305-1.398-0.609-2.009-0.911c-2.9-0.52-5.894-0.857-8.976-0.95    c15.863,7.007,27.314,12.287,35.074,15.839C130.709,140.287,124.169,135.585,114.482,131.561z" /><path  fill="#A2DDF2" d="M144.623,154.75c0,0-24.479-19.691-49.229-14.408c0,0-6.125,3.6,0.625,6.754    S134.731,149.488,144.623,154.75z" /><path  fill="#A2DDF2" d="M157.195,144.804c0,0-0.154-0.894-0.486-2.308c-0.011,3.986-0.323,7.881-1.528,7.49    c-7.118-14.836-14.878-21.207-17.792-26.738c-1.34,0.584-2.519,1.689-3.244,3.629c-4.704,12.588,8.823,12.565,24.909,34.056    C161.672,161.245,157.195,144.804,157.195,144.804z" /><path  fill="#51C2F4" d="M240.223,161.755l2.019-4.823l0,0l0,0l0.311-0.743c0,0,0.091-0.102,0.24-0.264     c3.219-5.769,20.295-34.752,39.746-37.151c3.222-0.397,6.537,0.527,8.854,2.801c2.291,2.25,3.245,5.542-3.824,9.055     c5.215-0.933,10.741-1.262,16.513-0.687c2.243,0.224,4.413,1.101,6.018,2.684c1.909,1.883,3.007,4.706-1.882,7.799     c-0.904,0.572-1.905,0.97-2.954,1.176c-1.492,0.293-4.152,0.825-7.568,1.544c13.481-0.199,27.733,2.378,40.91,10.083     c15.722,9.194,7,25.52-9.25,15.081C329.356,168.31,294.59,142.509,240.223,161.755z" /><path  fill="#51C2F4" d="M319.956,183.075c0,0-5.049,16.831-21.6-19.075C298.356,164,325.286,164.561,319.956,183.075z" /><path  fill="#51C2F4" d="M302.606,118.75c0,0,9.33-13.5,23.915-5.5c0,0,4.665,3.934,0,8.842     C326.521,122.092,318.745,128.977,302.606,118.75z" /><path  fill="#51C2F4" d="M268.856,116.333c0,0,2.667-9.167,9.667-9.667c0,0,6,0.765,3.333,6.049     C279.189,118,271.022,116.167,268.856,116.333z" /><path  fill="#51C2F4" d="M243.568,134.464c0,0-0.426-16.417,6.544-21.543c0,0,7.852-6.025,11.809,0.388     c6.768,10.969-5.964,13.463-17.101,36.677C242.413,150.766,243.568,134.464,243.568,134.464z" /><path  fill="#51C2F4" d="M281.264,178.5c-7.091-8.333-23.575-17.563-23.575-17.563c23-0.126,35.39,10.741,35.39,10.741     C305.522,183.384,288.356,186.833,281.264,178.5z" /><path  fill="#51C2F4" d="M288.856,102.167c0,0,2.167-13.667,13.75-12.833c0,0,10.417,1.667,5.583,8.5     C302.214,106.281,294.689,98.333,288.856,102.167z" /><path  fill="#51C2F4" d="M271.106,99c-4.426,3.541-6.25,3.167-6.25,3.167s0.667-14.667,7.917-12.87     C272.772,89.297,279.856,92,271.106,99z" /><path  fill="#A2DDF2" d="M285.518,131.561c0.735-0.305,1.398-0.609,2.009-0.911c2.9-0.52,5.894-0.857,8.976-0.95    c-15.863,7.007-27.314,12.287-35.074,15.839C269.291,140.287,275.831,135.585,285.518,131.561z" /><path  fill="#A2DDF2" d="M255.377,154.75c0,0,24.479-19.691,49.229-14.408c0,0,6.125,3.6-0.625,6.754    S265.269,149.488,255.377,154.75z" /><path  fill="#A2DDF2" d="M242.805,144.804c0,0,0.154-0.894,0.486-2.308c0.011,3.986,0.323,7.881,1.528,7.49    c7.118-14.836,14.878-21.207,17.792-26.738c1.34,0.584,2.519,1.689,3.244,3.629c4.704,12.588-8.823,12.565-24.909,34.056    C238.328,161.245,242.805,144.804,242.805,144.804z" /><path  d="M187.75,253.438c-11.715,0-19.725-6.727-15.106-12.774c4.616-6.044,13.238-11.215,29.202-11.421   c0,0,15.416-0.521,25.239,11.07c5.16,6.09-2.817,13.124-14.824,13.124H187.75z" /><path  fill="#822006" d="M183.863,247.113c1.806,1.714,4.802,2.887,8.357,2.887h15.198c3.342,0,6.171-1.034,7.996-2.572   C210.084,245.206,198.398,241.896,183.863,247.113z" /></g></svg>