<?xml version="1.0" encoding="iso-8859-1"?><svg id="MegFaceSleep" version="1.1" xmlns="http://www.w3.org/2000/svg" xmlns:xlink="http://www.w3.org/1999/xlink" xml:space="preserve" x="0px" y="0px" viewbox="0 0 400 400" width="400" height="400" ><g id="Face"><g  /><g  /><circle  cx="133.333" cy="173.238" r="20" class="SkinColor" fill="#F7CCBA"  /><circle  cx="266.667" cy="173.238" r="20" class="SkinColor" fill="#F7CCBA"  /><circle  fill="#D97755" cx="266.667" cy="173.238" r="10.146" /><circle  fill="#D97755" cx="133.333" cy="173.238" r="10.146" /><path  d="M200.667,80h-1.333C162.883,80,133,102.549,133,139v58c4,22.105,17.193,45.733,27.333,55.5    c24.917,24,36.479,22.833,39.667,22.833c3.63,0,17.083,0.265,39.667-22.833C249.509,242.433,263,219.105,267,197v-58    C267,102.549,237.117,80,200.667,80z" class="SkinColor" fill="#F7CCBA"  /></g><g id="Beard"><path  d="M246.378,218.938h-92.756c-3.427-25-14.622-23.75-20.622-25.275v20.275c0,36.451,23.75,66,67,66     s67-29.549,67-66v-20.275C261,195.188,249.799,193.938,246.378,218.938z M245.37,245.317c0,0-14.203,22.926-45.65,23.844     c-31.496-0.918-45.053-23.74-45.053-23.74c0.061-4.879-0.117-16.484-0.457-20.484h91.581     C245.452,228.938,245.309,240.438,245.37,245.317z" class="BeardColor" fill="#5D2300"  /></g><g id="Nose"><path  fill="#D97755" d="M209.45,199.181c0,0-8.677-27.241-9.45-29.514c-1.022,2.063-10.857,29.741-10.857,29.741    c-3.107,0.223-17.628,14.594,10.221,15.092C223.438,214.931,216.305,199.397,209.45,199.181z" /></g><g id="Eyebrow"><path  d="M211.438,148.083c0,0,4.75-19.458,36.125,6.167C247.563,154.25,220.813,151.416,211.438,148.083z" /><path  d="M188.563,148.083c0,0-4.75-19.458-36.125,6.167C152.438,154.25,179.188,151.416,188.563,148.083z" /></g><g id="Glass"><rect  x="188.508" y="170.721" width="22.984" height="5.033" /><ellipse  fill="none" stroke="#000000" stroke-width="3" stroke-linecap="round" stroke-linejoin="round" stroke-miterlimit="10" cx="233" cy="173.5" rx="22.515" ry="21" /><ellipse  fill="none" stroke="#000000" stroke-width="3" stroke-linecap="round" stroke-linejoin="round" stroke-miterlimit="10" cx="167" cy="173.5" rx="22.515" ry="21" /></g><g id="Hair"><path  fill="#845F41" d="M282.667,125.667c0.427-40.667-19-55.375-43.333-60.042c-24.333-4.667-48.856-0.774-68.083,5.708    c0,0-12.583-14.333-30.583,1.333c-15.842,13.789-26,51.667-14.667,80.571l13.333,20c0,0-1.333-47.905,9-47.571    c0,0-3.195-15.492,6.568-20.981c4.084-0.965,9.045-1.031,15.099-0.019c2.714,8.402,29.695,13.241,39,13.241    c9.269,0,35.292,1.067,47.652,13.441l1.868,36.984L267,155.704v-0.022l6-0.85C273,154.833,282.439,147.344,282.667,125.667z" /><g  /></g><g id="Top"><path  fill="#FCFCFC" stroke="#000000" stroke-width="6" stroke-linecap="round" stroke-linejoin="round" stroke-miterlimit="10" d="M97,74.667c0,0-15.352-4.321-38.493,6.641S20.603,122.74,34,151.667c0,0,12.667,40.958,64.415,25.612   c0,0,3.045,17.965,20.705,24.055c0,0-16.44-23.505-8.526-30.449C110.595,170.885,152.417,88.673,97,74.667z" /><polyline  fill="none" stroke="#000000" stroke-width="6" stroke-linecap="round" stroke-linejoin="round" stroke-miterlimit="10" points="75.809,153.491 87,136.173 87,160.837 98.76,150.788" /><polyline  fill="none" stroke="#000000" stroke-width="6" stroke-linecap="round" stroke-linejoin="round" stroke-miterlimit="10" points="44.802,117.022 70.939,94.047 61.984,133.229 86.84,122.113" /><path  d="M230.167,174c3.314,0,6-2,6-6h4c0,6-4.477,10-10,10c-5.523,0-10-4-10-10h4C224.167,172,226.854,174,230.167,174z" /><path  d="M170.167,174c3.314,0,6-2,6-6h4c0,6-4.477,10-10,10c-5.523,0-10-4-10-10h4C164.167,172,166.854,174,170.167,174z" /><path  fill="#822006" d="M183.667,239.333c0,0,13,10.833,31.667,0" /></g></svg>