<?xml version="1.0" encoding="iso-8859-1"?><svg id="MegFaceStrive" version="1.1" xmlns="http://www.w3.org/2000/svg" xmlns:xlink="http://www.w3.org/1999/xlink" xml:space="preserve" x="0px" y="0px" viewbox="0 0 400 400" width="400" height="400" ><g id="Bottom"><path  fill="#D32929" d="M242.333,129c0,0,28,14.908,40.667,6.574s33.167-39.074,81-17.666l-18,13.814    c0,0-13.29,3.835-21.197,1.348c-8.218-2.585-19.264-2.697-30.136,7.597C294.667,140.667,267,175,242.333,129z" /><path  fill="#910505" d="M257.802,140.245c0,0,42.364-28.841,69.364,20.255c0,0,15.063,33.083,40.833,14.167l19.667,20.971    c0,0-62.667,11.213-70-27.546c0,0-9.667-54.092-58.56-17.842L257.802,140.245z" /><path  fill="#910505" d="M325.706,133.008c0,0,34.628-1.008,38.628-25.008H389C389,108,370.745,144.349,325.706,133.008z" /></g><g id="Face"><g  /><g  /><circle  cx="133.333" cy="173.238" r="20" class="SkinColor" fill="#F7CCBA"  /><circle  cx="266.667" cy="173.238" r="20" class="SkinColor" fill="#F7CCBA"  /><circle  fill="#D97755" cx="266.667" cy="173.238" r="10.146" /><circle  fill="#D97755" cx="133.333" cy="173.238" r="10.146" /><path  d="M267,189v-50h0.18c-0.184-37-29.986-59-66.325-59h-1.521c-36.338,0-66.141,22-66.325,59H133v50l12,64.999    c0,0,37.999,26.001,45,26.001h20.189c7.001,0,44.811-26,44.811-26L267,189z" class="SkinColor" fill="#F7CCBA"  /></g><g id="Beard"><path  d="M214.04,280l-0.072-0.123c-0.072-0.263-0.21-0.492-0.407-0.692L199.674,266.5l-13.234,12.645    c-0.2,0.225-0.347,0.471-0.419,0.746L185.96,280h0.045c-0.018,0-0.045,0.19-0.045,0.294c0,7.754,6.286,14.04,14.04,14.04    s14.04-6.286,14.04-14.04c0-0.107-0.033-0.294-0.051-0.294H214.04z" class="BeardColor" fill="#5D2300"  /></g><g id="Nose"><path  fill="#D97755" d="M200,169.667c-1.524,3.256-8.023,25.447-7.442,36.582c0.418,8.008,4.393,9.769,7.442,10.25    c3.239-0.481,7.024-2.242,7.442-10.25C208.022,195.114,201.046,172.923,200,169.667z" /></g><g id="Eye"><circle  fill="#FFFFFF" cx="230" cy="175" r="12" /><circle  cx="230" cy="175" r="6.667" class="EyeColor" fill="#1860B5"  /><circle  fill="#FFFFFF" cx="170" cy="175" r="12" /><circle  cx="170" cy="175" r="6.667" class="EyeColor" fill="#1860B5"  /></g><g id="Eyebrow"><polygon  points="176.389,155.651 189.934,150.104 155.691,147" /><polygon  points="223.611,155.651 210.066,150.104 244.309,147" /></g><g id="Glass"><rect  x="188.508" y="165" width="22.984" height="5.033" /><path  fill="none" stroke="#000000" stroke-width="3" stroke-linecap="round" stroke-linejoin="round" stroke-miterlimit="10" d="M211.492,173.238c0,0-0.508-9.738,0-11.405C212,160.167,234,155.925,249.333,165c0,0,8.167,3.183,3.667,10" /><path  fill="none" stroke="#000000" stroke-width="3" stroke-linecap="round" stroke-linejoin="round" stroke-miterlimit="10" d="M188.232,173.238c0,0,0.508-9.738,0-11.405c-0.508-1.667-22.508-5.908-37.841,3.167c0,0-7.64,4.683-3.14,11.5" /></g><g id="Hair"><path  fill="#845F41" d="M281.925,96.463c0,0-10.925-22.188-36.925-15.333v-0.001c0,0-6.501,1.873-19.448-1.317    c-5.177-1.275-15.013-4.092-25.351-4.366c-10.338-0.274-20.388,3.09-25.586,4.366C161.622,83.003,155,81.129,155,81.129v0.001    c-26-6.855-36.981,15.333-36.981,15.333c-16.356,35.722,9.628,54.036,9.628,54.036c2.274,2.845,4.066,5.255,5.353,7.301V139    c0-36.451,29.883-59,66.333-59H200h0.667C237.117,80,267,102.55,267,139v18.915c1.291-2.07,3.06-4.517,5.368-7.416    C272.368,150.499,298.223,132.185,281.925,96.463z" /></g><g id="Top"><path  fill="#910505" d="M130,136.667c0,0,76.667,20.667,140.667,0c0,0,0-26.667-10.667-31.333c0,0-108.333,9-118.667,0   C141.333,105.333,125,117.908,130,136.667z" /><path  d="M177.718,236.465c0,0,14.456,11.755,47.231-6.233c0,0-0.286,20.485,2.938,21.152   C227.888,251.383,192.448,271.13,177.718,236.465z" /><path  fill="#FFFFFF" d="M210.381,246.502c9.952-3.175,10.579-4.757,11.662-5.639l0.128-5.772c0,0-25.762,14.75-37.716,7.369    c0,0,0.508,2.095,3.654,4.91C190.333,249.191,196.55,250.775,210.381,246.502z" /><path  fill="#FFFFFF" d="M221.955,245.169c-19.231,8.38-27.042,6.336-27.81,6.369c5.962,2.8,15.134,3.975,28.77-1.139    L221.955,245.169z" /></g></svg>