<?xml version="1.0" encoding="iso-8859-1"?><svg id="MegFacePuke" version="1.1" xmlns="http://www.w3.org/2000/svg" xmlns:xlink="http://www.w3.org/1999/xlink" xml:space="preserve" x="0px" y="0px" viewbox="0 0 400 400" width="400" height="400" ><g id="Face"><g  /><g  /><circle  cx="133.333" cy="173.238" r="20" class="SkinColor" fill="#F7CCBA"  /><circle  cx="266.667" cy="173.238" r="20" class="SkinColor" fill="#F7CCBA"  /><circle  fill="#D97755" cx="266.667" cy="173.238" r="10.146" /><circle  fill="#D97755" cx="133.333" cy="173.238" r="10.146" /><path  d="M200.667,80H200h-0.667C162.883,80,133,102.549,133,139l4,48c-15.5,11.5-14.748,29.741-5.667,40.5    c11.91,14.111,44.842,51.939,69.251,51.435c22.727-0.469,56.993-38.296,68.083-51.435c9.081-10.759,10.083-29-5.667-40.5l4-48    C267,102.549,237.117,80,200.667,80z" class="SkinColor" fill="#F7CCBA"  /></g><g id="Beard"><rect  x="157" y="221" width="86" height="10" class="BeardColor" fill="#5D2300"  /><path  d="M157,273.05V221h10v52.05c0,2.734-2.216,4.95-4.95,4.95h-0.1C159.216,278,157,275.784,157,273.05z" class="BeardColor" fill="#5D2300"  /><path  d="M233,273.05V221h10v52.05c0,2.734-2.216,4.95-4.95,4.95h-0.1C235.216,278,233,275.784,233,273.05z" class="BeardColor" fill="#5D2300"  /></g><g id="Nose"><ellipse  fill="#D97755" cx="200" cy="205.875" rx="11.492" ry="8.625" /><ellipse  fill="#D97755" cx="200" cy="195.375" rx="4.5" ry="10.125" /></g><g id="Eye"><ellipse  fill="#FFFFFF" cx="230" cy="173.875" rx="14" ry="7.875" /><ellipse  fill="#FFFFFF" cx="170" cy="173.875" rx="14" ry="7.875" /><circle  cx="230.167" cy="173.238" r="3.5" class="EyeColor" fill="#1860B5"  /><circle  cx="169.945" cy="173.238" r="3.5" class="EyeColor" fill="#1860B5"  /></g><g id="Eyebrow"><path  d="M212.392,149.083c0,0,31.5,3.083,29.083-7.583c0,0-0.917-4.667-7.417-5.334    C234.059,136.166,237.892,145.667,212.392,149.083z" /><path  d="M187.608,149.083c0,0-31.5,3.083-29.083-7.583c0,0,0.917-4.667,7.417-5.334    C165.941,136.166,162.108,145.667,187.608,149.083z" /></g><g id="Glass"><rect  x="188.508" y="165" width="22.984" height="5.033" /><polygon  fill="none" stroke="#000000" stroke-width="3" stroke-linecap="round" stroke-linejoin="round" stroke-miterlimit="10" points="254.115,159.5 211.115,159.5 211.115,200.083 254.115,198.924" /><polygon  fill="none" stroke="#000000" stroke-width="3" stroke-linecap="round" stroke-linejoin="round" stroke-miterlimit="10" points="145.885,159.5 188.885,159.5 188.885,200.083 145.885,198.924" /></g><g id="Hair"><path  fill="#845F41" d="M151.663,102.037c-7.479,5.741-1.512,21.741-10.711,30.872c-3.96,3.934-4.493,27.592-4.493,27.592      l-14.017-5.945c-1.274-5.966-9.109-51.555,15.311-74.163c14.013-16.273,38.548-27.517,56.187-27.181      c19.754,0.375,35.56,8.997,35.56,8.997c46.023,7.292,49.5,44.644,44.427,69.528c-0.761,11.743-0.376,20.806-0.376,20.806      l-14.692,7.959c0,0-0.534-23.657-4.494-27.59c-9.2-9.132-3.232-25.133-10.711-30.874c-10.055-7.719-30.987,2.086-45.995,2.086      C182.651,104.122,161.718,94.318,151.663,102.037z" /></g><g id="Top"><path  fill="#51C2F4" d="M297.05,263.331c8.108,2.711,24.88,25.16,37.536,24.513c10.238-0.524,3.952-11.812,3.952-11.812     C330.565,264.252,297.05,263.331,297.05,263.331z" /><path  fill="#51C2F4" d="M338.954,183.096c13.184-3.813,6.439-10.195,6.439-10.195c-7.359-5.435-14.996,10.845-14.996,10.845     S332.285,185.025,338.954,183.096z" /><path  fill="#51C2F4" d="M312.493,244.604c0,0,1.876,0.953,8.16,3.903c9.935,4.663,10.274-2.268,10.274-2.268     C328.93,237.311,312.493,244.604,312.493,244.604z" /><path  fill="#51C2F4" d="M346.411,262.271c-0.094-5.559-27.954-4.968-27.954-4.968s15.069,7.185,19.571,7.833     C348.28,266.613,346.411,262.271,346.411,262.271z" /><path  fill="#51C2F4" d="M294.535,255.848c16.09-1.001,10.103-9.243,10.103-9.243c-1.932-4.341-14.309-6.637-29.031-7.812     c32.272-1,63.394-3.648,66.558-12.773c2.385-6.878-11.102-7.749-30.511-5.766c22.001-4.551,38.593-9.734,37.948-15.68     c-1.681-15.503-61.079,4.023-101.683,19.266l0,0c0,0,0.432-0.517,1.072-1.332c34.711-13.391,82.115-30.759,74.579-40.594     c-10.932-14.27-50.888,11.457-78.823,32.33c-0.81,0.356-1.654,0.738-2.527,1.145c13.317-9.923,27.368-29.893,20.78-34.262     c-11.069-7.341-30.028,38.208-48.966,48.875c-5.197,3-8.925,5.551-9.435,5.997c0,0-8.463,6.724-2.179,7.326     c3.612,0.346,9.451-0.535,18.417,0.423c12.063,3.657,29.303,10.508,50.077,23.174c20.393,12.435,25.307,0.463,5.011-10.541     c0,0-3.836-2.557-11.359-5.676C276.794,253.844,288.351,256.232,294.535,255.848z" /><path  fill="#A2DDF2" d="M227.979,237.796c0,0,57.635,16.127,58.894,9.952C288.401,240.249,268.276,238.132,227.979,237.796z" /><path  fill="#A2DDF2" d="M242.891,224.873c0,0,46.902-35.773,54.334-27.862C304.657,204.922,251.24,222.719,242.891,224.873z" /><path  fill="#A2DDF2" d="M321.419,215.154c8.098,3.305,6.476,17.266-50.979,12.371C270.44,227.525,311.211,210.988,321.419,215.154    z" /><path  fill="none" stroke="#000000" stroke-width="4" stroke-linecap="round" stroke-linejoin="round" stroke-miterlimit="10" d="M186.562,226.911c0,0,25.104,8.149,7.504,30.169" /></g></svg>