<?xml version="1.0" encoding="iso-8859-1"?><svg id="MegFaceScold" version="1.1" xmlns="http://www.w3.org/2000/svg" xmlns:xlink="http://www.w3.org/1999/xlink" xml:space="preserve" x="0px" y="0px" viewbox="0 0 400 400" width="400" height="400" ><g id="Face"><g  /><g  /><circle  cx="133.333" cy="173.238" r="20" class="SkinColor" fill="#F7CCBA"  /><circle  cx="266.667" cy="173.238" r="20" class="SkinColor" fill="#F7CCBA"  /><circle  fill="#D97755" cx="266.667" cy="173.238" r="10.146" /><circle  fill="#D97755" cx="133.333" cy="173.238" r="10.146" /><path  d="M267,189v-50h0.18c-0.184-37-29.986-59-66.325-59h-1.521c-36.338,0-66.141,22-66.325,59H133v50l12,64.999    c0,0,37.999,26.001,45,26.001h20.189c7.001,0,44.811-26,44.811-26L267,189z" class="SkinColor" fill="#F7CCBA"  /></g><g id="Beard"><path  d="M214.04,280l-0.072-0.123c-0.072-0.263-0.21-0.492-0.407-0.692L199.674,266.5l-13.234,12.645    c-0.2,0.225-0.347,0.471-0.419,0.746L185.96,280h0.045c-0.018,0-0.045,0.19-0.045,0.294c0,7.754,6.286,14.04,14.04,14.04    s14.04-6.286,14.04-14.04c0-0.107-0.033-0.294-0.051-0.294H214.04z" class="BeardColor" fill="#5D2300"  /></g><g id="Nose"><path  fill="#D97755" d="M200,175.508c-1.524,2.12-8.023,16.568-7.442,23.818c0.418,5.214,4.393,6.361,7.442,6.674    c3.239-0.313,7.024-1.459,7.442-6.674C208.022,192.076,201.046,177.628,200,175.508z" /></g><g id="Eyebrow"><polygon  points="212.415,153.629 223.5,156.375 240.589,127.562" /><polygon  points="177.5,154.434 188.25,154.434 161.175,127.562" /></g><g id="Hair"><path  fill="#845F41" d="M281.925,96.463c0,0-10.925-22.188-36.925-15.333v-0.001c0,0-6.501,1.873-19.448-1.317    c-5.177-1.275-15.013-4.092-25.351-4.366c-10.338-0.274-20.388,3.09-25.586,4.366C161.622,83.003,155,81.129,155,81.129v0.001    c-26-6.855-36.981,15.333-36.981,15.333c-16.356,35.722,9.628,54.036,9.628,54.036c2.274,2.845,4.066,5.255,5.353,7.301V139    c0-36.451,29.883-59,66.333-59H200h0.667C237.117,80,267,102.55,267,139v18.915c1.291-2.07,3.06-4.517,5.368-7.416    C272.368,150.499,298.223,132.185,281.925,96.463z" /></g><g id="Top"><path  fill="#FFFFFF" d="M213.75,169.25l36.25-15C250,154.25,245,202.5,213.75,169.25z" /><path  fill="#FFFFFF" d="M190,169.25l-36.25-15C153.75,154.25,158.75,202.5,190,169.25z" /><path  fill="#51C2F4" d="M112.774,323.551c0,0,15.181,2.6,20.478-34.204C133.253,289.347,94.836,318.275,112.774,323.551z" /><path  fill="#51C2F4" d="M276.784,316.456c0,0,7.757-13.307-24.855-31.17C251.929,285.286,265.554,331.406,276.784,316.456z" /><path  fill="#51C2F4" d="M237.017,258.14c0,0,16.916,1.782,20.62,13.052c0,0,3.331,11.304-8.758,5.361   C248.879,276.553,241.058,271.085,237.017,258.14z" /><path  fill="#51C2F4" d="M140.347,245.419c0,0-16.333-1.715-21.99,4.832c0,0-6.623,7.355-0.541,11.803   c10.404,7.609,13.89-4.888,37.907-14.167C156.69,245.549,140.347,245.419,140.347,245.419z" /><path  fill="#51C2F4" d="M155.037,289.259c-0.508-10.93,5.234-28.928,5.234-28.928c-16.891,15.612-18.524,32.011-18.524,32.011   C140.647,309.389,155.545,300.189,155.037,289.259z" /><path  fill="#51C2F4" d="M257.51,254.388c0,0,17.912-4.721,29.157,1.584c0,0,15,10.362,0,11.828   C276.369,268.807,264.389,255.57,257.51,254.388z" /><path  fill="#51C2F4" d="M266.333,270.334c0,0,14.352,2.974,37.531,16.345c0,0,21.552,13.959,5.862,16.004   C293.463,304.801,278.36,274.213,266.333,270.334z" /><path  fill="#51C2F4" d="M141.735,268.231c0,0-31.595-1.94-46.072,18.819c0,0-9.331,17.284,5.334,8.774   C107.442,292.084,130.915,271.14,141.735,268.231z" /><circle  fill="#D30010" cx="232.333" cy="167.333" r="4.667" /><circle  fill="#D30010" cx="172.333" cy="168.333" r="4.667" /><circle  fill="#51C2F4" cx="281.664" cy="245.167" r="5.167" /><circle  fill="#51C2F4" cx="235.664" cy="289.167" r="4.455" /><circle  fill="#51C2F4" cx="101.62" cy="263.123" r="4.123" /><path  d="M178.666,238.834c0,0-9.292,4.667-4.667,9.167s48.333,4,51.667,2.333c0,0,9.833-3.833,6.833-8.333   S222.166,223.834,178.666,238.834z" /><path  fill="#822006" d="M185.166,245.167c0,0,1.577-3.167,8.459-4.167c6.882-1,32.404,1,30.683,4.167   C222.589,248.334,189.038,244.834,185.166,245.167z" /><polygon  fill="#D97755" points="202.25,145 204,154.434 235.25,121.275 207.75,145" /><polygon  fill="#D97755" points="190,156.375 194.125,147.875 190,148.625 171.386,119.875" /><polygon  fill="#D97755" points="199,149 199,158 194.125,156" /></g></svg>