<?xml version="1.0" encoding="iso-8859-1"?><svg id="MegFaceDrooling" version="1.1" xmlns="http://www.w3.org/2000/svg" xmlns:xlink="http://www.w3.org/1999/xlink" xml:space="preserve" x="0px" y="0px" viewbox="0 0 400 400" width="400" height="400" ><g id="Face"><g  /><g  /><circle  cx="133.333" cy="173.238" r="20" class="SkinColor" fill="#F7CCBA"  /><circle  cx="266.667" cy="173.238" r="20" class="SkinColor" fill="#F7CCBA"  /><circle  fill="#D97755" cx="266.667" cy="173.238" r="10.146" /><circle  fill="#D97755" cx="133.333" cy="173.238" r="10.146" /><path  d="M200.667,80h-1.333C162.883,80,133,102.549,133,139v58c4,22.105,17.193,45.733,27.333,55.5    c24.917,24,36.479,22.833,39.667,22.833c3.63,0,17.083,0.265,39.667-22.833C249.509,242.433,263,219.105,267,197v-58    C267,102.549,237.117,80,200.667,80z" class="SkinColor" fill="#F7CCBA"  /></g><g id="Beard"><path  d="M246.378,218.938h-92.756c-3.427-25-14.622-23.75-20.622-25.275v20.275c0,36.451,23.75,66,67,66     s67-29.549,67-66v-20.275C261,195.188,249.799,193.938,246.378,218.938z M245.37,245.317c0,0-14.203,22.926-45.65,23.844     c-31.496-0.918-45.053-23.74-45.053-23.74c0.061-4.879-0.117-16.484-0.457-20.484h91.581     C245.452,228.938,245.309,240.438,245.37,245.317z" class="BeardColor" fill="#5D2300"  /></g><g id="Nose"><path  fill="#D97755" d="M209.45,199.181c0,0-8.677-27.241-9.45-29.514c-1.022,2.063-10.857,29.741-10.857,29.741    c-3.107,0.223-17.628,14.594,10.221,15.092C223.438,214.931,216.305,199.397,209.45,199.181z" /></g><g id="Hair"><path  fill="#845F41" d="M282.667,125.667c0.427-40.667-19-55.375-43.333-60.042c-24.333-4.667-48.856-0.774-68.083,5.708    c0,0-12.583-14.333-30.583,1.333c-15.842,13.789-26,51.667-14.667,80.571l13.333,20c0,0-1.333-47.905,9-47.571    c0,0-3.195-15.492,6.568-20.981c4.084-0.965,9.045-1.031,15.099-0.019c2.714,8.402,29.695,13.241,39,13.241    c9.269,0,35.292,1.067,47.652,13.441l1.868,36.984L267,155.704v-0.022l6-0.85C273,154.833,282.439,147.344,282.667,125.667z" /><g  /></g><g id="Top"><path  fill="#AF2409" d="M169.927,145.034c-1.976-4.077-8.11-5.495-12.444-4.618c-8.547,1.73-14.137,9.767-12.347,18.612   c3.356,16.585,20.018,17.818,30.59,26.037c0.099,0.095,0.207,0.166,0.326,0.244c1.3,0.854,3.047,0.501,3.913-0.792   c0.081-0.118,0.128-0.222,0.184-0.348c6.551-11.707,21.43-19.229,18.061-35.881c-1.79-8.846-10.065-14.077-18.612-12.348   C175.262,136.818,170.162,140.509,169.927,145.034z M182.329,145.746c-1.078,0.023-2.046-0.726-2.265-1.809   c-0.246-1.216,0.541-2.446,1.757-2.692c1.758-0.356,4.145,0.462,6.294,1.869c2.192,1.444,4.019,3.595,4.341,5.186   c0.246,1.216-0.548,2.413-1.764,2.659c-1.084,0.219-2.149-0.382-2.548-1.384C187.142,147.466,184.829,145.816,182.329,145.746z" /><path  fill="#AF2409" d="M241.877,146.872c-3.69-0.63-8.843,0.729-10.409,4.23c-0.316-3.822-4.727-6.813-8.417-7.443   c-7.277-1.242-14.142,3.399-15.427,10.929c-2.41,14.119,10.371,20.176,16.211,29.89c0.049,0.105,0.112,0.195,0.183,0.292   c0.766,1.071,2.254,1.325,3.331,0.569c0.1-0.069,0.169-0.136,0.251-0.218c8.744-7.245,22.787-8.646,25.207-22.822   C254.092,154.768,249.154,148.113,241.877,146.872z M248.26,160.554c-0.177,1.035-1.169,1.738-2.204,1.561   c-0.923-0.157-1.58-0.957-1.59-1.87c-0.148-1.972-1.47-3.98-3.423-4.798c-0.858-0.311-1.394-1.197-1.237-2.119   c0.177-1.035,1.174-1.766,2.208-1.59c1.497,0.255,3.132,1.629,4.4,3.396C247.705,156.943,248.492,159.199,248.26,160.554z" /><path  d="M174.854,233.294c2.337,14.167,12.706,24.847,25.146,24.847s22.809-10.68,25.146-24.847H174.854z" /><path  fill="#FFFFFF" d="M179.335,235c0.622,1.533,4.15,4.095,20.766,4.156c0,0,15.456,0.148,19.313-4.156H179.335z" /><path  fill="#822006" d="M212.373,254.302c-3.114-2.137-7.441-3.469-12.238-3.469c-4.865,0-9.248,1.37-12.37,3.56   c3.637,2.386,7.803,3.747,12.235,3.747C204.488,258.141,208.704,256.745,212.373,254.302z" /><path  fill="#51C2F4" d="M217.197,250.156c0,0,1.469-1.156,1.553,1.76c0.083,2.917-2.917,6.083-1.417,8c1.5,1.917,4.5,2.083,5.917,0   c1.417-2.083-2.083-6-2.167-8.917c0,0-1.161-4.082,0.083-6.333C221.167,244.667,216.708,244.501,217.197,250.156z" /><path  fill="#51C2F4" d="M213.156,263.5c-0.29-1.641-0.88-5.484,0.66-10.227c0,0-4.266-1.48-4.416,2.717   c0,0,2.712-0.895,1.795,7.857c-0.195,1.215-0.758,1.494-0.758,2.09c0,1.07,0.867,1.938,1.938,1.938s1.938-0.867,1.938-1.938   C214.313,265.131,213.25,264.313,213.156,263.5z" /></g></svg>