<?xml version="1.0" encoding="iso-8859-1"?><svg id="MegFaceStrive" version="1.1" xmlns="http://www.w3.org/2000/svg" xmlns:xlink="http://www.w3.org/1999/xlink" xml:space="preserve" x="0px" y="0px" viewbox="0 0 400 400" width="400" height="400" ><g id="Bottom"><path  fill="#D32929" d="M242.333,129c0,0,28,14.908,40.667,6.574s33.167-39.074,81-17.666l-18,13.814    c0,0-13.29,3.835-21.197,1.348c-8.218-2.585-19.264-2.697-30.136,7.597C294.667,140.667,267,175,242.333,129z" /><path  fill="#910505" d="M257.802,140.245c0,0,42.364-28.841,69.364,20.255c0,0,15.063,33.083,40.833,14.167l19.667,20.971    c0,0-62.667,11.213-70-27.546c0,0-9.667-54.092-58.56-17.842L257.802,140.245z" /><path  fill="#910505" d="M325.706,133.008c0,0,34.628-1.008,38.628-25.008H389C389,108,370.745,144.349,325.706,133.008z" /></g><g id="Face"><g  /><g  /><circle  cx="133.333" cy="173.238" r="20" class="SkinColor" fill="#F7CCBA"  /><circle  cx="266.667" cy="173.238" r="20" class="SkinColor" fill="#F7CCBA"  /><circle  fill="#D97755" cx="266.667" cy="173.238" r="10.146" /><circle  fill="#D97755" cx="133.333" cy="173.238" r="10.146" /><path  d="M200.667,80H200h-0.667C162.883,80,133,102.549,133,139l4,48c-15.5,11.5-14.748,29.741-5.667,40.5    c11.91,14.111,44.842,51.939,69.251,51.435c22.727-0.469,56.993-38.296,68.083-51.435c9.081-10.759,10.083-29-5.667-40.5l4-48    C267,102.549,237.117,80,200.667,80z" class="SkinColor" fill="#F7CCBA"  /></g><g id="Beard"><rect  x="157" y="221" width="86" height="10" class="BeardColor" fill="#5D2300"  /><path  d="M157,273.05V221h10v52.05c0,2.734-2.216,4.95-4.95,4.95h-0.1C159.216,278,157,275.784,157,273.05z" class="BeardColor" fill="#5D2300"  /><path  d="M233,273.05V221h10v52.05c0,2.734-2.216,4.95-4.95,4.95h-0.1C235.216,278,233,275.784,233,273.05z" class="BeardColor" fill="#5D2300"  /></g><g id="Nose"><ellipse  fill="#D97755" cx="200" cy="205.875" rx="11.492" ry="8.625" /><ellipse  fill="#D97755" cx="200" cy="195.375" rx="4.5" ry="10.125" /></g><g id="Eye"><ellipse  fill="#FFFFFF" cx="230" cy="175" rx="14" ry="5" /><circle  cx="230" cy="175" r="4.5" class="EyeColor" fill="#1860B5"  /><ellipse  fill="#FFFFFF" cx="170" cy="175" rx="14" ry="5" /><circle  cx="170" cy="175" r="4.5" class="EyeColor" fill="#1860B5"  /></g><g id="Eyebrow"><path  d="M212.392,149.083c0,0,31.5,3.083,29.083-7.583c0,0-0.917-4.667-7.417-5.334    C234.059,136.166,237.892,145.666,212.392,149.083z" /><path  d="M187.608,149.083c0,0-31.5,3.083-29.083-7.583c0,0,0.917-4.667,7.417-5.334    C165.941,136.166,162.108,145.666,187.608,149.083z" /></g><g id="Glass"><rect  x="188.508" y="165" width="22.984" height="5.033" /><polygon  fill="none" stroke="#000000" stroke-width="3" stroke-linecap="round" stroke-linejoin="round" stroke-miterlimit="10" points="254.115,159.5 211.115,159.5 211.115,200.083 254.115,198.924" /><polygon  fill="none" stroke="#000000" stroke-width="3" stroke-linecap="round" stroke-linejoin="round" stroke-miterlimit="10" points="145.885,159.5 188.885,159.5 188.885,200.083 145.885,198.924" /></g><g id="Hair"><path  fill="#845F41" d="M151.663,102.037c-7.479,5.741-1.512,21.741-10.711,30.872c-3.96,3.934-4.493,27.592-4.493,27.592      l-14.017-5.945c-1.274-5.966-9.109-51.555,15.311-74.163c14.013-16.273,38.548-27.517,56.187-27.181      c19.754,0.375,35.56,8.997,35.56,8.997c46.023,7.292,49.5,44.644,44.427,69.528c-0.761,11.743-0.376,20.806-0.376,20.806      l-14.692,7.959c0,0-0.534-23.657-4.494-27.59c-9.2-9.132-3.232-25.133-10.711-30.874c-10.055-7.719-30.987,2.086-45.995,2.086      C182.651,104.122,161.718,94.318,151.663,102.037z" /></g><g id="Top"><path  fill="#910505" d="M130,136.667c0,0,76.667,20.667,140.667,0c0,0,0-26.667-10.667-31.333c0,0-108.333,9-118.667,0   C141.333,105.333,125,117.908,130,136.667z" /><path  d="M177.718,236.465c0,0,14.456,11.755,47.231-6.233c0,0-0.286,20.485,2.938,21.152   C227.888,251.383,192.448,271.13,177.718,236.465z" /><path  fill="#FFFFFF" d="M210.381,246.502c9.952-3.175,10.579-4.757,11.662-5.639l0.128-5.772c0,0-25.762,14.75-37.716,7.369    c0,0,0.508,2.095,3.654,4.91C190.333,249.191,196.55,250.775,210.381,246.502z" /><path  fill="#FFFFFF" d="M221.955,245.169c-19.231,8.38-27.042,6.336-27.81,6.369c5.962,2.8,15.134,3.975,28.77-1.139    L221.955,245.169z" /></g></svg>