<?xml version="1.0" encoding="iso-8859-1"?><svg id="MegFaceHot Kiss" version="1.1" xmlns="http://www.w3.org/2000/svg" xmlns:xlink="http://www.w3.org/1999/xlink" xml:space="preserve" x="0px" y="0px" viewbox="0 0 400 400" width="400" height="400" ><g id="Face"><g  /><g  /><circle  cx="133.333" cy="173.238" r="20" class="SkinColor" fill="#F7CCBA"  /><circle  cx="266.667" cy="173.238" r="20" class="SkinColor" fill="#F7CCBA"  /><circle  fill="#D97755" cx="266.667" cy="173.238" r="10.146" /><circle  fill="#D97755" cx="133.333" cy="173.238" r="10.146" /><path  d="M200.667,80H200h-0.667C162.883,80,133,102.549,133,139l4,48c-15.5,11.5-14.748,29.741-5.667,40.5    c11.91,14.111,44.842,51.939,69.251,51.435c22.727-0.469,56.993-38.296,68.083-51.435c9.081-10.759,10.083-29-5.667-40.5l4-48    C267,102.549,237.117,80,200.667,80z" class="SkinColor" fill="#F7CCBA"  /></g><g id="Beard"><rect  x="157" y="221" width="86" height="10" class="BeardColor" fill="#5D2300"  /><path  d="M157,273.05V221h10v52.05c0,2.734-2.216,4.95-4.95,4.95h-0.1C159.216,278,157,275.784,157,273.05z" class="BeardColor" fill="#5D2300"  /><path  d="M233,273.05V221h10v52.05c0,2.734-2.216,4.95-4.95,4.95h-0.1C235.216,278,233,275.784,233,273.05z" class="BeardColor" fill="#5D2300"  /></g><g id="Eyebrow"><path  d="M212.392,151.084c0,0,31.5,3.083,29.083-7.583c0,0-0.917-4.666-7.417-5.333    C234.059,138.167,237.892,147.667,212.392,151.084z" /><path  d="M187.608,151.084c0,0-31.5,3.083-29.083-7.583c0,0,0.917-4.666,7.417-5.333    C165.941,138.167,162.108,147.667,187.608,151.084z" /></g><g id="Hair"><path  fill="#845F41" d="M151.663,102.037c-7.479,5.741-1.512,21.741-10.711,30.872c-3.96,3.934-4.493,27.592-4.493,27.592      l-14.017-5.945c-1.274-5.966-9.109-51.555,15.311-74.163c14.013-16.273,38.548-27.517,56.187-27.181      c19.754,0.375,35.56,8.997,35.56,8.997c46.023,7.292,49.5,44.644,44.427,69.528c-0.761,11.743-0.376,20.806-0.376,20.806      l-14.692,7.959c0,0-0.534-23.657-4.494-27.59c-9.2-9.132-3.232-25.133-10.711-30.874c-10.055-7.719-30.987,2.086-45.995,2.086      C182.651,104.122,161.718,94.318,151.663,102.037z" /></g><g id="Top"><path  d="M206.858,218.32c-2.967,0-5.258,1.738-6.955,3.885c-1.689-2.136-3.819-3.697-6.519-3.697   c-5.186,0-7.646,5.734-8.172,7.141c-2.327,5.556-10.513,6.601-11.235,7.179c-0.947,0.759-1.415,1.924-1.415,3.138   c0,4.669,3.605,7.518,7.96,8.687c-1.898,15.908,19.576,15.924,19.773,15.908c8.607-0.545,20.017-3.079,20.017-18.601   c0-1.18,7.563-4.044,5.859-8.881c-0.475-1.742-2.058-3.08-3.858-3.08c-0.024,0-0.048,0-0.072,0   C216.875,229.625,212.5,218.32,206.858,218.32L206.858,218.32z" class="SkinColor" fill="#F7CCBA"  /><path  fill="none" stroke="#000000" stroke-width="2" stroke-linecap="round" stroke-linejoin="round" stroke-miterlimit="10" d="M189.895,261.333c0,0,10.23-13.5,21.105,0" /><path  fill="none" stroke="#000000" stroke-width="4" stroke-linecap="round" stroke-linejoin="round" stroke-miterlimit="10" d="M216.875,171.25c0,0,8.946,7.125,28.25-2.375" /><path  fill="none" stroke="#000000" stroke-width="2" stroke-linecap="round" stroke-linejoin="round" stroke-miterlimit="10" d="M219.75,165.25c0,0,7.125,7.125,22.5-2.375" /><line  fill="none" stroke="#000000" stroke-width="2" stroke-linecap="round" stroke-linejoin="round" stroke-miterlimit="10" x1="221.375" y1="180.688" x2="223.25" y2="173.815" /><line  fill="none" stroke="#000000" stroke-width="2" stroke-linecap="round" stroke-linejoin="round" stroke-miterlimit="10" x1="232.125" y1="182.188" x2="231" y2="173.815" /><line  fill="none" stroke="#000000" stroke-width="2" stroke-linecap="round" stroke-linejoin="round" stroke-miterlimit="10" x1="239.063" y1="171.345" x2="242.875" y2="177.251" /><path  fill="none" stroke="#000000" stroke-width="4" stroke-linecap="round" stroke-linejoin="round" stroke-miterlimit="10" d="M183.125,171.25c0,0-8.946,7.125-28.25-2.375" /><path  fill="none" stroke="#000000" stroke-width="2" stroke-linecap="round" stroke-linejoin="round" stroke-miterlimit="10" d="M180.25,165.25c0,0-7.125,7.125-22.5-2.375" /><line  fill="none" stroke="#000000" stroke-width="2" stroke-linecap="round" stroke-linejoin="round" stroke-miterlimit="10" x1="178.625" y1="180.688" x2="176.75" y2="173.815" /><line  fill="none" stroke="#000000" stroke-width="2" stroke-linecap="round" stroke-linejoin="round" stroke-miterlimit="10" x1="167.875" y1="182.188" x2="169" y2="173.815" /><line  fill="none" stroke="#000000" stroke-width="2" stroke-linecap="round" stroke-linejoin="round" stroke-miterlimit="10" x1="160.938" y1="171.345" x2="157.125" y2="177.251" /><path  fill="#AF1212" d="M176.563,235.967c0,0,8.104,1.452,12.375-8.857c0,0,4.5-12.435,11.063,3.578c0,0,4.167-12.965,10.167-6.62   c0,0,4.167,12.794,12.146,11.265c0,0-6,2.333-6,6.627c0,11.033-6.313,13.986-16.313,14.612c0,0-16.25,1.551-15.563-15.327   C184.438,241.245,176.563,240.798,176.563,235.967z" /><path  fill="#FFFFFF" d="M196.958,240.211c0,0,2.621-5.163,6.583,0C203.542,240.211,200.023,245.944,196.958,240.211z" /><line  fill="none" stroke="#FF1E00" stroke-width="5" stroke-linecap="round" stroke-linejoin="round" stroke-miterlimit="10" x1="174.895" y1="196" x2="166" y2="212.75" /><line  fill="none" stroke="#FF1E00" stroke-width="5" stroke-linecap="round" stroke-linejoin="round" stroke-miterlimit="10" x1="189.895" y1="196" x2="181" y2="212.75" /><line  fill="none" stroke="#FF1E00" stroke-width="5" stroke-linecap="round" stroke-linejoin="round" stroke-miterlimit="10" x1="204.895" y1="196" x2="196" y2="212.75" /><line  fill="none" stroke="#FF1E00" stroke-width="5" stroke-linecap="round" stroke-linejoin="round" stroke-miterlimit="10" x1="219.895" y1="196" x2="211" y2="212.75" /><line  fill="none" stroke="#FF1E00" stroke-width="5" stroke-linecap="round" stroke-linejoin="round" stroke-miterlimit="10" x1="234.895" y1="196" x2="226" y2="212.75" /><circle  fill="#F47878" cx="209.75" cy="247" r="3.645" /></g></svg>