<?xml version="1.0" encoding="iso-8859-1"?><svg id="MegFaceHypnotized" version="1.1" xmlns="http://www.w3.org/2000/svg" xmlns:xlink="http://www.w3.org/1999/xlink" xml:space="preserve" x="0px" y="0px" viewbox="0 0 400 400" width="400" height="400" ><g id="Face"><g  /><g  /><circle  cx="133.333" cy="173.238" r="20" class="SkinColor" fill="#F7CCBA"  /><circle  cx="266.667" cy="173.238" r="20" class="SkinColor" fill="#F7CCBA"  /><circle  fill="#D97755" cx="266.667" cy="173.238" r="10.146" /><circle  fill="#D97755" cx="133.333" cy="173.238" r="10.146" /><path  d="M267,189v-50h0.18c-0.184-37-29.986-59-66.325-59h-1.521c-36.338,0-66.141,22-66.325,59H133v50l12,64.999    c0,0,37.999,26.001,45,26.001h20.189c7.001,0,44.811-26,44.811-26L267,189z" class="SkinColor" fill="#F7CCBA"  /></g><g id="Beard"><path  d="M214.04,280l-0.072-0.123c-0.072-0.263-0.21-0.492-0.407-0.692L199.674,266.5l-13.234,12.645    c-0.2,0.225-0.347,0.471-0.419,0.746L185.96,280h0.045c-0.018,0-0.045,0.19-0.045,0.294c0,7.754,6.286,14.04,14.04,14.04    s14.04-6.286,14.04-14.04c0-0.107-0.033-0.294-0.051-0.294H214.04z" class="BeardColor" fill="#5D2300"  /></g><g id="Nose"><path  fill="#D97755" d="M200,175.508c-1.524,2.12-8.023,16.568-7.442,23.818c0.418,5.214,4.393,6.361,7.442,6.674    c3.239-0.313,7.024-1.459,7.442-6.674C208.022,192.076,201.046,177.628,200,175.508z" /></g><g id="Hair"><path  fill="#845F41" d="M281.925,96.463c0,0-10.925-22.188-36.925-15.333v-0.001c0,0-6.501,1.873-19.448-1.317    c-5.177-1.275-15.013-4.092-25.351-4.366c-10.338-0.274-20.388,3.09-25.586,4.366C161.622,83.003,155,81.129,155,81.129v0.001    c-26-6.855-36.981,15.333-36.981,15.333c-16.356,35.722,9.628,54.036,9.628,54.036c2.274,2.845,4.066,5.255,5.353,7.301V139    c0-36.451,29.883-59,66.333-59H200h0.667C237.117,80,267,102.55,267,139v18.915c1.291-2.07,3.06-4.517,5.368-7.416    C272.368,150.499,298.223,132.185,281.925,96.463z" /></g><g id="Top"><path  fill="none" stroke="#000000" stroke-width="4" stroke-linecap="round" stroke-linejoin="round" stroke-miterlimit="10" d="M175.873,163.176c0,0,7.212,1.967,5.682-5.791c0,0-2.404-7.102-9.398-2.404c-6.542,4.395-6.921,15.978,5.245,17.702   c13.113,1.858,14.096-14.929,10.6-20.652c-2.222-3.637-14.861-15.298-25.678-0.874c-13.147,17.53,2.076,28.629,6.337,29.831" /><path  fill="none" stroke="#000000" stroke-width="4" stroke-linecap="round" stroke-linejoin="round" stroke-miterlimit="10" d="M223.592,159.783c0,0-5.24-5.331-7.826,2.141c0,0-1.5,7.347,6.908,6.81c7.865-0.502,14.027-10.318,4.384-17.935   c-10.393-8.21-19.697,5.798-19.559,12.503c0.088,4.261,5.133,20.7,21.744,13.688c20.187-8.523,12.626-25.779,9.549-28.963" /><path  fill="none" stroke="#000000" stroke-width="4" stroke-linecap="round" stroke-miterlimit="10" d="M167.546,236.541   c0,0,3.471,12.247,5.093,8.431c1.622-3.816,7.105-11.232,9.465-7.034c2.36,4.198,8.542,9.123,13.176,2.709   c4.634-6.415,10.922-6.514,13.798-2.457c2.876,4.057,5.726,10.995,8.664,5.237c2.939-5.758,9.85-9.737,11.329-4.205   c1.478,5.532,2.737,0.263,2.737,0.263" /><path  fill="#FFD110" stroke="#680505" stroke-width="4" stroke-linecap="round" stroke-linejoin="round" d="M285.813,122.487    c0,0,12.938-3.987,5.188-12.987c-8.964-10.41-168.5-37.25-182.75,3c0,0-2.583,9.5,14.083,12.5c0,0-40.333,3.25-16.833-24.25    c0,0,25.5-23.75,103.5-15.75c0,0,98,7.316,92.5,29.908C301.5,114.908,300.338,125.653,285.813,122.487z" /><polygon  fill="#FFD110" stroke="#680505" stroke-width="4" points="120,64.667 121,84.5 106,95.881 123.188,98.758 128,121.25     138,98 157.084,101.407 143.479,86.192 153.333,69.667 135.583,79.331" /><polygon  fill="#FFD110" stroke="#680505" stroke-width="4" points="72.476,120.899 70.907,132.556 63.685,138.036 71.96,139.421     79.939,150.25 80.711,136.16 91.262,130.756 78.145,130.026" /><polygon  fill="#FFD110" stroke="#680505" stroke-width="4" points="327.07,74.545 317.845,81.842 308.843,80.769 313.835,87.512     312.055,100.845 322.396,91.244 333.74,94.684 324.81,85.049" /><circle  fill="#FFD110" stroke="#680505" stroke-width="4" stroke-linecap="round" stroke-linejoin="round" cx="274.25" cy="99.75" r="11.417" /></g></svg>