<?xml version="1.0" encoding="iso-8859-1"?><svg id="MegFaceSkull" version="1.1" xmlns="http://www.w3.org/2000/svg" xmlns:xlink="http://www.w3.org/1999/xlink" xml:space="preserve" x="0px" y="0px" viewbox="0 0 400 400" width="400" height="400" ><g id="Bottom"><rect  fill="#0E4F77" width="400" height="400" /><polyline  fill="none" stroke="#F4E419" stroke-width="6" stroke-miterlimit="10" points="339,0 276.813,48 297,81 12,395" /><polyline  fill="none" stroke="#F4E419" stroke-width="6" stroke-miterlimit="10" points="100.667,391.333 121.333,348    100.667,297.311" /><polyline  fill="none" stroke="#F4E419" stroke-width="6" stroke-linecap="square" stroke-linejoin="bevel" stroke-miterlimit="10" points="311.333,22 318.667,63.667 360.667,115 365.333,175 382,221.006" /><polyline  fill="none" stroke="#F4E419" stroke-width="6" stroke-linecap="square" stroke-linejoin="bevel" stroke-miterlimit="10" points="363.218,147.802 325.333,242.694 363.218,323.333" /><polyline  fill="none" stroke="#F4E419" stroke-width="6" stroke-linecap="square" stroke-linejoin="bevel" stroke-miterlimit="10" points="130,265 83,265 24,280" /><line  fill="none" stroke="#F4E419" stroke-width="6" stroke-linecap="square" stroke-linejoin="bevel" stroke-miterlimit="10" x1="73" y1="267.221" x2="63" y2="300.333" /></g><g id="Face"><g  /><g  /><path  fill="#F4E419" d="M273.833,147.79c0,0-4.313-66.071-63.188-72.738c-118.047-13.367-3.062,199.5-3.062,199.5     c41.501-1.25,58.133-43.559,59.885-53.546C269.22,211.019,274,187.79,274,187.79c11,0,19.917-8.954,19.917-20     C293.917,156.745,284.833,147.79,273.833,147.79z" /><path  fill="#FFFFFF" d="M191.333,79h-1.333C153.548,79,124,108.101,124,144.552v7.255c-11,0.18-19.667,9.05-19.667,19.983     c0,10.933,8.667,19.803,19.667,19.983c0,0,24.25,93.656,76,88.213C251.75,274.544,227.783,79,191.333,79z" /><circle  cx="133.333" cy="173.238" r="20" /><circle  cx="266.667" cy="173.238" r="20" /><path  d="M200.667,80H200h-0.667C162.883,80,133,102.549,133,139v58c4,22.105,15.252,44.741,24.333,55.5     c23,27.25,39.479,27.487,42.667,27.487c3.63,0,19.667-0.237,42.667-27.487C251.748,241.741,263,219.105,267,197v-58     C267,102.549,237.117,80,200.667,80z" /></g><g id="Hair"><path  fill="#F4E419" d="M291.669,116.666c0.427-40.667-19-55.375-43.333-60.042c-24.333-4.667-48.856-0.774-68.083,5.708    c0,0-11.705-9.052-29.705,6.614c-15.842,13.789,114.454-26.281,115.107,53.402l-0.506,11.629l16.354,11.855    C281.502,145.832,291.441,138.343,291.669,116.666z" /><path  fill="#FFFFFF" d="M266.669,134.666c0.427-40.667-19.786-67.75-43.333-60.042c-33.729,11.042-80.667-8.625-98.667,7.042    c-15.842,13.789-26,51.667-14.667,80.571c0,0,16.986-3.947,15.345-18.335c-4.17-36.57,124.487-109.735,138.32-7.569    C264.112,139.62,266.441,156.343,266.669,134.666z" /><path  d="M282.669,125.666c0.427-40.667-19-55.375-43.333-60.042c-24.333-4.667-48.856-0.774-68.083,5.708    c0,0-12.583-14.333-30.583,1.333c-15.843,13.789-26,51.667-14.667,80.571l13.333,20c0,0-1.333-47.905,9-47.571    c0,0,88.5-43.667,108.319,5.683l1.367,36.984L266,155.704v-0.022l6.501-0.85C272.501,154.832,282.441,147.343,282.669,125.666z" /></g><g id="Top"><path  fill="#FFFFFF" d="M199,97.666c0,0,53.333-12.333,56.346,43c0,0,9.654,50-15.596,68.333c-8.301,6.027-64.5,10.586-82.25-3.5   c0,0-15.966-13.25-14.92-57.698C142.58,147.802,140,97.407,199,97.666z" /><polygon  fill="#FFFFFF" points="168.125,209 167,218.003 176.443,219.788 179.083,209.5" /><path  d="M191.431,189.408c0,0-4.321,8.691-1.785,11.98c2.536,3.289,8.079,3.289,8.173-3.523   C197.913,191.053,195.001,185.18,191.431,189.408z" /><path  d="M205.431,189.408c0,0-4.321,8.691-1.785,11.98c2.536,3.289,8.079,3.289,8.173-3.523   C211.913,191.053,209.001,185.18,205.431,189.408z" /><path  fill="#FFFFFF" d="M191.875,256.333l-1.5-16.333c0,0,23.125-7.875,40.875,0.375L229.333,252" /><line  fill="none" stroke="#000000" stroke-width="3" stroke-linecap="round" stroke-miterlimit="10" x1="203.5" y1="236" x2="203.5" y2="250" /><line  fill="none" stroke="#000000" stroke-width="3" stroke-linecap="round" stroke-miterlimit="10" x1="216.5" y1="236" x2="216.5" y2="248" /><path  fill="none" stroke="#FFFFFF" stroke-width="3" stroke-linecap="round" stroke-miterlimit="10" d="M195.5,254" /><path  fill="none" stroke="#FFFFFF" stroke-width="3" stroke-linecap="round" stroke-miterlimit="10" d="M195.5,240" /><polyline  fill="#FFFFFF" points="171,257 171,244 179.09,242.667 183.167,257 171,257" /><path  d="M214.833,128.167c0,0-7.331,8-7.499,13c-0.168,5,1.832,20.833,7.499,26.667C220.5,173.667,236.667,179.5,240,175.5   s6.833-31.167,1.333-36.667S222.167,120.833,214.833,128.167z" /><path  fill="#51C2F4" d="M167.937,173.157c0,0-8.672,18.73-4.076,22.986c4.596,4.256,10.622-2.343,9.758-19.12    C173.619,177.023,175.62,159.258,167.937,173.157" /><path  d="M191.419,142.921c0,0-2.11,20.45-11.686,25.968c-9.576,5.518-21.586,0.811-24.345-5.518    c-2.759-6.33-1.623-19.314,20.044-30.026C175.432,133.345,192.23,126.853,191.419,142.921z" /><path  fill="#FFFFFF" d="M212,214v14.561c-19,3.606-33.5-3.561-33.5-3.561l2.875-15" /><polygon  fill="#FFFFFF" points="235.625,209 236.833,225.006 224,227.006 223.333,212" /><line  fill="none" stroke="#000000" stroke-width="3" stroke-linecap="round" stroke-miterlimit="10" x1="201.976" y1="217.25" x2="200.5" y2="230.875" /><line  fill="none" stroke="#000000" stroke-width="3" stroke-linecap="round" stroke-miterlimit="10" x1="189.604" y1="216.375" x2="186.375" y2="229.575" /><path  fill="#FFFFFF" d="M169.5,256.333c0,0,61.25-8.833,63.5-2.333S163.712,269.229,169.5,256.333z" /></g></svg>