<?xml version="1.0" encoding="iso-8859-1"?><svg id="MegFaceSkull" version="1.1" xmlns="http://www.w3.org/2000/svg" xmlns:xlink="http://www.w3.org/1999/xlink" xml:space="preserve" x="0px" y="0px" viewbox="0 0 400 400" width="400" height="400" ><g id="Bottom"><rect  fill="#0E4F77" width="400" height="400" /><polyline  fill="none" stroke="#F4E419" stroke-width="6" stroke-miterlimit="10" points="339,0 276.813,48 297,81 12,395" /><polyline  fill="none" stroke="#F4E419" stroke-width="6" stroke-miterlimit="10" points="100.667,391.333 121.333,348    100.667,297.311" /><polyline  fill="none" stroke="#F4E419" stroke-width="6" stroke-linecap="square" stroke-linejoin="bevel" stroke-miterlimit="10" points="311.333,22 318.667,63.667 360.667,115 365.333,175 382,221.006" /><polyline  fill="none" stroke="#F4E419" stroke-width="6" stroke-linecap="square" stroke-linejoin="bevel" stroke-miterlimit="10" points="363.218,147.802 325.333,242.694 363.218,323.333" /><polyline  fill="none" stroke="#F4E419" stroke-width="6" stroke-linecap="square" stroke-linejoin="bevel" stroke-miterlimit="10" points="130,265 83,265 24,280" /><line  fill="none" stroke="#F4E419" stroke-width="6" stroke-linecap="square" stroke-linejoin="bevel" stroke-miterlimit="10" x1="73" y1="267.221" x2="63" y2="300.333" /></g><g id="Face"><g  /><g  /><path  fill="#F4E419" d="M273.833,147.79c0,0,8.811-62.79-61.83-68.79c-118.376-10.054-4.42,195.552-4.42,195.552    c15.469,0,55.917-18.219,55.917-18.219L274,187.79c11,0,19.916-8.954,19.916-20C293.916,156.745,284.833,147.79,273.833,147.79z" /><path  fill="#FFFFFF" d="M191.332,79H190c-36.451,0-66,29.102-66,65.552v7.255c-11,0.18-19.666,9.05-19.666,19.983    c0,10.933,14.666,23.787,25.666,23.967l5.256,61.538c0,0,39.274,23.428,58.079,21.423C245.078,273.202,227.783,79,191.332,79z" /><circle  cx="133.334" cy="173.238" r="20" /><circle  cx="266.666" cy="173.238" r="20" /><path  d="M267,189v-50h0.18c-0.184-37-29.986-59-66.324-59h-1.521c-36.339,0-66.142,22-66.325,59H133v50l12,64.999    c0,0,37.999,26.001,45,26.001h20.189c7.001,0,44.811-26,44.811-26L267,189z" /></g><g id="Hair"><path  fill="#F4E419" d="M285.426,89.462c0,0-11.426-22.188-37.426-15.333v-0.001c0,0-6,1.874-18.947-1.317    c-5.177-1.276-14.763-4.092-25.1-4.366c-10.338-0.274-20.763,3.09-25.962,4.366C164.998,76.002,158,74.128,158,74.128v0.001    c-26-6.855-36.48,15.333-36.48,15.333c-16.356,35.722,7.345,45.037,7.345,45.037c-17-58.687,74.636-56.483,74.636-56.483    S272,79.749,270,131.999v18.915c2-2.07,3.31-4.517,5.619-7.416C275.619,143.499,301.724,125.184,285.426,89.462z" /><path  fill="#FEFEFE" d="M195.501,78.184c-31.21,3.288-45.728-5.337-45.728-5.337c-27.522-16.598-40.807,21.472-40.807,21.472    c-17.994,39.3,14.284,56.595,14.284,56.595c2.501,3.13,1.75-9.797,1.75-9.797c0-31.133,14.086-48.168,42.086-56.117    L195.501,78.184z" /><path  d="M281.426,96.462c0,0-11.426-22.188-37.426-15.333v-0.001c0,0-6,1.874-18.947-1.317c-5.177-1.276-14.763-4.092-25.1-4.366    c-10.338-0.274-20.763,3.09-25.962,4.366C160.998,83.002,154,81.128,154,81.128v0.001c-26-6.855-36.48,15.333-36.48,15.333    c-16.356,35.722,9.377,54.036,9.377,54.036c2.274,2.845,4.103,5.255,5.103,7.301c0,0,5.967-18.142,6-18.966    C139.379,103.898,163.725,81,199.335,81h0.667h0.667C237.119,81,266,102.549,266,138.999v18.915c2-2.07,3.31-4.517,5.619-7.416    C271.619,150.499,297.724,132.184,281.426,96.462z" /></g><g id="Top"><path  fill="#FFFFFF" d="M199,97.666c0,0,53.333-12.333,56.346,43c0,0,9.654,50-15.596,68.333c-8.301,6.027-64.5,10.586-82.25-3.5   c0,0-15.966-13.25-14.92-57.698C142.58,147.802,140,97.407,199,97.666z" /><polygon  fill="#FFFFFF" points="168.125,209 167,218.003 176.443,219.788 179.083,209.5" /><path  d="M191.431,189.408c0,0-4.321,8.691-1.785,11.98c2.536,3.289,8.079,3.289,8.173-3.523   C197.913,191.053,195.001,185.18,191.431,189.408z" /><path  d="M205.431,189.408c0,0-4.321,8.691-1.785,11.98c2.536,3.289,8.079,3.289,8.173-3.523   C211.913,191.053,209.001,185.18,205.431,189.408z" /><path  fill="#FFFFFF" d="M191.875,256.333l-1.5-16.333c0,0,23.125-7.875,40.875,0.375L229.333,252" /><line  fill="none" stroke="#000000" stroke-width="3" stroke-linecap="round" stroke-miterlimit="10" x1="203.5" y1="236" x2="203.5" y2="250" /><line  fill="none" stroke="#000000" stroke-width="3" stroke-linecap="round" stroke-miterlimit="10" x1="216.5" y1="236" x2="216.5" y2="248" /><path  fill="none" stroke="#FFFFFF" stroke-width="3" stroke-linecap="round" stroke-miterlimit="10" d="M195.5,254" /><path  fill="none" stroke="#FFFFFF" stroke-width="3" stroke-linecap="round" stroke-miterlimit="10" d="M195.5,240" /><polyline  fill="#FFFFFF" points="171,257 171,244 179.09,242.667 183.167,257 171,257" /><path  d="M214.833,128.167c0,0-7.331,8-7.499,13c-0.168,5,1.832,20.833,7.499,26.667C220.5,173.667,236.667,179.5,240,175.5   s6.833-31.167,1.333-36.667S222.167,120.833,214.833,128.167z" /><path  fill="#51C2F4" d="M167.937,173.157c0,0-8.672,18.73-4.076,22.986c4.596,4.256,10.622-2.343,9.758-19.12    C173.619,177.023,175.62,159.258,167.937,173.157" /><path  d="M191.419,142.921c0,0-2.11,20.45-11.686,25.968c-9.576,5.518-21.586,0.811-24.345-5.518    c-2.759-6.33-1.623-19.314,20.044-30.026C175.432,133.345,192.23,126.853,191.419,142.921z" /><path  fill="#FFFFFF" d="M212,214v14.561c-19,3.606-33.5-3.561-33.5-3.561l2.875-15" /><polygon  fill="#FFFFFF" points="235.625,209 236.833,225.006 224,227.006 223.333,212" /><line  fill="none" stroke="#000000" stroke-width="3" stroke-linecap="round" stroke-miterlimit="10" x1="201.976" y1="217.25" x2="200.5" y2="230.875" /><line  fill="none" stroke="#000000" stroke-width="3" stroke-linecap="round" stroke-miterlimit="10" x1="189.604" y1="216.375" x2="186.375" y2="229.575" /><path  fill="#FFFFFF" d="M169.5,256.333c0,0,61.25-8.833,63.5-2.333S163.712,269.229,169.5,256.333z" /></g></svg>