<?xml version="1.0" encoding="iso-8859-1"?><svg id="MegFaceScold" version="1.1" xmlns="http://www.w3.org/2000/svg" xmlns:xlink="http://www.w3.org/1999/xlink" xml:space="preserve" x="0px" y="0px" viewbox="0 0 400 400" width="400" height="400" ><g id="Face"><g  /><g  /><circle  cx="133.333" cy="173.238" r="20" class="SkinColor" fill="#F7CCBA"  /><circle  cx="266.667" cy="173.238" r="20" class="SkinColor" fill="#F7CCBA"  /><circle  fill="#D97755" cx="266.667" cy="173.238" r="10.146" /><circle  fill="#D97755" cx="133.333" cy="173.238" r="10.146" /><path  d="M200.667,80H200h-0.667C162.883,80,133,102.549,133,139l4,48c-15.5,11.5-14.748,29.741-5.667,40.5    c11.91,14.111,44.842,51.939,69.251,51.435c22.727-0.469,56.993-38.296,68.083-51.435c9.081-10.759,10.083-29-5.667-40.5l4-48    C267,102.549,237.117,80,200.667,80z" class="SkinColor" fill="#F7CCBA"  /></g><g id="Beard"><rect  x="157" y="221" width="86" height="10" class="BeardColor" fill="#5D2300"  /><path  d="M157,273.05V221h10v52.05c0,2.734-2.216,4.95-4.95,4.95h-0.1C159.216,278,157,275.784,157,273.05z" class="BeardColor" fill="#5D2300"  /><path  d="M233,273.05V221h10v52.05c0,2.734-2.216,4.95-4.95,4.95h-0.1C235.216,278,233,275.784,233,273.05z" class="BeardColor" fill="#5D2300"  /></g><g id="Nose"><ellipse  fill="#D97755" cx="200" cy="202.875" rx="11.492" ry="8.625" /><ellipse  fill="#D97755" cx="200" cy="192.375" rx="4.5" ry="10.125" /></g><g id="Eyebrow"><path  d="M213.584,150.883c0,0,30.527-8.358,24.464-17.461c0,0-2.521-4.032-8.831-2.336    C229.217,131.086,236.186,138.593,213.584,150.883z" /><path  d="M186.626,152.474c0,0-28.924-12.851-21.562-20.939c0,0,3.099-3.608,9.082-0.983    C174.145,130.552,166.126,136.926,186.626,152.474z" /></g><g id="Hair"><path  fill="#845F41" d="M151.663,102.037c-7.479,5.741-1.512,21.741-10.711,30.872c-3.96,3.934-4.493,27.592-4.493,27.592      l-14.017-5.945c-1.274-5.966-9.109-51.555,15.311-74.163c14.013-16.273,38.548-27.517,56.187-27.181      c19.754,0.375,35.56,8.997,35.56,8.997c46.023,7.292,49.5,44.644,44.427,69.528c-0.761,11.743-0.376,20.806-0.376,20.806      l-14.692,7.959c0,0-0.534-23.657-4.494-27.59c-9.2-9.132-3.232-25.133-10.711-30.874c-10.055-7.719-30.987,2.086-45.995,2.086      C182.651,104.122,161.718,94.318,151.663,102.037z" /></g><g id="Top"><path  fill="#FFFFFF" d="M213.75,169.25l36.25-15C250,154.25,245,202.5,213.75,169.25z" /><path  fill="#FFFFFF" d="M190,169.25l-36.25-15C153.75,154.25,158.75,202.5,190,169.25z" /><path  fill="#51C2F4" d="M112.774,323.551c0,0,15.181,2.6,20.478-34.204C133.253,289.347,94.836,318.275,112.774,323.551z" /><path  fill="#51C2F4" d="M276.784,316.456c0,0,7.757-13.307-24.855-31.17C251.929,285.286,265.554,331.406,276.784,316.456z" /><path  fill="#51C2F4" d="M237.017,258.14c0,0,16.916,1.782,20.62,13.052c0,0,3.331,11.304-8.758,5.361   C248.879,276.553,241.058,271.085,237.017,258.14z" /><path  fill="#51C2F4" d="M140.347,245.419c0,0-16.333-1.715-21.99,4.832c0,0-6.623,7.355-0.541,11.803   c10.404,7.609,13.89-4.888,37.907-14.167C156.69,245.549,140.347,245.419,140.347,245.419z" /><path  fill="#51C2F4" d="M155.037,289.259c-0.508-10.93,5.234-28.928,5.234-28.928c-16.891,15.612-18.524,32.011-18.524,32.011   C140.647,309.389,155.545,300.189,155.037,289.259z" /><path  fill="#51C2F4" d="M257.51,254.388c0,0,17.912-4.721,29.157,1.584c0,0,15,10.362,0,11.828   C276.369,268.807,264.389,255.57,257.51,254.388z" /><path  fill="#51C2F4" d="M266.333,270.334c0,0,14.352,2.974,37.531,16.345c0,0,21.552,13.959,5.862,16.004   C293.463,304.801,278.36,274.213,266.333,270.334z" /><path  fill="#51C2F4" d="M141.735,268.231c0,0-31.595-1.94-46.072,18.819c0,0-9.331,17.284,5.334,8.774   C107.442,292.084,130.915,271.14,141.735,268.231z" /><circle  fill="#D30010" cx="232.333" cy="167.333" r="4.667" /><circle  fill="#D30010" cx="172.333" cy="168.333" r="4.667" /><circle  fill="#51C2F4" cx="281.664" cy="245.167" r="5.167" /><circle  fill="#51C2F4" cx="235.664" cy="289.167" r="4.455" /><circle  fill="#51C2F4" cx="101.62" cy="263.123" r="4.123" /><path  d="M178.666,238.834c0,0-9.292,4.667-4.667,9.167s48.333,4,51.667,2.333c0,0,9.833-3.833,6.833-8.333   S222.166,223.834,178.666,238.834z" /><path  fill="#822006" d="M185.166,245.167c0,0,1.577-3.167,8.459-4.167c6.882-1,32.404,1,30.683,4.167   C222.589,248.334,189.038,244.834,185.166,245.167z" /><polygon  fill="#D97755" points="202.25,145 204,154.434 235.25,121.275 207.75,145" /><polygon  fill="#D97755" points="190,156.375 194.125,147.875 190,148.625 171.386,119.875" /><polygon  fill="#D97755" points="199,149 199,158 194.125,156" /></g></svg>