<?xml version="1.0" encoding="iso-8859-1"?><svg id="MegFaceChill" version="1.1" xmlns="http://www.w3.org/2000/svg" xmlns:xlink="http://www.w3.org/1999/xlink" xml:space="preserve" x="0px" y="0px" viewbox="0 0 400 400" width="400" height="400" ><g id="Face"><g  /><g  /><circle  cx="133.333" cy="173.238" r="20" class="SkinColor" fill="#F7CCBA"  /><circle  cx="266.667" cy="173.238" r="20" class="SkinColor" fill="#F7CCBA"  /><circle  fill="#D97755" cx="266.667" cy="173.238" r="10.146" /><circle  fill="#D97755" cx="133.333" cy="173.238" r="10.146" /><path  d="M267,189v-50h0.18c-0.184-37-29.986-59-66.325-59h-1.521c-36.338,0-66.141,22-66.325,59H133v50l12,64.999    c0,0,37.999,26.001,45,26.001h20.189c7.001,0,44.811-26,44.811-26L267,189z" class="SkinColor" fill="#F7CCBA"  /></g><g id="Beard"><path  d="M214.04,280l-0.072-0.123c-0.072-0.263-0.21-0.492-0.407-0.692L199.674,266.5l-13.234,12.645    c-0.2,0.225-0.347,0.471-0.419,0.746L185.96,280h0.045c-0.018,0-0.045,0.19-0.045,0.294c0,7.754,6.286,14.04,14.04,14.04    s14.04-6.286,14.04-14.04c0-0.107-0.033-0.294-0.051-0.294H214.04z" class="BeardColor" fill="#5D2300"  /></g><g id="Nose"><path  fill="#D97755" d="M200,169.667c-1.524,3.256-8.023,25.447-7.442,36.582c0.418,8.008,4.393,9.769,7.442,10.25    c3.239-0.481,7.024-2.242,7.442-10.25C208.022,195.114,201.046,172.923,200,169.667z" /></g><g id="Eyebrow"><polygon  points="176.389,155.651 189.934,150.104 155.691,147" /><polygon  points="223.611,155.651 210.066,150.104 244.309,147" /></g><g id="Hair"><path  fill="#845F41" d="M281.925,96.463c0,0-10.925-22.188-36.925-15.333v-0.001c0,0-6.501,1.873-19.448-1.317    c-5.177-1.275-15.013-4.092-25.351-4.366c-10.338-0.274-20.388,3.09-25.586,4.366C161.622,83.003,155,81.129,155,81.129v0.001    c-26-6.855-36.981,15.333-36.981,15.333c-16.356,35.722,9.628,54.036,9.628,54.036c2.274,2.845,4.066,5.255,5.353,7.301V139    c0-36.451,29.883-59,66.333-59H200h0.667C237.117,80,267,102.55,267,139v18.915c1.291-2.07,3.06-4.517,5.368-7.416    C272.368,150.499,298.223,132.185,281.925,96.463z" /></g><g id="Top"><polygon  points="211,160 211,167 188,167 188,160 149,160 149,183 188,183 188,172 211,172 211,183 250,183 250,160" /><polygon  fill="#F7E99A" points="241.249,160.889 245.456,140.109 248.133,160.889 264.833,166.243 247.878,166.753     243.416,186.641 241.249,166.753 226.333,163.375" /><polygon  fill="#FFFFFF" points="214.387,160 211,160 211,166.891 218.013,183 224.928,183" /><polygon  fill="#FFFFFF" points="152.387,160 149,160 149,166.891 156.013,183 162.928,183" /><polygon  fill="#F7E99A" points="161.9,169.836 164.504,156.972 166.162,169.836 176.5,173.151 166.004,173.466 163.242,185.778     161.9,173.466 152.667,171.375" /><path  d="M177.719,235.464c0,0,14.456,11.755,47.231-6.233c0,0-0.286,20.485,2.938,21.152   C227.888,250.383,192.449,270.13,177.719,235.464z" /><path  fill="#FFFFFF" d="M210.381,245.501c9.952-3.175,10.579-4.757,11.662-5.639l0.128-5.772c0,0-25.762,14.75-37.716,7.369    c0,0,0.508,2.095,3.654,4.91C190.333,248.191,196.55,249.775,210.381,245.501z" /><path  fill="#FFFFFF" d="M221.956,244.169c-19.231,8.38-27.042,6.336-27.81,6.369c5.962,2.8,15.134,3.975,28.77-1.139    L221.956,244.169z" /></g></svg>