<?xml version="1.0" encoding="iso-8859-1"?><svg id="MegFaceDrooling" version="1.1" xmlns="http://www.w3.org/2000/svg" xmlns:xlink="http://www.w3.org/1999/xlink" xml:space="preserve" x="0px" y="0px" viewbox="0 0 400 400" width="400" height="400" ><g id="Face"><g  /><g  /><circle  cx="133.333" cy="173.238" r="20" class="SkinColor" fill="#F7CCBA"  /><circle  cx="266.667" cy="173.238" r="20" class="SkinColor" fill="#F7CCBA"  /><circle  fill="#D97755" cx="266.667" cy="173.238" r="10.146" /><circle  fill="#D97755" cx="133.333" cy="173.238" r="10.146" /><path  d="M267,189v-50h0.18c-0.184-37-29.986-59-66.325-59h-1.521c-36.338,0-66.141,22-66.325,59H133v50l12,64.999    c0,0,37.999,26.001,45,26.001h20.189c7.001,0,44.811-26,44.811-26L267,189z" class="SkinColor" fill="#F7CCBA"  /></g><g id="Beard"><path  d="M214.04,280l-0.072-0.123c-0.072-0.263-0.21-0.492-0.407-0.692L199.674,266.5l-13.234,12.645    c-0.2,0.225-0.347,0.471-0.419,0.746L185.96,280h0.045c-0.018,0-0.045,0.19-0.045,0.294c0,7.754,6.286,14.04,14.04,14.04    s14.04-6.286,14.04-14.04c0-0.107-0.033-0.294-0.051-0.294H214.04z" class="BeardColor" fill="#5D2300"  /></g><g id="Nose"><path  fill="#D97755" d="M200,169.667c-1.524,3.256-8.023,25.447-7.442,36.582c0.418,8.008,4.393,9.769,7.442,10.25    c3.239-0.481,7.024-2.242,7.442-10.25C208.022,195.114,201.046,172.923,200,169.667z" /></g><g id="Hair"><path  fill="#845F41" d="M281.925,96.463c0,0-10.925-22.188-36.925-15.333v-0.001c0,0-6.501,1.873-19.448-1.317    c-5.177-1.275-15.013-4.092-25.351-4.366c-10.338-0.274-20.388,3.09-25.586,4.366C161.622,83.003,155,81.129,155,81.129v0.001    c-26-6.855-36.981,15.333-36.981,15.333c-16.356,35.722,9.628,54.036,9.628,54.036c2.274,2.845,4.066,5.255,5.353,7.301V139    c0-36.451,29.883-59,66.333-59H200h0.667C237.117,80,267,102.55,267,139v18.915c1.291-2.07,3.06-4.517,5.368-7.416    C272.368,150.499,298.223,132.185,281.925,96.463z" /></g><g id="Top"><path  fill="#AF2409" d="M169.927,145.034c-1.976-4.077-8.11-5.495-12.444-4.618c-8.547,1.73-14.137,9.767-12.347,18.612   c3.356,16.585,20.018,17.818,30.59,26.037c0.099,0.095,0.207,0.166,0.326,0.244c1.3,0.854,3.047,0.501,3.913-0.792   c0.081-0.118,0.128-0.222,0.184-0.348c6.551-11.707,21.43-19.229,18.061-35.881c-1.79-8.846-10.065-14.077-18.612-12.348   C175.262,136.818,170.162,140.509,169.927,145.034z M182.329,145.746c-1.078,0.023-2.046-0.726-2.265-1.809   c-0.246-1.216,0.541-2.446,1.757-2.692c1.758-0.356,4.145,0.462,6.294,1.869c2.192,1.444,4.019,3.595,4.341,5.186   c0.246,1.216-0.548,2.413-1.764,2.659c-1.084,0.219-2.149-0.382-2.548-1.384C187.142,147.466,184.829,145.816,182.329,145.746z" /><path  fill="#AF2409" d="M241.877,146.872c-3.69-0.63-8.843,0.729-10.409,4.23c-0.316-3.822-4.727-6.813-8.417-7.443   c-7.277-1.242-14.142,3.399-15.427,10.929c-2.41,14.119,10.371,20.176,16.211,29.89c0.049,0.105,0.112,0.195,0.183,0.292   c0.766,1.071,2.254,1.325,3.331,0.569c0.1-0.069,0.169-0.136,0.251-0.218c8.744-7.245,22.787-8.646,25.207-22.822   C254.092,154.768,249.154,148.113,241.877,146.872z M248.26,160.554c-0.177,1.035-1.169,1.738-2.204,1.561   c-0.923-0.157-1.58-0.957-1.59-1.87c-0.148-1.972-1.47-3.98-3.423-4.798c-0.858-0.311-1.394-1.197-1.237-2.119   c0.177-1.035,1.174-1.766,2.208-1.59c1.497,0.255,3.132,1.629,4.4,3.396C247.705,156.943,248.492,159.199,248.26,160.554z" /><path  d="M174.854,233.294c2.337,14.167,12.706,24.847,25.146,24.847s22.809-10.68,25.146-24.847H174.854z" /><path  fill="#FFFFFF" d="M179.335,235c0.622,1.533,4.15,4.095,20.766,4.156c0,0,15.456,0.148,19.313-4.156H179.335z" /><path  fill="#822006" d="M212.373,254.302c-3.114-2.137-7.441-3.469-12.238-3.469c-4.865,0-9.248,1.37-12.37,3.56   c3.637,2.386,7.803,3.747,12.235,3.747C204.488,258.141,208.704,256.745,212.373,254.302z" /><path  fill="#51C2F4" d="M217.197,250.156c0,0,1.469-1.156,1.553,1.76c0.083,2.917-2.917,6.083-1.417,8c1.5,1.917,4.5,2.083,5.917,0   c1.417-2.083-2.083-6-2.167-8.917c0,0-1.161-4.082,0.083-6.333C221.167,244.667,216.708,244.501,217.197,250.156z" /><path  fill="#51C2F4" d="M213.156,263.5c-0.29-1.641-0.88-5.484,0.66-10.227c0,0-4.266-1.48-4.416,2.717   c0,0,2.712-0.895,1.795,7.857c-0.195,1.215-0.758,1.494-0.758,2.09c0,1.07,0.867,1.938,1.938,1.938s1.938-0.867,1.938-1.938   C214.313,265.131,213.25,264.313,213.156,263.5z" /></g></svg>