<?xml version="1.0" encoding="iso-8859-1"?><svg id="MegFaceHot Kiss" version="1.1" xmlns="http://www.w3.org/2000/svg" xmlns:xlink="http://www.w3.org/1999/xlink" xml:space="preserve" x="0px" y="0px" viewbox="0 0 400 400" width="400" height="400" ><g id="Face"><g  /><g  /><circle  cx="133.333" cy="173.238" r="20" class="SkinColor" fill="#F7CCBA"  /><circle  cx="266.667" cy="173.238" r="20" class="SkinColor" fill="#F7CCBA"  /><circle  fill="#D97755" cx="266.667" cy="173.238" r="10.146" /><circle  fill="#D97755" cx="133.333" cy="173.238" r="10.146" /><path  d="M267,189v-50h0.18c-0.184-37-29.986-59-66.325-59h-1.521c-36.338,0-66.141,22-66.325,59H133v50l12,64.999    c0,0,37.999,26.001,45,26.001h20.189c7.001,0,44.811-26,44.811-26L267,189z" class="SkinColor" fill="#F7CCBA"  /></g><g id="Beard"><path  d="M214.04,280l-0.072-0.123c-0.072-0.263-0.21-0.492-0.407-0.692L199.674,266.5l-13.234,12.645    c-0.2,0.225-0.347,0.471-0.419,0.746L185.96,280h0.045c-0.018,0-0.045,0.19-0.045,0.294c0,7.754,6.286,14.04,14.04,14.04    s14.04-6.286,14.04-14.04c0-0.107-0.033-0.294-0.051-0.294H214.04z" class="BeardColor" fill="#5D2300"  /></g><g id="Eyebrow"><path  d="M188.125,154c0,0-10.219-21.702-29.25-7.25c0,0,14.292-10.5,20.792,10.75L188.125,154z" /><path  d="M211.875,154c0,0,10.219-21.702,29.25-7.25c0,0-17.542-5.32-19.875,10.75L211.875,154z" /></g><g id="Hair"><path  fill="#845F41" d="M281.925,96.463c0,0-10.925-22.188-36.925-15.333v-0.001c0,0-6.501,1.873-19.448-1.317    c-5.177-1.275-15.013-4.092-25.351-4.366c-10.338-0.274-20.388,3.09-25.586,4.366C161.622,83.003,155,81.129,155,81.129v0.001    c-26-6.855-36.981,15.333-36.981,15.333c-16.356,35.722,9.628,54.036,9.628,54.036c2.274,2.845,4.066,5.255,5.353,7.301V139    c0-36.451,29.883-59,66.333-59H200h0.667C237.117,80,267,102.55,267,139v18.915c1.291-2.07,3.06-4.517,5.368-7.416    C272.368,150.499,298.223,132.185,281.925,96.463z" /></g><g id="Top"><path  d="M206.858,218.32c-2.967,0-5.258,1.738-6.955,3.885c-1.689-2.136-3.819-3.697-6.519-3.697   c-5.186,0-7.646,5.734-8.172,7.141c-2.327,5.556-10.513,6.601-11.235,7.179c-0.947,0.759-1.415,1.924-1.415,3.138   c0,4.669,3.605,7.518,7.96,8.687c-1.898,15.908,19.576,15.924,19.773,15.908c8.607-0.545,20.017-3.079,20.017-18.601   c0-1.18,7.563-4.044,5.859-8.881c-0.475-1.742-2.058-3.08-3.858-3.08c-0.024,0-0.048,0-0.072,0   C216.875,229.625,212.5,218.32,206.858,218.32L206.858,218.32z" class="SkinColor" fill="#F7CCBA"  /><path  fill="none" stroke="#000000" stroke-width="2" stroke-linecap="round" stroke-linejoin="round" stroke-miterlimit="10" d="M189.895,261.333c0,0,10.23-13.5,21.105,0" /><path  fill="none" stroke="#000000" stroke-width="4" stroke-linecap="round" stroke-linejoin="round" stroke-miterlimit="10" d="M216.875,171.25c0,0,8.946,7.125,28.25-2.375" /><path  fill="none" stroke="#000000" stroke-width="2" stroke-linecap="round" stroke-linejoin="round" stroke-miterlimit="10" d="M219.75,165.25c0,0,7.125,7.125,22.5-2.375" /><line  fill="none" stroke="#000000" stroke-width="2" stroke-linecap="round" stroke-linejoin="round" stroke-miterlimit="10" x1="221.375" y1="180.688" x2="223.25" y2="173.815" /><line  fill="none" stroke="#000000" stroke-width="2" stroke-linecap="round" stroke-linejoin="round" stroke-miterlimit="10" x1="232.125" y1="182.188" x2="231" y2="173.815" /><line  fill="none" stroke="#000000" stroke-width="2" stroke-linecap="round" stroke-linejoin="round" stroke-miterlimit="10" x1="239.063" y1="171.345" x2="242.875" y2="177.251" /><path  fill="none" stroke="#000000" stroke-width="4" stroke-linecap="round" stroke-linejoin="round" stroke-miterlimit="10" d="M183.125,171.25c0,0-8.946,7.125-28.25-2.375" /><path  fill="none" stroke="#000000" stroke-width="2" stroke-linecap="round" stroke-linejoin="round" stroke-miterlimit="10" d="M180.25,165.25c0,0-7.125,7.125-22.5-2.375" /><line  fill="none" stroke="#000000" stroke-width="2" stroke-linecap="round" stroke-linejoin="round" stroke-miterlimit="10" x1="178.625" y1="180.688" x2="176.75" y2="173.815" /><line  fill="none" stroke="#000000" stroke-width="2" stroke-linecap="round" stroke-linejoin="round" stroke-miterlimit="10" x1="167.875" y1="182.188" x2="169" y2="173.815" /><line  fill="none" stroke="#000000" stroke-width="2" stroke-linecap="round" stroke-linejoin="round" stroke-miterlimit="10" x1="160.938" y1="171.345" x2="157.125" y2="177.251" /><path  fill="#AF1212" d="M176.563,235.967c0,0,8.104,1.452,12.375-8.857c0,0,4.5-12.435,11.063,3.578c0,0,4.167-12.965,10.167-6.62   c0,0,4.167,12.794,12.146,11.265c0,0-6,2.333-6,6.627c0,11.033-6.313,13.986-16.313,14.612c0,0-16.25,1.551-15.563-15.327   C184.438,241.245,176.563,240.798,176.563,235.967z" /><path  fill="#FFFFFF" d="M196.958,240.211c0,0,2.621-5.163,6.583,0C203.542,240.211,200.023,245.944,196.958,240.211z" /><line  fill="none" stroke="#FF1E00" stroke-width="5" stroke-linecap="round" stroke-linejoin="round" stroke-miterlimit="10" x1="174.895" y1="196" x2="166" y2="212.75" /><line  fill="none" stroke="#FF1E00" stroke-width="5" stroke-linecap="round" stroke-linejoin="round" stroke-miterlimit="10" x1="189.895" y1="196" x2="181" y2="212.75" /><line  fill="none" stroke="#FF1E00" stroke-width="5" stroke-linecap="round" stroke-linejoin="round" stroke-miterlimit="10" x1="204.895" y1="196" x2="196" y2="212.75" /><line  fill="none" stroke="#FF1E00" stroke-width="5" stroke-linecap="round" stroke-linejoin="round" stroke-miterlimit="10" x1="219.895" y1="196" x2="211" y2="212.75" /><line  fill="none" stroke="#FF1E00" stroke-width="5" stroke-linecap="round" stroke-linejoin="round" stroke-miterlimit="10" x1="234.895" y1="196" x2="226" y2="212.75" /><circle  fill="#F47878" cx="209.75" cy="247" r="3.645" /></g></svg>