<?xml version="1.0" encoding="iso-8859-1"?><svg id="MegFaceFlushed" version="1.1" xmlns="http://www.w3.org/2000/svg" xmlns:xlink="http://www.w3.org/1999/xlink" xml:space="preserve" x="0px" y="0px" viewbox="0 0 400 400" width="400" height="400" ><g id="Face"><g  /><g  /><circle  cx="133.333" cy="173.238" r="20" class="SkinColor" fill="#F7CCBA"  /><circle  cx="266.667" cy="173.238" r="20" class="SkinColor" fill="#F7CCBA"  /><circle  fill="#D97755" cx="266.667" cy="173.238" r="10.146" /><circle  fill="#D97755" cx="133.333" cy="173.238" r="10.146" /><path  d="M267,189v-50h0.18c-0.184-37-29.986-59-66.325-59h-1.521c-36.338,0-66.141,22-66.325,59H133v50l12,64.999    c0,0,37.999,26.001,45,26.001h20.189c7.001,0,44.811-26,44.811-26L267,189z" class="SkinColor" fill="#F7CCBA"  /></g><g id="Beard"><path  d="M214.04,280l-0.072-0.123c-0.072-0.263-0.21-0.492-0.407-0.692L199.674,266.5l-13.234,12.645    c-0.2,0.225-0.347,0.471-0.419,0.746L185.96,280h0.045c-0.018,0-0.045,0.19-0.045,0.294c0,7.754,6.286,14.04,14.04,14.04    s14.04-6.286,14.04-14.04c0-0.107-0.033-0.294-0.051-0.294H214.04z" class="BeardColor" fill="#5D2300"  /></g><g id="Eye"><circle  fill="#FFFFFF" cx="230" cy="175" r="12" /><circle  cx="232.834" cy="179" r="5" class="EyeColor" fill="#1860B5"  /><circle  fill="#FFFFFF" cx="170" cy="175" r="12" /><circle  cx="172.612" cy="179" r="5" class="EyeColor" fill="#1860B5"  /></g><g id="Eyebrow"><polygon  points="176.389,155.651 189.934,150.104 155.691,147" /><polygon  points="223.611,155.651 210.066,150.104 244.309,147" /></g><g id="Glass"><rect  x="188.508" y="165" width="22.984" height="5.033" /><path  fill="none" stroke="#000000" stroke-width="3" stroke-linecap="round" stroke-linejoin="round" stroke-miterlimit="10" d="M211.492,173.238c0,0-0.508-9.738,0-11.405C212,160.167,234,155.925,249.333,165c0,0,8.167,3.183,3.667,10" /><path  fill="none" stroke="#000000" stroke-width="3" stroke-linecap="round" stroke-linejoin="round" stroke-miterlimit="10" d="M188.232,173.238c0,0,0.508-9.738,0-11.405c-0.508-1.667-22.508-5.908-37.841,3.167c0,0-7.64,4.683-3.14,11.5" /></g><g id="Hair"><path  fill="#845F41" d="M281.925,96.463c0,0-10.925-22.188-36.925-15.333v-0.001c0,0-6.501,1.873-19.448-1.317    c-5.177-1.275-15.013-4.092-25.351-4.366c-10.338-0.274-20.388,3.09-25.586,4.366C161.622,83.003,155,81.129,155,81.129v0.001    c-26-6.855-36.981,15.333-36.981,15.333c-16.356,35.722,9.628,54.036,9.628,54.036c2.274,2.845,4.066,5.255,5.353,7.301V139    c0-36.451,29.883-59,66.333-59H200h0.667C237.117,80,267,102.55,267,139v18.915c1.291-2.07,3.06-4.517,5.368-7.416    C272.368,150.499,298.223,132.185,281.925,96.463z" /></g><g id="Top"><rect  x="251" y="73" width="7" height="54" /><rect  x="266" y="73" width="7" height="54" /><rect  x="280" y="73" width="7" height="54" /><path  d="M194.351,233.995c0,0,11.999-1.131,14.617,8.121c4.43,15.651-5.844,18.01-12.698,16.537   c-4.196-0.902-10.853-10.611,2.73-20.652C200.45,236.929,201.615,234.863,194.351,233.995z" /><path  fill="#822006" d="M194.083,253.334c0,0,2-6.25,13.167-7.917c0,0,1.083,10.583-8.417,10.667   C198.833,256.084,194,256.084,194.083,253.334z" /><line  fill="none" stroke="#FF1E00" stroke-width="5" stroke-linecap="round" stroke-linejoin="round" stroke-miterlimit="10" x1="174.895" y1="196" x2="166" y2="212.75" /><line  fill="none" stroke="#FF1E00" stroke-width="5" stroke-linecap="round" stroke-linejoin="round" stroke-miterlimit="10" x1="189.895" y1="196" x2="181" y2="212.75" /><line  fill="none" stroke="#FF1E00" stroke-width="5" stroke-linecap="round" stroke-linejoin="round" stroke-miterlimit="10" x1="204.895" y1="196" x2="196" y2="212.75" /><line  fill="none" stroke="#FF1E00" stroke-width="5" stroke-linecap="round" stroke-linejoin="round" stroke-miterlimit="10" x1="219.895" y1="196" x2="211" y2="212.75" /><line  fill="none" stroke="#FF1E00" stroke-width="5" stroke-linecap="round" stroke-linejoin="round" stroke-miterlimit="10" x1="234.895" y1="196" x2="226" y2="212.75" /></g></svg>