<?xml version="1.0" encoding="iso-8859-1"?><svg id="MegFaceSniffle" version="1.1" xmlns="http://www.w3.org/2000/svg" xmlns:xlink="http://www.w3.org/1999/xlink" xml:space="preserve" x="0px" y="0px" viewbox="0 0 400 400" width="400" height="400" ><g id="Face"><g  /><g  /><circle  cx="133.333" cy="173.238" r="20" class="SkinColor" fill="#F7CCBA"  /><circle  cx="266.667" cy="173.238" r="20" class="SkinColor" fill="#F7CCBA"  /><circle  fill="#D97755" cx="266.667" cy="173.238" r="10.146" /><circle  fill="#D97755" cx="133.333" cy="173.238" r="10.146" /><path  d="M200.667,80H200h-0.667C162.883,80,133,102.549,133,139l4,48c-15.5,11.5-14.748,29.741-5.667,40.5    c11.91,14.111,44.842,51.939,69.251,51.435c22.727-0.469,56.993-38.296,68.083-51.435c9.081-10.759,10.083-29-5.667-40.5l4-48    C267,102.549,237.117,80,200.667,80z" class="SkinColor" fill="#F7CCBA"  /></g><g id="Mouth"><path  fill="none" stroke="#000000" stroke-width="4" stroke-linecap="round" stroke-linejoin="round" stroke-miterlimit="10" d="M179,245.444c0,0,18.333-20,46,0" /></g><g id="Beard"><path  d="M210.198,219.961c0,0-6.143,2.726-1.817,6.754c4.326,4.029,43.664-8.334,43.664-8.334L210.198,219.961z" class="BeardColor" fill="#5D2300"  /><path  d="M189.878,220.986c0,0,5.825,3.352,1.102,6.907c-4.723,3.555-42.555-12.847-42.555-12.847L189.878,220.986z" class="BeardColor" fill="#5D2300"  /></g><g id="Nose"><ellipse  fill="#D97755" cx="200" cy="202.875" rx="11.492" ry="8.625" /><ellipse  fill="#D97755" cx="200" cy="192.375" rx="4.5" ry="10.125" /></g><g id="Eyebrow"><path  d="M212.392,149.083c0,0,31.5,3.083,29.083-7.583c0,0-0.917-4.667-7.417-5.334    C234.059,136.166,237.892,145.666,212.392,149.083z" /><path  d="M187.608,149.083c0,0-31.5,3.083-29.083-7.583c0,0,0.917-4.667,7.417-5.334    C165.941,136.166,162.108,145.666,187.608,149.083z" /></g><g id="Hair"><path  fill="#845F41" d="M151.663,102.037c-7.479,5.741-1.512,21.741-10.711,30.872c-3.96,3.934-4.493,27.592-4.493,27.592      l-14.017-5.945c-1.274-5.966-9.109-51.555,15.311-74.163c14.013-16.273,38.548-27.517,56.187-27.181      c19.754,0.375,35.56,8.997,35.56,8.997c46.023,7.292,49.5,44.644,44.427,69.528c-0.761,11.743-0.376,20.806-0.376,20.806      l-14.692,7.959c0,0-0.534-23.657-4.494-27.59c-9.2-9.132-3.232-25.133-10.711-30.874c-10.055-7.719-30.987,2.086-45.995,2.086      C182.651,104.122,161.718,94.318,151.663,102.037z" /></g><g id="Top"><path  fill="#51C2F4" d="M221.125,172.75c0,0-3.438,0.125-3.875,2.75c-0.438,2.625,0.962,5.307,4.437,4.036   c3.688-1.348,16.438,3.089,17.813,5.277s6.574,2.625,4.625-4.375C244.125,180.438,240.687,172.75,221.125,172.75z" /><path  fill="#51C2F4" d="M180.604,172.75c0,0,3.438,0.125,3.875,2.75s-0.962,5.307-4.438,4.036   c-3.688-1.348-16.438,3.089-17.813,5.277s-6.574,2.625-4.625-4.375C157.604,180.438,161.042,172.75,180.604,172.75z" /><polygon  points="221.5,165.875 243.687,171.5 241.892,179.536 219.722,172.982" /><polygon  points="157.375,171.75 179.125,165.125 181.191,173.309 159.093,180.352" /></g></svg>