<?xml version="1.0" encoding="iso-8859-1"?><svg id="MegFaceScold" version="1.1" xmlns="http://www.w3.org/2000/svg" xmlns:xlink="http://www.w3.org/1999/xlink" xml:space="preserve" x="0px" y="0px" viewbox="0 0 400 400" width="400" height="400" ><g id="Face"><g  /><g  /><circle  cx="133.333" cy="173.238" r="20" class="SkinColor" fill="#F7CCBA"  /><circle  cx="266.667" cy="173.238" r="20" class="SkinColor" fill="#F7CCBA"  /><circle  fill="#D97755" cx="266.667" cy="173.238" r="10.146" /><circle  fill="#D97755" cx="133.333" cy="173.238" r="10.146" /><path  d="M266.991,139c-0.184-37-29.986-59-66.325-59H200h-0.667c-36.338,0-66.141,22-66.325,59H133v112.667    C133,267.315,145.976,280,161.982,280h76.036C254.024,280,267,267.315,267,251.667V139H266.991z" class="SkinColor" fill="#F7CCBA"  /></g><g id="Beard"><path  d="M237.914,232.667c0.588,21.514-6.496,33.333-17.278,34.781c-20.001,6.178-35.59,1.095-41.147,0    c-10.782-1.447-17.798-13.266-17.21-34.781c0,0-13.424,35.792,4.507,42.458c0,0,14.733,6.248,33.209,5.721    c18.663,0.527,33.311-5.721,33.311-5.721C251.236,268.459,237.914,232.667,237.914,232.667z" class="BeardColor" fill="#5D2300"  /></g><g id="Nose"><path  fill="#D97755" d="M209.45,197.18c-8.787-7.417-11.48-7.348-20.307,0.228c-2.039,1.75-11.393,14.217,1.026,9.26    c2.221-0.887,5.362,5.764,9.195,5.832c4.148,0.074,7.515-6.807,9.707-5.729C220.75,212.511,213.788,200.841,209.45,197.18z" /><path  fill="#D97755" d="M200,212.511" /></g><g id="Eyebrow"><polygon  points="212.415,153.629 244.408,141.63 240.589,131.137" /><polygon  points="155.592,137.232 185.015,154.605 161.175,127.562" /></g><g id="Hair"><path  fill="#845F41" d="M284.5,297.5c-5.833,3.333,3.064-12.29-4.506-9.449c-10.16,3.81-19.062-3.01-19.062-3.01      s13.042-0.502,12.415-8.528c-1.347-14.014-7.934-6.833-11.697-18.872c-3.157-10.1,11.568-15.566,2.099-18.881      c-7.524-2.634-6.622-11.816-3.2-15.334c4.013-7.526,7.975-9.405,0.45-16.426c-7.525-7.023-5.586-12.753-2.074-19.275      c3.511-6.52,10.532-16.268,5.741-19.392c-13.167-8.584-8.648-16.805-8.146-25.334c-19-4.665-9.205-19.74-16.354-22.75      c-8.087-3.406-5.819-8.503-14.852-13.286c-8.527-4.514-19.483,0-28.512,0c-14,0-32.686-8.026-40.71,14.547      c-4.321,12.153-19.043,9.497-17.031,21.654c2.883,17.433-9.705,23.509-4.061,31.787c5.644,8.277,3.817,16.618-1.073,21.133      s-0.57,8.134,5.073,17.165c5.643,9.029-4.511,10.98-0.75,17c3.763,6.02,7.731,14.972,0.583,23.25      c-11,11,2.333,18.125-3.309,23.015c-5.644,4.892-17.191,7.651-4.524,20.151c0,0-13.032-3.597-19.554-14.634      c-4.6-7.784-10.032-1.003-13.794,3.511c-3.763,4.515-10.639,9.313-14.652,2.29c-5.19-9.082-9.494-9.665-13.188-5.299      c-5.517,6.52-14.305,5.654-16.312-0.367c-2.007-6.02,6.333-11-5.258-14.181C35.484,260.5,39.483,250.85,45,244.83      c5.518-6.021,12.517-17.31,7.5-23.83c-17.016-13.5-8.513-27.976-4.5-35.5c4.704-8.821,16.789-14.184,9.773-23.358      c-6.52-8.528-6.294-13.086-3.01-18.562c4.514-7.524,9.531-7.524,11.537-19.061c2.007-11.535,3.352-15.832,8.367-21.852      C79.057,97.4,91,99,96.594,80C98,62,113.398,66.39,118.47,60.811c5.014-5.518,12.969-20.823,25.009-16.811      c15.521,10,23.647-6.264,32.176-5.26c8.528,1.002,26.132-3.966,36.117-3.512c11.037,0.502,16.051,7.526,21.068,7.526      c5.018,0,13.544-2.51,21.069,1.504C261.434,48.272,273.5,52,274.5,63c4.014,5.017,12.015,2.326,16.531,4.332      c4.515,2.008,12.039,3.009,16.554,11.537c3.71,7.01,0.501,12.541,6.02,18.059C319.123,102.446,338.5,102,334.5,125      c2.006,8.528,15.724,11.054,16.224,21.588c0.501,10.534-14.724,26.649,9.385,40.411c11.391,13,6.758,21.208,2.391,29.5      c-5.017,9.533-11,12.257-11,19.28c0,7.024,11.262,13.144,8.253,22.173c-3.01,9.029-13.203,6.246-12.542,11.536      c1.001,8.022-6.68,16.681-14.547,12.54c-5.031-2.647-11.199,1.028-14.852,6.085c-5.106,7.069-2.646,11.219-22.642,7.94      C295.17,296.056,290.333,294.167,284.5,297.5z" /></g><g id="Top"><path  fill="#FFFFFF" d="M213.75,169.25l36.25-15C250,154.25,245,202.5,213.75,169.25z" /><path  fill="#FFFFFF" d="M190,169.25l-36.25-15C153.75,154.25,158.75,202.5,190,169.25z" /><path  fill="#51C2F4" d="M112.774,323.551c0,0,15.181,2.6,20.478-34.204C133.253,289.347,94.836,318.275,112.774,323.551z" /><path  fill="#51C2F4" d="M276.784,316.456c0,0,7.757-13.307-24.855-31.17C251.929,285.286,265.554,331.406,276.784,316.456z" /><path  fill="#51C2F4" d="M237.017,258.14c0,0,16.916,1.782,20.62,13.052c0,0,3.331,11.304-8.758,5.361   C248.879,276.553,241.058,271.085,237.017,258.14z" /><path  fill="#51C2F4" d="M140.347,245.419c0,0-16.333-1.715-21.99,4.832c0,0-6.623,7.355-0.541,11.803   c10.404,7.609,13.89-4.888,37.907-14.167C156.69,245.549,140.347,245.419,140.347,245.419z" /><path  fill="#51C2F4" d="M155.037,289.259c-0.508-10.93,5.234-28.928,5.234-28.928c-16.891,15.612-18.524,32.011-18.524,32.011   C140.647,309.389,155.545,300.189,155.037,289.259z" /><path  fill="#51C2F4" d="M257.51,254.388c0,0,17.912-4.721,29.157,1.584c0,0,15,10.362,0,11.828   C276.369,268.807,264.389,255.57,257.51,254.388z" /><path  fill="#51C2F4" d="M266.333,270.334c0,0,14.352,2.974,37.531,16.345c0,0,21.552,13.959,5.862,16.004   C293.463,304.801,278.36,274.213,266.333,270.334z" /><path  fill="#51C2F4" d="M141.735,268.231c0,0-31.595-1.94-46.072,18.819c0,0-9.331,17.284,5.334,8.774   C107.442,292.084,130.915,271.14,141.735,268.231z" /><circle  fill="#D30010" cx="232.333" cy="167.333" r="4.667" /><circle  fill="#D30010" cx="172.333" cy="168.333" r="4.667" /><circle  fill="#51C2F4" cx="281.664" cy="245.167" r="5.167" /><circle  fill="#51C2F4" cx="235.664" cy="289.167" r="4.455" /><circle  fill="#51C2F4" cx="101.62" cy="263.123" r="4.123" /><path  d="M178.666,238.834c0,0-9.292,4.667-4.667,9.167s48.333,4,51.667,2.333c0,0,9.833-3.833,6.833-8.333   S222.166,223.834,178.666,238.834z" /><path  fill="#822006" d="M185.166,245.167c0,0,1.577-3.167,8.459-4.167c6.882-1,32.404,1,30.683,4.167   C222.589,248.334,189.038,244.834,185.166,245.167z" /><polygon  fill="#D97755" points="202.25,145 204,154.434 235.25,121.275 207.75,145" /><polygon  fill="#D97755" points="190,156.375 194.125,147.875 190,148.625 171.386,119.875" /><polygon  fill="#D97755" points="199,149 199,158 194.125,156" /></g></svg>