<?xml version="1.0" encoding="iso-8859-1"?><svg id="MegFacePuke" version="1.1" xmlns="http://www.w3.org/2000/svg" xmlns:xlink="http://www.w3.org/1999/xlink" xml:space="preserve" x="0px" y="0px" viewbox="0 0 400 400" width="400" height="400" ><g id="Face"><g  /><g  /><circle  cx="133.333" cy="173.238" r="20" class="SkinColor" fill="#F7CCBA"  /><circle  cx="266.667" cy="173.238" r="20" class="SkinColor" fill="#F7CCBA"  /><circle  fill="#D97755" cx="266.667" cy="173.238" r="10.146" /><circle  fill="#D97755" cx="133.333" cy="173.238" r="10.146" /><path  d="M267,189v-50h0.18c-0.184-37-29.986-59-66.325-59h-1.521c-36.338,0-66.141,22-66.325,59H133v50l12,64.999    c0,0,37.999,26.001,45,26.001h20.189c7.001,0,44.811-26,44.811-26L267,189z" class="SkinColor" fill="#F7CCBA"  /></g><g id="Beard"><path  d="M214.04,280l-0.072-0.123c-0.072-0.263-0.21-0.492-0.407-0.692L199.674,266.5l-13.234,12.645    c-0.2,0.225-0.347,0.471-0.419,0.746L185.96,280h0.045c-0.018,0-0.045,0.19-0.045,0.294c0,7.754,6.286,14.04,14.04,14.04    s14.04-6.286,14.04-14.04c0-0.107-0.033-0.294-0.051-0.294H214.04z" class="BeardColor" fill="#5D2300"  /></g><g id="Nose"><path  fill="#D97755" d="M200,169.667c-1.524,3.256-8.023,25.447-7.442,36.582c0.418,8.008,4.393,9.769,7.442,10.25    c3.239-0.481,7.024-2.242,7.442-10.25C208.022,195.114,201.046,172.923,200,169.667z" /></g><g id="Eye"><circle  fill="#FFFFFF" cx="230" cy="175" r="12" /><circle  cx="230.167" cy="173.238" r="4.5" class="EyeColor" fill="#1860B5"  /><circle  fill="#FFFFFF" cx="170" cy="175" r="12" /><circle  cx="169.945" cy="173.238" r="4.5" class="EyeColor" fill="#1860B5"  /></g><g id="Eyebrow"><polygon  points="176.389,155.651 189.934,150.104 155.691,147" /><polygon  points="223.611,155.651 210.066,150.104 244.309,147" /></g><g id="Glass"><rect  x="188.508" y="165" width="22.984" height="5.033" /><path  fill="none" stroke="#000000" stroke-width="3" stroke-linecap="round" stroke-linejoin="round" stroke-miterlimit="10" d="M211.492,173.238c0,0-0.508-9.738,0-11.405C212,160.167,234,155.925,249.333,165c0,0,8.167,3.183,3.667,10" /><path  fill="none" stroke="#000000" stroke-width="3" stroke-linecap="round" stroke-linejoin="round" stroke-miterlimit="10" d="M188.232,173.238c0,0,0.508-9.738,0-11.405c-0.508-1.667-22.508-5.908-37.841,3.167c0,0-7.64,4.683-3.14,11.5" /></g><g id="Hair"><path  fill="#845F41" d="M281.925,96.463c0,0-10.925-22.188-36.925-15.333v-0.001c0,0-6.501,1.873-19.448-1.317    c-5.177-1.275-15.013-4.092-25.351-4.366c-10.338-0.274-20.388,3.09-25.586,4.366C161.622,83.003,155,81.129,155,81.129v0.001    c-26-6.855-36.981,15.333-36.981,15.333c-16.356,35.722,9.628,54.036,9.628,54.036c2.274,2.845,4.066,5.255,5.353,7.301V139    c0-36.451,29.883-59,66.333-59H200h0.667C237.117,80,267,102.55,267,139v18.915c1.291-2.07,3.06-4.517,5.368-7.416    C272.368,150.499,298.223,132.185,281.925,96.463z" /></g><g id="Top"><path  fill="#51C2F4" d="M297.05,263.331c8.108,2.711,24.88,25.16,37.536,24.513c10.238-0.524,3.952-11.812,3.952-11.812     C330.565,264.252,297.05,263.331,297.05,263.331z" /><path  fill="#51C2F4" d="M338.954,183.096c13.184-3.813,6.439-10.195,6.439-10.195c-7.359-5.435-14.996,10.845-14.996,10.845     S332.285,185.025,338.954,183.096z" /><path  fill="#51C2F4" d="M312.493,244.604c0,0,1.876,0.953,8.16,3.903c9.935,4.663,10.274-2.268,10.274-2.268     C328.93,237.311,312.493,244.604,312.493,244.604z" /><path  fill="#51C2F4" d="M346.411,262.271c-0.094-5.559-27.954-4.968-27.954-4.968s15.069,7.185,19.571,7.833     C348.28,266.613,346.411,262.271,346.411,262.271z" /><path  fill="#51C2F4" d="M294.535,255.848c16.09-1.001,10.103-9.243,10.103-9.243c-1.932-4.341-14.309-6.637-29.031-7.812     c32.272-1,63.394-3.648,66.558-12.773c2.385-6.878-11.102-7.749-30.511-5.766c22.001-4.551,38.593-9.734,37.948-15.68     c-1.681-15.503-61.079,4.023-101.683,19.266l0,0c0,0,0.432-0.517,1.072-1.332c34.711-13.391,82.115-30.759,74.579-40.594     c-10.932-14.27-50.888,11.457-78.823,32.33c-0.81,0.356-1.654,0.738-2.527,1.145c13.317-9.923,27.368-29.893,20.78-34.262     c-11.069-7.341-30.028,38.208-48.966,48.875c-5.197,3-8.925,5.551-9.435,5.997c0,0-8.463,6.724-2.179,7.326     c3.612,0.346,9.451-0.535,18.417,0.423c12.063,3.657,29.303,10.508,50.077,23.174c20.393,12.435,25.307,0.463,5.011-10.541     c0,0-3.836-2.557-11.359-5.676C276.794,253.844,288.351,256.232,294.535,255.848z" /><path  fill="#A2DDF2" d="M227.979,237.796c0,0,57.635,16.127,58.894,9.952C288.401,240.249,268.276,238.132,227.979,237.796z" /><path  fill="#A2DDF2" d="M242.891,224.873c0,0,46.902-35.773,54.334-27.862C304.657,204.922,251.24,222.719,242.891,224.873z" /><path  fill="#A2DDF2" d="M321.419,215.154c8.098,3.305,6.476,17.266-50.979,12.371C270.44,227.525,311.211,210.988,321.419,215.154    z" /><path  fill="none" stroke="#000000" stroke-width="4" stroke-linecap="round" stroke-linejoin="round" stroke-miterlimit="10" d="M186.562,226.911c0,0,25.104,8.149,7.504,30.169" /></g></svg>