<?xml version="1.0" encoding="iso-8859-1"?><svg id="MegFaceHypnotized" version="1.1" xmlns="http://www.w3.org/2000/svg" xmlns:xlink="http://www.w3.org/1999/xlink" xml:space="preserve" x="0px" y="0px" viewbox="0 0 400 400" width="400" height="400" ><g id="Face"><g  /><g  /><circle  cx="133.333" cy="173.238" r="20" class="SkinColor" fill="#F7CCBA"  /><circle  cx="266.667" cy="173.238" r="20" class="SkinColor" fill="#F7CCBA"  /><circle  fill="#D97755" cx="266.667" cy="173.238" r="10.146" /><circle  fill="#D97755" cx="133.333" cy="173.238" r="10.146" /><path  d="M200.667,80h-1.333C162.883,80,133,102.549,133,139v58c4,22.105,17.193,45.733,27.333,55.5    c24.917,24,36.479,22.833,39.667,22.833c3.63,0,17.083,0.265,39.667-22.833C249.509,242.433,263,219.105,267,197v-58    C267,102.549,237.117,80,200.667,80z" class="SkinColor" fill="#F7CCBA"  /></g><g id="Beard"><path  d="M246.378,218.938h-92.756c-3.427-25-14.622-23.75-20.622-25.275v20.275c0,36.451,23.75,66,67,66    s67-29.549,67-66v-20.275C261,195.188,249.799,193.938,246.378,218.938z M245.37,245.317c0,0-14.203,22.926-45.65,23.844    c-31.496-0.918-45.053-23.74-45.053-23.74c0.061-4.879-0.117-16.484-0.457-20.484h91.581    C245.452,228.938,245.309,240.438,245.37,245.317z" class="BeardColor" fill="#5D2300"  /></g><g id="Nose"><path  fill="#D97755" d="M209.45,199.181c0,0-8.677-27.241-9.45-29.514c-1.022,2.063-10.857,29.741-10.857,29.741    c-3.107,0.223-17.628,14.594,10.221,15.092C223.438,214.931,216.305,199.397,209.45,199.181z" /></g><g id="Hair"><path  fill="#845F41" d="M282.667,125.667c0.427-40.667-19-55.375-43.333-60.042c-24.333-4.667-48.856-0.774-68.083,5.708    c0,0-12.583-14.333-30.583,1.333c-15.842,13.789-26,51.667-14.667,80.571l13.333,20c0,0-1.333-47.905,9-47.571    c0,0-3.195-15.492,6.568-20.981c4.084-0.965,9.045-1.031,15.099-0.019c2.714,8.402,29.695,13.241,39,13.241    c9.269,0,35.292,1.067,47.652,13.441l1.868,36.984L267,155.704v-0.022l6-0.85C273,154.833,282.439,147.344,282.667,125.667z" /><g  /></g><g id="Top"><path  fill="none" stroke="#000000" stroke-width="4" stroke-linecap="round" stroke-linejoin="round" stroke-miterlimit="10" d="M175.873,163.176c0,0,7.212,1.967,5.682-5.791c0,0-2.404-7.102-9.398-2.404c-6.542,4.395-6.921,15.978,5.245,17.702   c13.113,1.858,14.096-14.929,10.6-20.652c-2.222-3.637-14.861-15.298-25.678-0.874c-13.147,17.53,2.076,28.629,6.337,29.831" /><path  fill="none" stroke="#000000" stroke-width="4" stroke-linecap="round" stroke-linejoin="round" stroke-miterlimit="10" d="M223.592,159.783c0,0-5.24-5.331-7.826,2.141c0,0-1.5,7.347,6.908,6.81c7.865-0.502,14.027-10.318,4.384-17.935   c-10.393-8.21-19.697,5.798-19.559,12.503c0.088,4.261,5.133,20.7,21.744,13.688c20.187-8.523,12.626-25.779,9.549-28.963" /><path  fill="none" stroke="#000000" stroke-width="4" stroke-linecap="round" stroke-miterlimit="10" d="M167.546,236.541   c0,0,3.471,12.247,5.093,8.431c1.622-3.816,7.105-11.232,9.465-7.034c2.36,4.198,8.542,9.123,13.176,2.709   c4.634-6.415,10.922-6.514,13.798-2.457c2.876,4.057,5.726,10.995,8.664,5.237c2.939-5.758,9.85-9.737,11.329-4.205   c1.478,5.532,2.737,0.263,2.737,0.263" /><path  fill="#FFD110" stroke="#680505" stroke-width="4" stroke-linecap="round" stroke-linejoin="round" d="M285.813,122.487    c0,0,12.938-3.987,5.188-12.987c-8.964-10.41-168.5-37.25-182.75,3c0,0-2.583,9.5,14.083,12.5c0,0-40.333,3.25-16.833-24.25    c0,0,25.5-23.75,103.5-15.75c0,0,98,7.316,92.5,29.908C301.5,114.908,300.338,125.653,285.813,122.487z" /><polygon  fill="#FFD110" stroke="#680505" stroke-width="4" points="120,64.667 121,84.5 106,95.881 123.188,98.758 128,121.25     138,98 157.084,101.407 143.479,86.192 153.333,69.667 135.583,79.331" /><polygon  fill="#FFD110" stroke="#680505" stroke-width="4" points="72.476,120.899 70.907,132.556 63.685,138.036 71.96,139.421     79.939,150.25 80.711,136.16 91.262,130.756 78.145,130.026" /><polygon  fill="#FFD110" stroke="#680505" stroke-width="4" points="327.07,74.545 317.845,81.842 308.843,80.769 313.835,87.512     312.055,100.845 322.396,91.244 333.74,94.684 324.81,85.049" /><circle  fill="#FFD110" stroke="#680505" stroke-width="4" stroke-linecap="round" stroke-linejoin="round" cx="274.25" cy="99.75" r="11.417" /></g></svg>