<?xml version="1.0" encoding="iso-8859-1"?><svg id="MegFaceIn the Dark" version="1.1" xmlns="http://www.w3.org/2000/svg" xmlns:xlink="http://www.w3.org/1999/xlink" xml:space="preserve" x="0px" y="0px" viewbox="0 0 400 400" width="400" height="400" ><g id="Face"><g  /><g  /><circle  cx="133.333" cy="173.238" r="20" /><circle  cx="266.667" cy="173.238" r="20" /><path  d="M200.667,80H200h-0.667C162.883,80,133,102.549,133,139l4,48c-15.5,11.5-14.748,29.741-5.667,40.5    c11.91,14.111,44.842,51.939,69.251,51.435c22.727-0.469,56.993-38.296,68.083-51.435c9.081-10.759,10.083-29-5.667-40.5l4-48    C267,102.549,237.117,80,200.667,80z" /></g><g id="Hair"><path  fill="none" stroke="#000000" stroke-width="3" stroke-linecap="round" stroke-linejoin="round" stroke-miterlimit="10" d="M234.244,75.5c0,0-7.244,19.5,24.756,28c0,0,25.5,3,0,29" /><path  fill="none" stroke="#000000" stroke-width="3" stroke-linecap="round" stroke-linejoin="round" stroke-miterlimit="10" d="M138.5,148.5c0,0-22-8.5-9-38.5c0,0,3.391-10.5-5.055-16" /><path  fill="none" stroke="#000000" stroke-width="3" stroke-linecap="round" stroke-linejoin="round" stroke-miterlimit="10" d="M145.5,119.5c0,0-10.5-19.5,9-31.5" /><path  fill="none" stroke="#000000" stroke-width="3" stroke-linecap="round" stroke-linejoin="round" stroke-miterlimit="10" d="M258.5,148.5c0,0,2.153-15.225,14.5-16" /><path  fill="none" stroke="#000000" stroke-width="3" stroke-linecap="round" stroke-linejoin="round" stroke-miterlimit="10" d="M174.5,102.5c0,0-13.5,2.762-7.5-36.619" /><path  fill="none" stroke="#000000" stroke-width="3" stroke-linecap="round" stroke-linejoin="round" stroke-miterlimit="10" d="M185,58.5c2,16,28.5,14,28.5,14s15.489-1.5,6.744,12" /><path  fill="none" stroke="#000000" stroke-width="3" stroke-linecap="round" stroke-linejoin="round" stroke-miterlimit="10" d="M184.333,92c0,0-10.667-7.572-4-22.119" /></g><g id="Top"><circle  fill="#FFFFFF" cx="169.945" cy="175" r="15" /><circle  fill="#FFFFFF" cx="230.167" cy="175" r="12" /><circle  cx="229.744" cy="175" r="4.5" /><circle  cx="169.522" cy="175" r="4.5" /><path  fill="#D3381A" d="M175.75,244.98c0,0,8.25-12.411,25.917-11.978c17.667,0.432,29.333,4.758,23.667,13.842   C219.667,255.928,177.048,261.75,175.75,244.98z" /><path  fill="#FFFFFF" d="M234.113,186.336c0,0-9.613,16.664,0.887,24.289c9.146,6.642,12.417-3.25,10.375-13   C243.048,186.513,238.893,176.006,234.113,186.336z" /><path  d="M282.333,124.333L287,112.058c0,0-11.38-7.515,0-11.725c17.121-6.333,23.553,20.707,13.222,17.917   C289.891,115.459,282.333,124.333,282.333,124.333z" /><path  d="M116.064,224.261L90.215,222.7c0,0-7.23,9.708-14.321,0.624c-10.668-13.666,23.259-38.825,19.758-10.348   C94.628,221.307,116.064,224.261,116.064,224.261z" /><path  fill="#9E9E9E" d="M172.973,243.213c0,0-15.645,2.018-15.909-11.581c0,0-20.064-1.429-8.73-17.298   c0,0,10.612-18.333,25.648-0.667c0,0,11.256,18.667-9.364,20.281C164.617,233.948,160.895,240.124,172.973,243.213z" /><circle  fill="#9E9E9E" cx="147.164" cy="209.169" r="7.164" /><path  fill="#FFFFFF" d="M212.235,233.848c-0.021,0.014-4.336,8.152,1.098,7.652c4.984-0.459,4.834,1.818,7.455-1.5   c1.237-1.566,0.135-3.932,0.135-3.932S215.868,233.695,212.235,233.848z" /><path  fill="#FFFFFF" d="M203.385,233.057c0,0,3.8,8.69-7.051,9.276c-3.693,0.2-18.702,2.75-19.286,1.833   c-0.583-0.917,2.329-3.321,2.329-3.321S186.701,232.142,203.385,233.057z" /></g></svg>