<?xml version="1.0" encoding="iso-8859-1"?><svg id="MegFaceSurprised" version="1.1" xmlns="http://www.w3.org/2000/svg" xmlns:xlink="http://www.w3.org/1999/xlink" xml:space="preserve" x="0px" y="0px" viewbox="0 0 400 400" width="400" height="400" ><g id="Face"><g  /><g  /><circle  cx="133.333" cy="173.238" r="20" class="SkinColor" fill="#F7CCBA"  /><circle  cx="266.667" cy="173.238" r="20" class="SkinColor" fill="#F7CCBA"  /><circle  fill="#D97755" cx="266.667" cy="173.238" r="10.146" /><circle  fill="#D97755" cx="133.333" cy="173.238" r="10.146" /><path  d="M200.667,80H200h-0.667C162.883,80,133,102.549,133,139l4,48c-15.5,11.5-14.748,29.741-5.667,40.5    c11.91,14.111,44.842,51.939,69.251,51.435c22.727-0.469,56.993-38.296,68.083-51.435c9.081-10.759,10.083-29-5.667-40.5l4-48    C267,102.549,237.117,80,200.667,80z" class="SkinColor" fill="#F7CCBA"  /></g><g id="Beard"><rect  x="157" y="221" width="86" height="10" class="BeardColor" fill="#5D2300"  /><path  d="M157,273.05V221h10v52.05c0,2.734-2.216,4.95-4.95,4.95h-0.1C159.216,278,157,275.784,157,273.05z" class="BeardColor" fill="#5D2300"  /><path  d="M233,273.05V221h10v52.05c0,2.734-2.216,4.95-4.95,4.95h-0.1C235.216,278,233,275.784,233,273.05z" class="BeardColor" fill="#5D2300"  /></g><g id="Nose"><ellipse  fill="#D97755" cx="200" cy="205.875" rx="11.492" ry="8.625" /><ellipse  fill="#D97755" cx="200" cy="195.375" rx="4.5" ry="10.125" /></g><g id="Eye"><ellipse  fill="#FFFFFF" cx="230" cy="173.875" rx="14" ry="7.875" /><ellipse  fill="#FFFFFF" cx="170" cy="173.875" rx="14" ry="7.875" /><circle  cx="230.167" cy="173.238" r="3.5" class="EyeColor" fill="#1860B5"  /><circle  cx="169.945" cy="173.238" r="3.5" class="EyeColor" fill="#1860B5"  /></g><g id="Eyebrow"><path  d="M212.392,149.083c0,0,31.5,3.083,29.083-7.583c0,0-0.917-4.667-7.417-5.334    C234.059,136.166,237.892,145.667,212.392,149.083z" /><path  d="M187.608,149.083c0,0-31.5,3.083-29.083-7.583c0,0,0.917-4.667,7.417-5.334    C165.941,136.166,162.108,145.667,187.608,149.083z" /></g><g id="Glass"><rect  x="188.508" y="165" width="22.984" height="5.033" /><polygon  fill="none" stroke="#000000" stroke-width="3" stroke-linecap="round" stroke-linejoin="round" stroke-miterlimit="10" points="254.115,159.5 211.115,159.5 211.115,200.083 254.115,198.924" /><polygon  fill="none" stroke="#000000" stroke-width="3" stroke-linecap="round" stroke-linejoin="round" stroke-miterlimit="10" points="145.885,159.5 188.885,159.5 188.885,200.083 145.885,198.924" /></g><g id="Hair"><path  fill="#845F41" d="M151.663,102.037c-7.479,5.741-1.512,21.741-10.711,30.872c-3.96,3.934-4.493,27.592-4.493,27.592      l-14.017-5.945c-1.274-5.966-9.109-51.555,15.311-74.163c14.013-16.273,38.548-27.517,56.187-27.181      c19.754,0.375,35.56,8.997,35.56,8.997c46.023,7.292,49.5,44.644,44.427,69.528c-0.761,11.743-0.376,20.806-0.376,20.806      l-14.692,7.959c0,0-0.534-23.657-4.494-27.59c-9.2-9.132-3.232-25.133-10.711-30.874c-10.055-7.719-30.987,2.086-45.995,2.086      C182.651,104.122,161.718,94.318,151.663,102.037z" /></g><g id="Top"><path  fill="#680505" d="M84.284,251.829l-33.37,65.979l77.928-42.907c0,0-30.691-24.209-18.724-46.2l-39.82-27.407L84.284,251.829z" /><path  fill="#FFD110" d="M105.619,227.461L66.22,213.17l20.943,26.924l-23.321,63.506l54.653-30.397   C118.495,273.202,99.476,262.536,105.619,227.461z" /><path  fill="#680505" d="M101.634,232.282l-65.853-22.54c0,0,53.216,54.531,5.158,72.983c0,0,55.716-15.537,42.447,14.295   c-13.269,29.832-11.977,46.778-11.977,46.778l61.348-48.101C132.757,295.697,80.85,272.52,101.634,232.282z" /><path  d="M188.047,255.757c-11.432,0-19.248-6.433-14.741-12.216c4.504-5.78,12.919-10.726,28.496-10.922   c0,0,15.044-0.498,24.629,10.587c5.036,5.824-2.749,12.552-14.465,12.552H188.047z" /><path  fill="#822006" d="M184.227,249.974c1.762,1.639,4.686,3.026,8.155,3.026h14.831c3.261,0,6.022-1.122,7.802-2.593   C209.815,248.283,198.411,244.985,184.227,249.974z" /><path  fill="#FFD110" d="M97.209,234.811l-50.402-9.095c0,0,32.282,10.917,26.319,29.724c-5.962,18.807-13.174,20.133-13.174,20.133   s35.1-18.06,35.878,10.235c0.348,12.648-14.538,40.732-14.538,40.732l36.81-32.773C118.101,293.768,81.225,282.251,97.209,234.811z" /></g></svg>