<?xml version="1.0" encoding="iso-8859-1"?><svg id="MegFaceSurprised" version="1.1" xmlns="http://www.w3.org/2000/svg" xmlns:xlink="http://www.w3.org/1999/xlink" xml:space="preserve" x="0px" y="0px" viewbox="0 0 400 400" width="400" height="400" ><g id="Face"><g  /><g  /><circle  cx="133.333" cy="173.238" r="20" class="SkinColor" fill="#F7CCBA"  /><circle  cx="266.667" cy="173.238" r="20" class="SkinColor" fill="#F7CCBA"  /><circle  fill="#D97755" cx="266.667" cy="173.238" r="10.146" /><circle  fill="#D97755" cx="133.333" cy="173.238" r="10.146" /><path  d="M267,189v-50h0.18c-0.184-37-29.986-59-66.325-59h-1.521c-36.338,0-66.141,22-66.325,59H133v50l12,64.999    c0,0,37.999,26.001,45,26.001h20.189c7.001,0,44.811-26,44.811-26L267,189z" class="SkinColor" fill="#F7CCBA"  /></g><g id="Beard"><path  d="M214.04,280l-0.072-0.123c-0.072-0.263-0.21-0.492-0.407-0.692L199.674,266.5l-13.234,12.645    c-0.2,0.225-0.347,0.471-0.419,0.746L185.96,280h0.045c-0.018,0-0.045,0.19-0.045,0.294c0,7.754,6.286,14.04,14.04,14.04    s14.04-6.286,14.04-14.04c0-0.107-0.033-0.294-0.051-0.294H214.04z" class="BeardColor" fill="#5D2300"  /></g><g id="Nose"><path  fill="#D97755" d="M200,169.667c-1.524,3.256-8.023,25.447-7.442,36.582c0.418,8.008,4.393,9.769,7.442,10.25    c3.239-0.481,7.024-2.242,7.442-10.25C208.022,195.114,201.046,172.923,200,169.667z" /></g><g id="Eye"><circle  fill="#FFFFFF" cx="230" cy="175" r="12" /><circle  cx="230.167" cy="173.238" r="4.5" class="EyeColor" fill="#1860B5"  /><circle  fill="#FFFFFF" cx="170" cy="175" r="12" /><circle  cx="169.945" cy="173.238" r="4.5" class="EyeColor" fill="#1860B5"  /></g><g id="Eyebrow"><polygon  points="176.389,155.651 189.934,150.104 155.691,147" /><polygon  points="223.611,155.651 210.066,150.104 244.309,147" /></g><g id="Glass"><rect  x="188.508" y="165" width="22.984" height="5.033" /><path  fill="none" stroke="#000000" stroke-width="3" stroke-linecap="round" stroke-linejoin="round" stroke-miterlimit="10" d="M211.492,173.238c0,0-0.508-9.738,0-11.405C212,160.167,234,155.925,249.333,165c0,0,8.167,3.183,3.667,10" /><path  fill="none" stroke="#000000" stroke-width="3" stroke-linecap="round" stroke-linejoin="round" stroke-miterlimit="10" d="M188.232,173.238c0,0,0.508-9.738,0-11.405c-0.508-1.667-22.508-5.908-37.841,3.167c0,0-7.64,4.683-3.14,11.5" /></g><g id="Hair"><path  fill="#845F41" d="M281.925,96.463c0,0-10.925-22.188-36.925-15.333v-0.001c0,0-6.501,1.873-19.448-1.317    c-5.177-1.275-15.013-4.092-25.351-4.366c-10.338-0.274-20.388,3.09-25.586,4.366C161.622,83.003,155,81.129,155,81.129v0.001    c-26-6.855-36.981,15.333-36.981,15.333c-16.356,35.722,9.628,54.036,9.628,54.036c2.274,2.845,4.066,5.255,5.353,7.301V139    c0-36.451,29.883-59,66.333-59H200h0.667C237.117,80,267,102.55,267,139v18.915c1.291-2.07,3.06-4.517,5.368-7.416    C272.368,150.499,298.223,132.185,281.925,96.463z" /></g><g id="Top"><path  fill="#680505" d="M84.284,251.829l-33.37,65.979l77.928-42.907c0,0-30.691-24.209-18.724-46.2l-39.82-27.407L84.284,251.829z" /><path  fill="#FFD110" d="M105.619,227.461L66.22,213.17l20.943,26.924l-23.321,63.506l54.653-30.397   C118.495,273.202,99.476,262.536,105.619,227.461z" /><path  fill="#680505" d="M101.634,232.282l-65.853-22.54c0,0,53.216,54.531,5.158,72.983c0,0,55.716-15.537,42.447,14.295   c-13.269,29.832-11.977,46.778-11.977,46.778l61.348-48.101C132.757,295.697,80.85,272.52,101.634,232.282z" /><path  d="M188.047,255.757c-11.432,0-19.248-6.433-14.741-12.216c4.504-5.78,12.919-10.726,28.496-10.922   c0,0,15.044-0.498,24.629,10.587c5.036,5.824-2.749,12.552-14.465,12.552H188.047z" /><path  fill="#822006" d="M184.227,249.974c1.762,1.639,4.686,3.026,8.155,3.026h14.831c3.261,0,6.022-1.122,7.802-2.593   C209.815,248.283,198.411,244.985,184.227,249.974z" /><path  fill="#FFD110" d="M97.209,234.811l-50.402-9.095c0,0,32.282,10.917,26.319,29.724c-5.962,18.807-13.174,20.133-13.174,20.133   s35.1-18.06,35.878,10.235c0.348,12.648-14.538,40.732-14.538,40.732l36.81-32.773C118.101,293.768,81.225,282.251,97.209,234.811z" /></g></svg>