<?xml version="1.0" encoding="iso-8859-1"?><svg id="MegFaceChuckle" version="1.1" xmlns="http://www.w3.org/2000/svg" xmlns:xlink="http://www.w3.org/1999/xlink" xml:space="preserve" x="0px" y="0px" viewbox="0 0 400 400" width="400" height="400" ><g id="Face"><g  /><g  /><circle  cx="133.333" cy="173.238" r="20" class="SkinColor" fill="#F7CCBA"  /><circle  cx="266.667" cy="173.238" r="20" class="SkinColor" fill="#F7CCBA"  /><circle  fill="#D97755" cx="266.667" cy="173.238" r="10.146" /><circle  fill="#D97755" cx="133.333" cy="173.238" r="10.146" /><path  d="M267,189v-50h0.18c-0.184-37-29.986-59-66.325-59h-1.521c-36.338,0-66.141,22-66.325,59H133v50l12,64.999    c0,0,37.999,26.001,45,26.001h20.189c7.001,0,44.811-26,44.811-26L267,189z" class="SkinColor" fill="#F7CCBA"  /></g><g id="Beard"><path  d="M214.04,280l-0.072-0.123c-0.072-0.263-0.21-0.492-0.407-0.692L199.674,266.5l-13.234,12.645    c-0.2,0.225-0.347,0.471-0.419,0.746L185.96,280h0.045c-0.018,0-0.045,0.19-0.045,0.294c0,7.754,6.286,14.04,14.04,14.04    s14.04-6.286,14.04-14.04c0-0.107-0.033-0.294-0.051-0.294H214.04z" class="BeardColor" fill="#5D2300"  /></g><g id="Nose"><path  fill="#D97755" d="M200,175.508c-1.524,2.12-8.023,16.568-7.442,23.818c0.418,5.214,4.393,6.361,7.442,6.674    c3.239-0.313,7.024-1.459,7.442-6.674C208.022,192.076,201.046,177.628,200,175.508z" /></g><g id="Eye"><path  fill="#FFFFFF" d="M215.02,172.768c0,0,11.276-30.335,27.959,1.509C242.979,174.277,228.169,160.544,215.02,172.768z" /><path  fill="#FFFFFF" d="M186.979,172.768c0,0-11.276-30.335-27.959,1.509C159.02,174.277,173.831,160.544,186.979,172.768z" /><path  d="M173.895,165.777c0-2.209-1.791-4-4-4c-2.209,0-4,1.791-4,4c0,1.381,0.7,2.598,1.764,3.317    c1.736-0.654,3.654-1.156,5.686-1.327C173.686,167.179,173.895,166.506,173.895,165.777z" class="EyeColor" fill="#1860B5"  /><path  d="M228.358,167.745c0.332-0.583,0.537-1.249,0.537-1.968c0-2.209-1.791-4-4-4c-2.209,0-4,1.791-4,4    c0,1.069,0.426,2.035,1.109,2.753C224.18,167.816,226.322,167.607,228.358,167.745z" class="EyeColor" fill="#1860B5"  /></g><g id="Eyebrow"><path  d="M188.125,145c0,0-10.219-21.702-29.25-7.25c0,0,14.292-10.5,20.792,10.75L188.125,145z" /><path  d="M211.875,145c0,0,10.219-21.702,29.25-7.25c0,0-17.542-5.32-19.875,10.75L211.875,145z" /></g><g id="Glass"><rect  x="188.508" y="165" width="22.984" height="5.033" /><path  fill="none" stroke="#000000" stroke-width="3" stroke-linecap="round" stroke-linejoin="round" stroke-miterlimit="10" d="M211.492,173.238c0,0-0.508-9.738,0-11.405C212,160.167,234,155.925,249.333,165c0,0,8.167,3.183,3.667,10" /><path  fill="none" stroke="#000000" stroke-width="3" stroke-linecap="round" stroke-linejoin="round" stroke-miterlimit="10" d="M188.232,173.238c0,0,0.508-9.738,0-11.405c-0.508-1.667-22.508-5.908-37.841,3.167c0,0-7.64,4.683-3.14,11.5" /></g><g id="Hair"><path  fill="#845F41" d="M281.925,96.463c0,0-10.925-22.188-36.925-15.333v-0.001c0,0-6.501,1.873-19.448-1.317    c-5.177-1.275-15.013-4.092-25.351-4.366c-10.338-0.274-20.388,3.09-25.586,4.366C161.622,83.003,155,81.129,155,81.129v0.001    c-26-6.855-36.981,15.333-36.981,15.333c-16.356,35.722,9.628,54.036,9.628,54.036c2.274,2.845,4.066,5.255,5.353,7.301V139    c0-36.451,29.883-59,66.333-59H200h0.667C237.117,80,267,102.55,267,139v18.915c1.291-2.07,3.06-4.517,5.368-7.416    C272.368,150.499,298.223,132.185,281.925,96.463z" /></g><g id="Top"><path  d="M188.375,240.882c0,0,14.792,8.042,39.125-17.125c0,0,3.978,19.982,6.875,19.875   C234.375,243.632,208.125,271.132,188.375,240.882z" /><path  fill="#FFFFFF" d="M218.39,242.987c7.86-5.418,8.071-7.103,8.815-8.215l-1.081-5.641c0,0-19,20.375-30.75,16    c0,0,0.867,1.918,4.138,3.917C201.792,250.298,207.438,250.382,218.39,242.987z" /><path  fill="#FFFFFF" d="M228.018,238.98c-14.726,12.652-21.831,12.495-22.48,12.707c5.678,1.325,13.768,0.319,24.38-7.847    L228.018,238.98z" /></g></svg>