<?xml version="1.0" encoding="iso-8859-1"?><svg id="MegFaceSkull" version="1.1" xmlns="http://www.w3.org/2000/svg" xmlns:xlink="http://www.w3.org/1999/xlink" xml:space="preserve" x="0px" y="0px" viewbox="0 0 400 400" width="400" height="400" ><g id="Bottom"><rect  fill="#0E4F77" width="400" height="400" /><polyline  fill="none" stroke="#F4E419" stroke-width="6" stroke-miterlimit="10" points="339,0 276.813,48 297,81 12,395" /><polyline  fill="none" stroke="#F4E419" stroke-width="6" stroke-miterlimit="10" points="100.667,391.333 121.333,348    100.667,297.311" /><polyline  fill="none" stroke="#F4E419" stroke-width="6" stroke-linecap="square" stroke-linejoin="bevel" stroke-miterlimit="10" points="311.333,22 318.667,63.667 360.667,115 365.333,175 382,221.006" /><polyline  fill="none" stroke="#F4E419" stroke-width="6" stroke-linecap="square" stroke-linejoin="bevel" stroke-miterlimit="10" points="363.218,147.802 325.333,242.694 363.218,323.333" /><polyline  fill="none" stroke="#F4E419" stroke-width="6" stroke-linecap="square" stroke-linejoin="bevel" stroke-miterlimit="10" points="130,265 83,265 24,280" /><line  fill="none" stroke="#F4E419" stroke-width="6" stroke-linecap="square" stroke-linejoin="bevel" stroke-miterlimit="10" x1="73" y1="267.221" x2="63" y2="300.333" /></g><g id="Face"><g  /><g  /><path  fill="#F4E419" d="M273.833,147.79c0,0,8.811-62.79-61.83-68.79c-118.376-10.054-4.42,195.552-4.42,195.552    c22.5,0,76.586,13.448,69.083-34.552c-1.566-10.018-2.667-52.21-2.667-52.21c11,0,19.917-8.954,19.917-20    C293.917,156.745,284.833,147.79,273.833,147.79z" /><path  fill="#FFFFFF" d="M191.333,79h-1.333C153.548,79,124,108.101,124,144.552v7.255c-11,0.18-19.667,9.05-19.667,19.983    c0,10.933,14.667,23.787,25.667,23.967c0,0-8.894,44.288-3.333,61.538c8.202,25.441,46.8,13.908,84.146,9.927    C262.555,261.706,227.783,79,191.333,79z" /><circle  cx="133.333" cy="173.238" r="20" /><circle  cx="266.667" cy="173.238" r="20" /><path  d="M266.991,139c-0.184-37-29.986-59-66.325-59H200h-0.667c-36.338,0-66.141,22-66.325,59H133v112.667    C133,267.315,145.976,280,161.982,280h76.036C254.024,280,267,267.315,267,251.667V139H266.991z" /></g><g id="Hair"><path  fill="#F4E419" d="M108.076,73.416c1.406-18,16.804-13.61,21.876-19.189c5.014-5.518,12.969-20.823,25.009-16.811      c15.521,10,23.647-6.264,32.176-5.26c8.528,1.002,26.132-3.966,36.117-3.512c11.037,0.502,16.051,7.526,21.068,7.526      c5.018,0,13.544-2.51,21.069,1.504c7.525,4.014,19.591,7.743,20.591,18.743c4.014,5.017,12.015,2.326,16.531,4.332      c4.515,2.008,12.039,3.009,16.554,11.537c3.71,7.01,0.501,12.541,6.02,18.059c5.519,5.518,24.896,5.072,20.896,28.072      c2.006,8.528,15.724,11.054,16.224,21.589c0.501,10.534-14.724,26.649,9.385,40.411c11.391,13,6.758,21.208,2.391,29.5      c-5.017,9.533-11,12.257-11,19.28c0,7.024,11.262,13.144,8.253,22.173c-3.01,9.029-13.203,6.246-12.542,11.536      c1.001,8.022-6.68,16.681-14.547,12.54c0,0,18.406-90.04,0.13-124.076S279.825,61.667,250,55.667S123.728,57.436,108.076,73.416      z" /><path  fill="#FFFFFF" d="M159.527,47.156c-8.53-1.004-16.656,15.26-32.176,5.26c-12.039-4.013-19.994,11.293-25.009,16.811      c-5.072,5.579-20.47,1.189-21.876,19.189c-5.594,19-17.538,17.4-21.928,22.667c-5.015,6.021-6.359,10.317-8.367,21.852      c-2.006,11.537-7.022,11.537-11.537,19.061c-3.285,5.476-3.511,10.033,3.01,18.562c7.016,9.174-5.069,14.537-9.773,23.358      c-4.013,7.524-12.516,22,4.5,35.5c5.017,6.521-1.982,17.809-7.5,23.83c-5.517,6.02-9.516,15.67,3.242,23.156      c11.591,3.181,3.251,8.161,5.258,14.181c2.007,6.021,10.794,6.887,16.312,0.367c3.695-4.366,7.998-3.782,13.188,5.299      c0,0-9.871-15.749-2.871-23.749S69,164,69,164l32.667-56.5L159.527,47.156z" /><path  d="M284.5,297.5c-5.833,3.333,3.064-12.29-4.506-9.449c-10.16,3.81-19.062-3.01-19.062-3.01s13.042-0.502,12.415-8.527      c-1.347-14.014-7.934-6.833-11.697-18.872c-3.157-10.1,11.568-15.566,2.099-18.881c-7.524-2.634-6.622-11.816-3.2-15.334      c4.013-7.526,7.975-9.405,0.45-16.426c-7.525-7.023-5.586-12.753-2.074-19.275c3.511-6.52,10.255-15.879,5.741-19.392      c-4.514-3.512-16.169-16.64-15.667-25.168c-19-4.665-8.007-19.646-15.156-22.656c-8.087-3.406,0.505-8.763-8.529-13.545      c-8.527-4.514-19.483,0-28.512,0c-14,0-32.686-8.026-40.71,14.547c-4.321,12.153-19.043,9.497-17.031,21.654      c2.883,17.433-9.705,23.509-4.061,31.787c5.644,8.277,3.817,16.618-1.073,21.133s-0.57,8.134,5.073,17.165      c5.643,9.029-4.511,10.98-0.75,17c3.763,6.02,7.731,14.972,0.583,23.25c-11,11,2.333,18.125-3.309,23.015      c-5.644,4.892-17.191,7.651-4.524,20.151c0,0-13.032-3.597-19.554-14.634c-4.6-7.784-10.032-1.003-13.794,3.511      c-3.763,4.515-10.639,9.313-14.652,2.29c-5.19-9.082-9.494-9.665-13.188-5.299c-5.517,6.52-14.305,5.654-16.312-0.367      c-2.007-6.02,6.333-11-5.258-14.181C35.484,260.5,39.483,250.85,45,244.83c5.518-6.021,12.517-17.31,7.5-23.83      c-17.016-13.5-8.513-27.976-4.5-35.5c4.704-8.821,16.789-14.184,9.773-23.358c-6.52-8.528-6.294-13.086-3.01-18.562      c4.514-7.524,9.531-7.524,11.537-19.061c2.007-11.535,3.352-15.832,8.367-21.852C79.057,97.4,91,99,96.594,80      C98,62,113.398,66.39,118.47,60.811c5.014-5.518,12.969-20.823,25.009-16.811c15.521,10,23.647-6.264,32.176-5.26      c8.528,1.002,26.132-3.966,36.117-3.512c11.037,0.502,16.051,7.526,21.068,7.526c5.018,0,13.544-2.51,21.069,1.504      C261.434,48.272,273.5,52,274.5,63c4.014,5.017,12.015,2.326,16.531,4.332c4.515,2.008,12.039,3.009,16.554,11.537      c3.71,7.01,0.501,12.541,6.02,18.059C319.123,102.446,338.5,102,334.5,125c2.006,8.528,15.724,11.054,16.224,21.589      c0.501,10.534-14.724,26.649,9.385,40.411c11.391,13,6.758,21.208,2.391,29.5c-5.017,9.533-11,12.257-11,19.28      s11.262,13.144,8.253,22.173c-3.01,9.029-13.203,6.246-12.542,11.536c1.001,8.022-6.68,16.681-14.547,12.54      c-5.031-2.647-11.199,1.028-14.852,6.085c-5.106,7.069-2.646,11.219-22.642,7.94C295.17,296.055,290.333,294.167,284.5,297.5z" /></g><g id="Top"><path  fill="#FFFFFF" d="M199,97.666c0,0,53.333-12.333,56.346,43c0,0,9.654,50-15.596,68.333c-8.301,6.027-64.5,10.586-82.25-3.5   c0,0-15.966-13.25-14.92-57.698C142.58,147.802,140,97.407,199,97.666z" /><polygon  fill="#FFFFFF" points="168.125,209 167,218.003 176.443,219.788 179.083,209.5" /><path  d="M191.431,189.408c0,0-4.321,8.691-1.785,11.98c2.536,3.289,8.079,3.289,8.173-3.523   C197.913,191.053,195.001,185.18,191.431,189.408z" /><path  d="M205.431,189.408c0,0-4.321,8.691-1.785,11.98c2.536,3.289,8.079,3.289,8.173-3.523   C211.913,191.053,209.001,185.18,205.431,189.408z" /><path  fill="#FFFFFF" d="M191.875,256.333l-1.5-16.333c0,0,23.125-7.875,40.875,0.375L229.333,252" /><line  fill="none" stroke="#000000" stroke-width="3" stroke-linecap="round" stroke-miterlimit="10" x1="203.5" y1="236" x2="203.5" y2="250" /><line  fill="none" stroke="#000000" stroke-width="3" stroke-linecap="round" stroke-miterlimit="10" x1="216.5" y1="236" x2="216.5" y2="248" /><path  fill="none" stroke="#FFFFFF" stroke-width="3" stroke-linecap="round" stroke-miterlimit="10" d="M195.5,254" /><path  fill="none" stroke="#FFFFFF" stroke-width="3" stroke-linecap="round" stroke-miterlimit="10" d="M195.5,240" /><polyline  fill="#FFFFFF" points="171,257 171,244 179.09,242.667 183.167,257 171,257" /><path  d="M214.833,128.167c0,0-7.331,8-7.499,13c-0.168,5,1.832,20.833,7.499,26.667C220.5,173.667,236.667,179.5,240,175.5   s6.833-31.167,1.333-36.667S222.167,120.833,214.833,128.167z" /><path  fill="#51C2F4" d="M167.937,173.157c0,0-8.672,18.73-4.076,22.986c4.596,4.256,10.622-2.343,9.758-19.12    C173.619,177.023,175.62,159.258,167.937,173.157" /><path  d="M191.419,142.921c0,0-2.11,20.45-11.686,25.968c-9.576,5.518-21.586,0.811-24.345-5.518    c-2.759-6.33-1.623-19.314,20.044-30.026C175.432,133.345,192.23,126.853,191.419,142.921z" /><path  fill="#FFFFFF" d="M212,214v14.561c-19,3.606-33.5-3.561-33.5-3.561l2.875-15" /><polygon  fill="#FFFFFF" points="235.625,209 236.833,225.006 224,227.006 223.333,212" /><line  fill="none" stroke="#000000" stroke-width="3" stroke-linecap="round" stroke-miterlimit="10" x1="201.976" y1="217.25" x2="200.5" y2="230.875" /><line  fill="none" stroke="#000000" stroke-width="3" stroke-linecap="round" stroke-miterlimit="10" x1="189.604" y1="216.375" x2="186.375" y2="229.575" /><path  fill="#FFFFFF" d="M169.5,256.333c0,0,61.25-8.833,63.5-2.333S163.712,269.229,169.5,256.333z" /></g></svg>