<?xml version="1.0" encoding="iso-8859-1"?><svg id="MegFaceLaugh" version="1.1" xmlns="http://www.w3.org/2000/svg" xmlns:xlink="http://www.w3.org/1999/xlink" xml:space="preserve" x="0px" y="0px" viewbox="0 0 400 400" width="400" height="400" ><g id="Face"><g  /><g  /><circle  cx="133.333" cy="173.238" r="20" class="SkinColor" fill="#F7CCBA"  /><circle  cx="266.667" cy="173.238" r="20" class="SkinColor" fill="#F7CCBA"  /><circle  fill="#D97755" cx="266.667" cy="173.238" r="10.146" /><circle  fill="#D97755" cx="133.333" cy="173.238" r="10.146" /><path  d="M267,189v-50h0.18c-0.184-37-29.986-59-66.325-59h-1.521c-36.338,0-66.141,22-66.325,59H133v50l12,64.999    c0,0,37.999,26.001,45,26.001h20.189c7.001,0,44.811-26,44.811-26L267,189z" class="SkinColor" fill="#F7CCBA"  /></g><g id="Mouth"><path  fill="#600404" d="M194.417,235.914c0,0-17.657,3.562-15.95,6.67c1.706,3.108,21.76,13.826,33.117,8.25    c8.008-3.932,10.318-8.601,9.735-9.851c-0.583-1.25-12.902-5.74-16.568-5.069C201.083,236.584,195.583,236.911,194.417,235.914z" /><path  fill="#FFFFFF" d="M200,235.914c-6.369,1.147-13.189,2.994-13.983,3.791c0,0,6.817,2.734,13.983,2.431    c7.22,0.303,13.983-2.431,13.983-2.431C213.189,238.908,206.46,237.061,200,235.914z" /><path  fill="#C93636" d="M199.877,250.5c-15-1-24.377-12.749-24.377-12.749c-0.75,7.583,3.281,10.171,7.448,13.504    c5.625,4.063,6.507,5.37,17.052,5.37h0c10.545-0.097,11.375-1.374,17-5.436c4.167-3.333,6.417-8.604,6-12.152    C223,239.037,214.877,249.5,199.877,250.5z" /><path  fill="#9B0D0D" d="M200.118,235.14c-0.039-0.042-0.079-0.074-0.118-0.115c0,0.041-0.124,0.074-0.163,0.115    c-8.75-9.75-22.505,5.041-22.505,5.041s0.832,1.143,3.225,1.697c0.471,0.109,4.835-2.502,12.335-3.689    c2.349-0.372,4.108,1.48,7.108,1.716c2.629-0.236,4.713-2.088,7.063-1.716c7.5,1.188,11.842,3.799,12.313,3.689    c2.393-0.554,3.236-1.697,3.236-1.697S208.868,225.39,200.118,235.14z" /></g><g id="Beard"><path  d="M214.04,280l-0.072-0.123c-0.072-0.263-0.21-0.492-0.407-0.692L199.674,266.5l-13.234,12.645    c-0.2,0.225-0.347,0.471-0.419,0.746L185.96,280h0.045c-0.018,0-0.045,0.19-0.045,0.294c0,7.754,6.286,14.04,14.04,14.04    s14.04-6.286,14.04-14.04c0-0.107-0.033-0.294-0.051-0.294H214.04z" class="BeardColor" fill="#5D2300"  /></g><g id="Nose"><path  fill="#D97755" d="M200,169.667c-1.524,3.256-8.023,25.447-7.442,36.582c0.418,8.008,4.393,9.769,7.442,10.25    c3.239-0.481,7.024-2.242,7.442-10.25C208.022,195.114,201.046,172.923,200,169.667z" /></g><g id="Eyebrow"><path  d="M188.125,148c0,0-10.219-21.702-29.25-7.25c0,0,14.292-10.5,20.792,10.75L188.125,148z" /><path  d="M211.875,148c0,0,10.219-21.702,29.25-7.25c0,0-17.542-5.32-19.875,10.75L211.875,148z" /></g><g id="Glass"><rect  x="188.508" y="165" width="22.984" height="5.033" /><path  fill="none" stroke="#000000" stroke-width="3" stroke-linecap="round" stroke-linejoin="round" stroke-miterlimit="10" d="M211.492,173.238c0,0-0.508-9.738,0-11.405C212,160.167,234,155.925,249.333,165c0,0,8.167,3.183,3.667,10" /><path  fill="none" stroke="#000000" stroke-width="3" stroke-linecap="round" stroke-linejoin="round" stroke-miterlimit="10" d="M188.232,173.238c0,0,0.508-9.738,0-11.405c-0.508-1.667-22.508-5.908-37.841,3.167c0,0-7.64,4.683-3.14,11.5" /></g><g id="Hair"><path  fill="#845F41" d="M281.925,96.463c0,0-10.925-22.188-36.925-15.333v-0.001c0,0-6.501,1.873-19.448-1.317    c-5.177-1.275-15.013-4.092-25.351-4.366c-10.338-0.274-20.388,3.09-25.586,4.366C161.622,83.003,155,81.129,155,81.129v0.001    c-26-6.855-36.981,15.333-36.981,15.333c-16.356,35.722,9.628,54.036,9.628,54.036c2.274,2.845,4.066,5.255,5.353,7.301V139    c0-36.451,29.883-59,66.333-59H200h0.667C237.117,80,267,102.55,267,139v18.915c1.291-2.07,3.06-4.517,5.368-7.416    C272.368,150.499,298.223,132.185,281.925,96.463z" /></g><g id="Top"><path  d="M230.167,172c3.314,0,6,2,6,6h4c0-6-4.477-10-10-10c-5.523,0-10,4-10,10h4C224.167,174,226.854,172,230.167,172z" /><path  d="M170.167,172c3.314,0,6,2,6,6h4c0-6-4.477-10-10-10c-5.523,0-10,4-10,10h4C164.167,174,166.854,172,170.167,172z" /></g></svg>