<?xml version="1.0" encoding="iso-8859-1"?><svg id="MegFaceScream" version="1.1" xmlns="http://www.w3.org/2000/svg" xmlns:xlink="http://www.w3.org/1999/xlink" xml:space="preserve" x="0px" y="0px" viewbox="0 0 400 400" width="400" height="400" ><g id="Face"><g  /><g  /><circle  cx="133.333" cy="173.238" r="20" class="SkinColor" fill="#F7CCBA"  /><circle  cx="266.667" cy="173.238" r="20" class="SkinColor" fill="#F7CCBA"  /><circle  fill="#D97755" cx="266.667" cy="173.238" r="10.146" /><circle  fill="#D97755" cx="133.333" cy="173.238" r="10.146" /><path  d="M200.667,80h-1.333C162.883,80,133,102.549,133,139v58c4,22.105,17.193,45.733,27.333,55.5    c24.917,24,36.479,22.833,39.667,22.833c3.63,0,17.083,0.265,39.667-22.833C249.509,242.433,263,219.105,267,197v-58    C267,102.549,237.117,80,200.667,80z" class="SkinColor" fill="#F7CCBA"  /></g><g id="Beard"><path  d="M246.378,218.938h-92.756c-3.427-25-14.622-23.75-20.622-25.275v20.275c0,36.451,23.75,66,67,66    s67-29.549,67-66v-20.275C261,195.188,249.799,193.938,246.378,218.938z M245.37,245.317c0,0-14.203,22.926-45.65,23.844    c-31.496-0.918-45.053-23.74-45.053-23.74c0.061-4.879-0.117-16.484-0.457-20.484h91.581    C245.452,228.938,245.309,240.438,245.37,245.317z" class="BeardColor" fill="#5D2300"  /></g><g id="Nose"><path  fill="#D97755" d="M209.45,199.181c0,0-8.677-27.241-9.45-29.514c-1.022,2.063-10.857,29.741-10.857,29.741    c-3.107,0.223-17.628,14.594,10.221,15.092C223.438,214.931,216.305,199.397,209.45,199.181z" /></g><g id="Eyebrow"><path  d="M214.389,159.061c0,0-9.502-17.632,30.959-19.611C245.348,139.451,223.584,155.259,214.389,159.061z" /><path  d="M183.328,159.094c0,0,12.338-15.778-27.21-24.549C156.117,134.545,174.905,153.796,183.328,159.094z" /></g><g id="Hair"><path  fill="#845F41" d="M282.667,125.667c0.427-40.667-19-55.375-43.333-60.042c-24.333-4.667-48.856-0.774-68.083,5.708    c0,0-12.583-14.333-30.583,1.333c-15.842,13.789-26,51.667-14.667,80.571l13.333,20c0,0-1.333-47.905,9-47.571    c0,0-3.195-15.492,6.568-20.981c4.084-0.965,9.045-1.031,15.099-0.019c2.714,8.402,29.695,13.241,39,13.241    c9.269,0,35.292,1.067,47.652,13.441l1.868,36.984L267,155.704v-0.022l6-0.85C273,154.833,282.439,147.344,282.667,125.667z" /><g  /></g><g id="Top"><polygon  points="211.268,171.473 232.544,155.047 236.495,159.847 219.746,169.205 240.063,170.303 234.549,175.518" /><polygon  points="191.063,171.473 169.786,155.047 165.835,159.847 182.585,169.205 162.268,170.303 167.782,175.518" /><polygon  fill="#D97755" points="202.25,145 204,154.434 235.25,121.275 207.75,145" /><polygon  fill="#D97755" points="190,156.375 194.125,147.875 190,148.625 171.386,119.875" /><polygon  fill="#D97755" points="199,149 199,158 194.125,156" /><path  d="M200.886,236.865c0,0-4.886,1.642-9.896-2.64c-3.517-3.005-14.918-5.084-16.9,5.584   c-1.983,10.669,8.203,14.092,23.977,10.937c0,0,7.361-1.534,13.461,1.126c0,0,12.62,6.446,16.406-7.646   C227.933,244.226,233.509,226.822,200.886,236.865z" /><path  fill="#FFFFFF" d="M177.019,244.956c2.264,4.013,9.733,6.143,21.303,2.226c0,0,6.73-0.865,12.307,0.635    c0,0,10.425,5.743,14.257-1.752C209.894,242.949,183.914,244.474,177.019,244.956z" /><path  fill="#FFFFFF" d="M225.86,243.207c0.032-0.15,0.07-0.29,0.098-0.447c0,0-0.041-12.322-25.059-3.404    c0,0-4.467,0.926-9.048-1.488c-3.215-1.694-13.6-6.514-15.451,3.148c-0.063,0.331-0.095,0.659-0.105,0.982    C182.544,241.535,209.953,239.783,225.86,243.207z" /></g></svg>