<?xml version="1.0" encoding="iso-8859-1"?><svg id="MegFaceWink" version="1.1" xmlns="http://www.w3.org/2000/svg" xmlns:xlink="http://www.w3.org/1999/xlink" xml:space="preserve" x="0px" y="0px" viewbox="0 0 400 400" width="400" height="400" ><g id="Face"><g  /><g  /><circle  cx="133.333" cy="173.238" r="20" class="SkinColor" fill="#F7CCBA"  /><circle  cx="266.667" cy="173.238" r="20" class="SkinColor" fill="#F7CCBA"  /><circle  fill="#D97755" cx="266.667" cy="173.238" r="10.146" /><circle  fill="#D97755" cx="133.333" cy="173.238" r="10.146" /><path  d="M200.667,80H200h-0.667C162.883,80,133,102.549,133,139l4,48c-15.5,11.5-14.748,29.741-5.667,40.5    c11.91,14.111,44.842,51.939,69.251,51.435c22.727-0.469,56.993-38.296,68.083-51.435c9.081-10.759,10.083-29-5.667-40.5l4-48    C267,102.549,237.117,80,200.667,80z" class="SkinColor" fill="#F7CCBA"  /></g><g id="Beard"><rect  x="157" y="221" width="86" height="10" class="BeardColor" fill="#5D2300"  /><path  d="M157,273.05V221h10v52.05c0,2.734-2.216,4.95-4.95,4.95h-0.1C159.216,278,157,275.784,157,273.05z" class="BeardColor" fill="#5D2300"  /><path  d="M233,273.05V221h10v52.05c0,2.734-2.216,4.95-4.95,4.95h-0.1C235.216,278,233,275.784,233,273.05z" class="BeardColor" fill="#5D2300"  /></g><g id="Nose"><ellipse  fill="#D97755" cx="200" cy="205.875" rx="11.492" ry="8.625" /><ellipse  fill="#D97755" cx="200" cy="195.375" rx="4.5" ry="10.125" /></g><g id="Eye"><ellipse  fill="#FFFFFF" cx="230" cy="175" rx="14" ry="5" /><circle  cx="230" cy="175" r="4.5" class="EyeColor" fill="#1860B5"  /><ellipse  fill="#FFFFFF" cx="170" cy="175" rx="14" ry="5" /><circle  cx="170" cy="175" r="4.5" class="EyeColor" fill="#1860B5"  /><path  d="M210.667,163c0,0-1.667,26.325,9.833,30.663c11.5,4.337,28.833,2.004,32.5-14.996    c0,0,3.667-24.858-13-25.429C240,153.238,217.667,148.333,210.667,163z" class="SkinColor" fill="#F7CCBA"  /></g><g id="Eyebrow"><path  d="M212.392,145.084c0,0,31.5,3.083,29.083-7.583c0,0-0.917-4.666-7.417-5.333    C234.059,132.167,237.892,141.667,212.392,145.084z" /><path  d="M187.608,145.084c0,0-31.5,3.083-29.083-7.583c0,0,0.917-4.666,7.417-5.333    C165.941,132.167,162.108,141.667,187.608,145.084z" /></g><g id="Glass"><rect  x="188.508" y="165" width="22.984" height="5.033" /><polygon  fill="none" stroke="#000000" stroke-width="3" stroke-linecap="round" stroke-linejoin="round" stroke-miterlimit="10" points="254.115,159.5 211.115,159.5 211.115,200.083 254.115,198.924" /><polygon  fill="none" stroke="#000000" stroke-width="3" stroke-linecap="round" stroke-linejoin="round" stroke-miterlimit="10" points="145.885,159.5 188.885,159.5 188.885,200.083 145.885,198.924" /></g><g id="Hair"><path  fill="#845F41" d="M151.663,102.037c-7.479,5.741-1.512,21.741-10.711,30.872c-3.96,3.934-4.493,27.592-4.493,27.592      l-14.017-5.945c-1.274-5.966-9.109-51.555,15.311-74.163c14.013-16.273,38.548-27.517,56.187-27.181      c19.754,0.375,35.56,8.997,35.56,8.997c46.023,7.292,49.5,44.644,44.427,69.528c-0.761,11.743-0.376,20.806-0.376,20.806      l-14.692,7.959c0,0-0.534-23.657-4.494-27.59c-9.2-9.132-3.232-25.133-10.711-30.874c-10.055-7.719-30.987,2.086-45.995,2.086      C182.651,104.122,161.718,94.318,151.663,102.037z" /></g><g id="Top"><path  d="M227.667,232.619c-26.083,18.637-52.167,0.971-52.167,0.971s6.917,11.292,26.083,11.917   C220.75,246.132,227.667,232.619,227.667,232.619z" /><path  fill="#D31111" d="M201.583,245.507c-1.169,0.032,5.833,14.521,18.422,10.481c5.981-1.92,7.895-8.453,4.201-18.821   C224.207,237.166,212.945,245.199,201.583,245.507z" /><path  fill="#661D1D" d="M212.257,243.296c0,0,5.669,4.522,5.959,8.388c0,0,2.444-5.687-1.443-10.28   C216.773,241.404,213.565,242.877,212.257,243.296z" /><path  d="M240,166.967c0,0-12.5-3.717-19.5,8.533l1.875,3.167c0,0,5.625-9.7,17.625-9.183V166.967z" /></g></svg>