<?xml version="1.0" encoding="iso-8859-1"?><svg id="MegFaceScold" version="1.1" xmlns="http://www.w3.org/2000/svg" xmlns:xlink="http://www.w3.org/1999/xlink" xml:space="preserve" x="0px" y="0px" viewbox="0 0 400 400" width="400" height="400" ><g id="Face"><g  /><g  /><circle  cx="133.333" cy="173.238" r="20" class="SkinColor" fill="#F7CCBA"  /><circle  cx="266.667" cy="173.238" r="20" class="SkinColor" fill="#F7CCBA"  /><circle  fill="#D97755" cx="266.667" cy="173.238" r="10.146" /><circle  fill="#D97755" cx="133.333" cy="173.238" r="10.146" /><path  d="M200.667,80h-1.333C162.883,80,133,102.549,133,139v58c4,22.105,17.193,45.733,27.333,55.5    c24.917,24,36.479,22.833,39.667,22.833c3.63,0,17.083,0.265,39.667-22.833C249.509,242.433,263,219.105,267,197v-58    C267,102.549,237.117,80,200.667,80z" class="SkinColor" fill="#F7CCBA"  /></g><g id="Beard"><path  d="M246.378,218.938h-92.756c-3.427-25-14.622-23.75-20.622-25.275v20.275c0,36.451,23.75,66,67,66     s67-29.549,67-66v-20.275C261,195.188,249.799,193.938,246.378,218.938z M245.37,245.317c0,0-14.203,22.926-45.65,23.844     c-31.496-0.918-45.053-23.74-45.053-23.74c0.061-4.879-0.117-16.484-0.457-20.484h91.581     C245.452,228.938,245.309,240.438,245.37,245.317z" class="BeardColor" fill="#5D2300"  /></g><g id="Nose"><path  fill="#D97755" d="M209.45,199.181c0,0-8.677-27.241-9.45-29.514c-1.022,2.063-10.857,29.741-10.857,29.741    c-3.107,0.223-17.628,14.594,10.221,15.092C223.438,214.931,216.305,199.397,209.45,199.181z" /></g><g id="Eyebrow"><path  d="M214.389,159.061c0,0-9.502-17.632,30.959-19.611C245.348,139.451,223.584,155.259,214.389,159.061z" /><path  d="M183.328,159.094c0,0,12.338-15.778-27.21-24.549C156.117,134.545,174.905,153.796,183.328,159.094z" /></g><g id="Hair"><path  fill="#845F41" d="M282.667,125.667c0.427-40.667-19-55.375-43.333-60.042c-24.333-4.667-48.856-0.774-68.083,5.708    c0,0-12.583-14.333-30.583,1.333c-15.842,13.789-26,51.667-14.667,80.571l13.333,20c0,0-1.333-47.905,9-47.571    c0,0-3.195-15.492,6.568-20.981c4.084-0.965,9.045-1.031,15.099-0.019c2.714,8.402,29.695,13.241,39,13.241    c9.269,0,35.292,1.067,47.652,13.441l1.868,36.984L267,155.704v-0.022l6-0.85C273,154.833,282.439,147.344,282.667,125.667z" /><g  /></g><g id="Top"><path  fill="#FFFFFF" d="M213.75,169.25l36.25-15C250,154.25,245,202.5,213.75,169.25z" /><path  fill="#FFFFFF" d="M190,169.25l-36.25-15C153.75,154.25,158.75,202.5,190,169.25z" /><path  fill="#51C2F4" d="M112.774,323.551c0,0,15.181,2.6,20.478-34.204C133.253,289.347,94.836,318.275,112.774,323.551z" /><path  fill="#51C2F4" d="M276.784,316.456c0,0,7.757-13.307-24.855-31.17C251.929,285.286,265.554,331.406,276.784,316.456z" /><path  fill="#51C2F4" d="M237.017,258.14c0,0,16.916,1.782,20.62,13.052c0,0,3.331,11.304-8.758,5.361   C248.879,276.553,241.058,271.085,237.017,258.14z" /><path  fill="#51C2F4" d="M140.347,245.419c0,0-16.333-1.715-21.99,4.832c0,0-6.623,7.355-0.541,11.803   c10.404,7.609,13.89-4.888,37.907-14.167C156.69,245.549,140.347,245.419,140.347,245.419z" /><path  fill="#51C2F4" d="M155.037,289.259c-0.508-10.93,5.234-28.928,5.234-28.928c-16.891,15.612-18.524,32.011-18.524,32.011   C140.647,309.389,155.545,300.189,155.037,289.259z" /><path  fill="#51C2F4" d="M257.51,254.388c0,0,17.912-4.721,29.157,1.584c0,0,15,10.362,0,11.828   C276.369,268.807,264.389,255.57,257.51,254.388z" /><path  fill="#51C2F4" d="M266.333,270.334c0,0,14.352,2.974,37.531,16.345c0,0,21.552,13.959,5.862,16.004   C293.463,304.801,278.36,274.213,266.333,270.334z" /><path  fill="#51C2F4" d="M141.735,268.231c0,0-31.595-1.94-46.072,18.819c0,0-9.331,17.284,5.334,8.774   C107.442,292.084,130.915,271.14,141.735,268.231z" /><circle  fill="#D30010" cx="232.333" cy="167.333" r="4.667" /><circle  fill="#D30010" cx="172.333" cy="168.333" r="4.667" /><circle  fill="#51C2F4" cx="281.664" cy="245.167" r="5.167" /><circle  fill="#51C2F4" cx="235.664" cy="289.167" r="4.455" /><circle  fill="#51C2F4" cx="101.62" cy="263.123" r="4.123" /><path  d="M178.666,238.834c0,0-9.292,4.667-4.667,9.167s48.333,4,51.667,2.333c0,0,9.833-3.833,6.833-8.333   S222.166,223.834,178.666,238.834z" /><path  fill="#822006" d="M185.166,245.167c0,0,1.577-3.167,8.459-4.167c6.882-1,32.404,1,30.683,4.167   C222.589,248.334,189.038,244.834,185.166,245.167z" /><polygon  fill="#D97755" points="202.25,145 204,154.434 235.25,121.275 207.75,145" /><polygon  fill="#D97755" points="190,156.375 194.125,147.875 190,148.625 171.386,119.875" /><polygon  fill="#D97755" points="199,149 199,158 194.125,156" /></g></svg>