<?xml version="1.0" encoding="iso-8859-1"?><svg id="MegFaceFlushed" version="1.1" xmlns="http://www.w3.org/2000/svg" xmlns:xlink="http://www.w3.org/1999/xlink" xml:space="preserve" x="0px" y="0px" viewbox="0 0 400 400" width="400" height="400" ><g id="Face"><g  /><g  /><circle  cx="133.333" cy="173.238" r="20" class="SkinColor" fill="#F7CCBA"  /><circle  cx="266.667" cy="173.238" r="20" class="SkinColor" fill="#F7CCBA"  /><circle  fill="#D97755" cx="266.667" cy="173.238" r="10.146" /><circle  fill="#D97755" cx="133.333" cy="173.238" r="10.146" /><path  d="M200.667,80H200h-0.667C162.883,80,133,102.549,133,139l4,48c-15.5,11.5-14.748,29.741-5.667,40.5    c11.91,14.111,44.842,51.939,69.251,51.435c22.727-0.469,56.993-38.296,68.083-51.435c9.081-10.759,10.083-29-5.667-40.5l4-48    C267,102.549,237.117,80,200.667,80z" class="SkinColor" fill="#F7CCBA"  /></g><g id="Beard"><rect  x="157" y="221" width="86" height="10" class="BeardColor" fill="#5D2300"  /><path  d="M157,273.05V221h10v52.05c0,2.734-2.216,4.95-4.95,4.95h-0.1C159.216,278,157,275.784,157,273.05z" class="BeardColor" fill="#5D2300"  /><path  d="M233,273.05V221h10v52.05c0,2.734-2.216,4.95-4.95,4.95h-0.1C235.216,278,233,275.784,233,273.05z" class="BeardColor" fill="#5D2300"  /></g><g id="Eye"><ellipse  fill="#FFFFFF" cx="230" cy="175" rx="14" ry="5" /><ellipse  fill="#FFFFFF" cx="170" cy="175" rx="14" ry="5" /><circle  cx="235.722" cy="176" r="3.5" class="EyeColor" fill="#1860B5"  /><circle  cx="175.5" cy="176" r="3.5" class="EyeColor" fill="#1860B5"  /></g><g id="Eyebrow"><path  d="M212.392,149.083c0,0,31.5,3.083,29.083-7.583c0,0-0.917-4.667-7.417-5.334    C234.059,136.166,237.892,145.666,212.392,149.083z" /><path  d="M187.608,149.083c0,0-31.5,3.083-29.083-7.583c0,0,0.917-4.667,7.417-5.334    C165.941,136.166,162.108,145.666,187.608,149.083z" /></g><g id="Glass"><rect  x="188.508" y="165" width="22.984" height="5.033" /><polygon  fill="none" stroke="#000000" stroke-width="3" stroke-linecap="round" stroke-linejoin="round" stroke-miterlimit="10" points="254.115,159.5 211.115,159.5 211.115,200.083 254.115,198.924" /><polygon  fill="none" stroke="#000000" stroke-width="3" stroke-linecap="round" stroke-linejoin="round" stroke-miterlimit="10" points="145.885,159.5 188.885,159.5 188.885,200.083 145.885,198.924" /></g><g id="Hair"><path  fill="#845F41" d="M151.663,102.037c-7.479,5.741-1.512,21.741-10.711,30.872c-3.96,3.934-4.493,27.592-4.493,27.592      l-14.017-5.945c-1.274-5.966-9.109-51.555,15.311-74.163c14.013-16.273,38.548-27.517,56.187-27.181      c19.754,0.375,35.56,8.997,35.56,8.997c46.023,7.292,49.5,44.644,44.427,69.528c-0.761,11.743-0.376,20.806-0.376,20.806      l-14.692,7.959c0,0-0.534-23.657-4.494-27.59c-9.2-9.132-3.232-25.133-10.711-30.874c-10.055-7.719-30.987,2.086-45.995,2.086      C182.651,104.122,161.718,94.318,151.663,102.037z" /></g><g id="Top"><rect  x="251" y="73" width="7" height="54" /><rect  x="266" y="73" width="7" height="54" /><rect  x="280" y="73" width="7" height="54" /><path  d="M194.351,233.995c0,0,11.999-1.131,14.617,8.121c4.43,15.651-5.844,18.01-12.698,16.537   c-4.196-0.902-10.853-10.611,2.73-20.652C200.45,236.929,201.615,234.863,194.351,233.995z" /><path  fill="#822006" d="M194.083,253.334c0,0,2-6.25,13.167-7.917c0,0,1.083,10.583-8.417,10.667   C198.833,256.084,194,256.084,194.083,253.334z" /><line  fill="none" stroke="#FF1E00" stroke-width="5" stroke-linecap="round" stroke-linejoin="round" stroke-miterlimit="10" x1="174.895" y1="196" x2="166" y2="212.75" /><line  fill="none" stroke="#FF1E00" stroke-width="5" stroke-linecap="round" stroke-linejoin="round" stroke-miterlimit="10" x1="189.895" y1="196" x2="181" y2="212.75" /><line  fill="none" stroke="#FF1E00" stroke-width="5" stroke-linecap="round" stroke-linejoin="round" stroke-miterlimit="10" x1="204.895" y1="196" x2="196" y2="212.75" /><line  fill="none" stroke="#FF1E00" stroke-width="5" stroke-linecap="round" stroke-linejoin="round" stroke-miterlimit="10" x1="219.895" y1="196" x2="211" y2="212.75" /><line  fill="none" stroke="#FF1E00" stroke-width="5" stroke-linecap="round" stroke-linejoin="round" stroke-miterlimit="10" x1="234.895" y1="196" x2="226" y2="212.75" /></g></svg>