<?xml version="1.0" encoding="iso-8859-1"?><svg id="MegFaceSneer" version="1.1" xmlns="http://www.w3.org/2000/svg" xmlns:xlink="http://www.w3.org/1999/xlink" xml:space="preserve" x="0px" y="0px" viewbox="0 0 400 400" width="400" height="400" ><g id="Face"><g  /><g  /><circle  cx="133.333" cy="173.238" r="20" class="SkinColor" fill="#F7CCBA"  /><circle  cx="266.667" cy="173.238" r="20" class="SkinColor" fill="#F7CCBA"  /><circle  fill="#D97755" cx="266.667" cy="173.238" r="10.146" /><circle  fill="#D97755" cx="133.333" cy="173.238" r="10.146" /><path  d="M267,189v-50h0.18c-0.184-37-29.986-59-66.325-59h-1.521c-36.338,0-66.141,22-66.325,59H133v50l12,64.999    c0,0,37.999,26.001,45,26.001h20.189c7.001,0,44.811-26,44.811-26L267,189z" class="SkinColor" fill="#F7CCBA"  /></g><g id="Beard"><path  d="M214.04,280l-0.072-0.123c-0.072-0.263-0.21-0.492-0.407-0.692L199.674,266.5l-13.234,12.645    c-0.2,0.225-0.347,0.471-0.419,0.746L185.96,280h0.045c-0.018,0-0.045,0.19-0.045,0.294c0,7.754,6.286,14.04,14.04,14.04    s14.04-6.286,14.04-14.04c0-0.107-0.033-0.294-0.051-0.294H214.04z" class="BeardColor" fill="#5D2300"  /></g><g id="Nose"><path  fill="#D97755" d="M200,169.667c-1.524,3.256-8.023,25.447-7.442,36.582c0.418,8.008,4.393,9.769,7.442,10.25    c3.239-0.481,7.024-2.242,7.442-10.25C208.022,195.114,201.046,172.923,200,169.667z" /></g><g id="Eye"><circle  fill="#FFFFFF" cx="230" cy="175" r="12" /><circle  cx="230.167" cy="173.238" r="4.5" class="EyeColor" fill="#1860B5"  /><circle  fill="#FFFFFF" cx="170" cy="175" r="12" /><circle  cx="169.945" cy="173.238" r="4.5" class="EyeColor" fill="#1860B5"  /></g><g id="Eyebrow"><path  d="M188.125,145c0,0-10.219-21.702-29.25-7.25c0,0,14.292-10.5,20.792,10.75L188.125,145z" /><path  d="M211.875,145c0,0,10.219-21.702,29.25-7.25c0,0-17.542-5.32-19.875,10.75L211.875,145z" /></g><g id="Glass"><rect  x="188.508" y="165" width="22.984" height="5.033" /><path  fill="none" stroke="#000000" stroke-width="3" stroke-linecap="round" stroke-linejoin="round" stroke-miterlimit="10" d="M211.492,173.238c0,0-0.508-9.738,0-11.405C212,160.167,234,155.925,249.333,165c0,0,8.167,3.183,3.667,10" /><path  fill="none" stroke="#000000" stroke-width="3" stroke-linecap="round" stroke-linejoin="round" stroke-miterlimit="10" d="M188.232,173.238c0,0,0.508-9.738,0-11.405c-0.508-1.667-22.508-5.908-37.841,3.167c0,0-7.64,4.683-3.14,11.5" /></g><g id="Hair"><path  fill="#845F41" d="M281.925,96.463c0,0-10.925-22.188-36.925-15.333v-0.001c0,0-6.501,1.873-19.448-1.317    c-5.177-1.275-15.013-4.092-25.351-4.366c-10.338-0.274-20.388,3.09-25.586,4.366C161.622,83.003,155,81.129,155,81.129v0.001    c-26-6.855-36.981,15.333-36.981,15.333c-16.356,35.722,9.628,54.036,9.628,54.036c2.274,2.845,4.066,5.255,5.353,7.301V139    c0-36.451,29.883-59,66.333-59H200h0.667C237.117,80,267,102.55,267,139v18.915c1.291-2.07,3.06-4.517,5.368-7.416    C272.368,150.499,298.223,132.185,281.925,96.463z" /></g><g id="Top"><path  d="M169.945,237.257c2.055,4.167,7.721,5.5,10.888,4.833c3.167-0.667,40.333-9.504,53.667-2.335c0,0-19.5,27.502-50.5,9.669   C184,249.423,166.891,245.923,169.945,237.257z" /><path  fill="#822006" d="M195.375,250.382c0,0,18.585-11.875,33.355-7.625C228.73,242.757,212.5,256.382,195.375,250.382z" /><path  fill="#FFFFFF" d="M220.584,251.427c0,0,2.103-1.216,0.296,4.051c-1.807,5.267-2.709,9.054,2.946,8.747   c5.656-0.307,5.388-6.679,4.225-8.959c-1.163-2.28-3.324-5.284-1.008-8.023C227.043,247.243,221.965,251.111,220.584,251.427z" /><path  fill="#FFFFFF" d="M191.206,244.071c0,0-1.929,4.061,4.915,3.923c6.844-0.137,32.697-1.124,28.911-8.038   C225.031,239.956,197.271,241.334,191.206,244.071z" /><polygon  fill="#034287" points="241.347,165.945 245.459,145.636 248.075,165.945 264.397,171.178 247.826,171.677    243.465,191.114 241.347,171.677 226.769,168.375" /><polygon  fill="#F7E99A" points="243.098,166.949 245.51,155.034 247.045,166.949 256.622,170.02 246.899,170.312 244.341,181.716    243.098,170.312 234.545,168.375" /></g></svg>