<?xml version="1.0" encoding="iso-8859-1"?><svg id="MegFaceDrooling" version="1.1" xmlns="http://www.w3.org/2000/svg" xmlns:xlink="http://www.w3.org/1999/xlink" xml:space="preserve" x="0px" y="0px" viewbox="0 0 400 400" width="400" height="400" ><g id="Face"><g  /><g  /><circle  cx="133.333" cy="173.238" r="20" class="SkinColor" fill="#F7CCBA"  /><circle  cx="266.667" cy="173.238" r="20" class="SkinColor" fill="#F7CCBA"  /><circle  fill="#D97755" cx="266.667" cy="173.238" r="10.146" /><circle  fill="#D97755" cx="133.333" cy="173.238" r="10.146" /><path  d="M266.991,139c-0.184-37-29.986-59-66.325-59H200h-0.667c-36.338,0-66.141,22-66.325,59H133v112.667    C133,267.315,145.976,280,161.982,280h76.036C254.024,280,267,267.315,267,251.667V139H266.991z" class="SkinColor" fill="#F7CCBA"  /></g><g id="Beard"><path  d="M237.914,232.667c0.588,21.514-6.496,33.333-17.278,34.781c-20.001,6.178-35.59,1.095-41.147,0    c-10.782-1.447-17.798-13.266-17.21-34.781c0,0-13.424,35.792,4.507,42.458c0,0,14.733,6.248,33.209,5.721    c18.663,0.527,33.311-5.721,33.311-5.721C251.236,268.459,237.914,232.667,237.914,232.667z" class="BeardColor" fill="#5D2300"  /></g><g id="Nose"><path  fill="#D97755" d="M209.45,197.18c-8.787-7.417-11.48-7.348-20.307,0.228c-2.039,1.75-11.393,14.217,1.026,9.26    c2.221-0.887,5.362,5.764,9.195,5.832c4.148,0.074,7.515-6.807,9.707-5.729C220.75,212.511,213.788,200.841,209.45,197.18z" /><path  fill="#D97755" d="M200,212.511" /></g><g id="Hair"><path  fill="#845F41" d="M284.5,297.5c-5.833,3.333,3.064-12.29-4.506-9.449c-10.16,3.81-19.062-3.01-19.062-3.01      s13.042-0.502,12.415-8.528c-1.347-14.014-7.934-6.833-11.697-18.872c-3.157-10.1,11.568-15.566,2.099-18.881      c-7.524-2.634-6.622-11.816-3.2-15.334c4.013-7.526,7.975-9.405,0.45-16.426c-7.525-7.023-5.586-12.753-2.074-19.275      c3.511-6.52,10.532-16.268,5.741-19.392c-13.167-8.584-8.648-16.805-8.146-25.334c-19-4.665-9.205-19.74-16.354-22.75      c-8.087-3.406-5.819-8.503-14.852-13.286c-8.527-4.514-19.483,0-28.512,0c-14,0-32.686-8.026-40.71,14.547      c-4.321,12.153-19.043,9.497-17.031,21.654c2.883,17.433-9.705,23.509-4.061,31.787c5.644,8.277,3.817,16.618-1.073,21.133      s-0.57,8.134,5.073,17.165c5.643,9.029-4.511,10.98-0.75,17c3.763,6.02,7.731,14.972,0.583,23.25      c-11,11,2.333,18.125-3.309,23.015c-5.644,4.892-17.191,7.651-4.524,20.151c0,0-13.032-3.597-19.554-14.634      c-4.6-7.784-10.032-1.003-13.794,3.511c-3.763,4.515-10.639,9.313-14.652,2.29c-5.19-9.082-9.494-9.665-13.188-5.299      c-5.517,6.52-14.305,5.654-16.312-0.367c-2.007-6.02,6.333-11-5.258-14.181C35.484,260.5,39.483,250.85,45,244.83      c5.518-6.021,12.517-17.31,7.5-23.83c-17.016-13.5-8.513-27.976-4.5-35.5c4.704-8.821,16.789-14.184,9.773-23.358      c-6.52-8.528-6.294-13.086-3.01-18.562c4.514-7.524,9.531-7.524,11.537-19.061c2.007-11.535,3.352-15.832,8.367-21.852      C79.057,97.4,91,99,96.594,80C98,62,113.398,66.39,118.47,60.811c5.014-5.518,12.969-20.823,25.009-16.811      c15.521,10,23.647-6.264,32.176-5.26c8.528,1.002,26.132-3.966,36.117-3.512c11.037,0.502,16.051,7.526,21.068,7.526      c5.018,0,13.544-2.51,21.069,1.504C261.434,48.272,273.5,52,274.5,63c4.014,5.017,12.015,2.326,16.531,4.332      c4.515,2.008,12.039,3.009,16.554,11.537c3.71,7.01,0.501,12.541,6.02,18.059C319.123,102.446,338.5,102,334.5,125      c2.006,8.528,15.724,11.054,16.224,21.588c0.501,10.534-14.724,26.649,9.385,40.411c11.391,13,6.758,21.208,2.391,29.5      c-5.017,9.533-11,12.257-11,19.28c0,7.024,11.262,13.144,8.253,22.173c-3.01,9.029-13.203,6.246-12.542,11.536      c1.001,8.022-6.68,16.681-14.547,12.54c-5.031-2.647-11.199,1.028-14.852,6.085c-5.106,7.069-2.646,11.219-22.642,7.94      C295.17,296.056,290.333,294.167,284.5,297.5z" /></g><g id="Top"><path  fill="#AF2409" d="M169.927,145.034c-1.976-4.077-8.11-5.495-12.444-4.618c-8.547,1.73-14.137,9.767-12.347,18.612   c3.356,16.585,20.018,17.818,30.59,26.037c0.099,0.095,0.207,0.166,0.326,0.244c1.3,0.854,3.047,0.501,3.913-0.792   c0.081-0.118,0.128-0.222,0.184-0.348c6.551-11.707,21.43-19.229,18.061-35.881c-1.79-8.846-10.065-14.077-18.612-12.348   C175.262,136.818,170.162,140.509,169.927,145.034z M182.329,145.746c-1.078,0.023-2.046-0.726-2.265-1.809   c-0.246-1.216,0.541-2.446,1.757-2.692c1.758-0.356,4.145,0.462,6.294,1.869c2.192,1.444,4.019,3.595,4.341,5.186   c0.246,1.216-0.548,2.413-1.764,2.659c-1.084,0.219-2.149-0.382-2.548-1.384C187.142,147.466,184.829,145.816,182.329,145.746z" /><path  fill="#AF2409" d="M241.877,146.872c-3.69-0.63-8.843,0.729-10.409,4.23c-0.316-3.822-4.727-6.813-8.417-7.443   c-7.277-1.242-14.142,3.399-15.427,10.929c-2.41,14.119,10.371,20.176,16.211,29.89c0.049,0.105,0.112,0.195,0.183,0.292   c0.766,1.071,2.254,1.325,3.331,0.569c0.1-0.069,0.169-0.136,0.251-0.218c8.744-7.245,22.787-8.646,25.207-22.822   C254.092,154.768,249.154,148.113,241.877,146.872z M248.26,160.554c-0.177,1.035-1.169,1.738-2.204,1.561   c-0.923-0.157-1.58-0.957-1.59-1.87c-0.148-1.972-1.47-3.98-3.423-4.798c-0.858-0.311-1.394-1.197-1.237-2.119   c0.177-1.035,1.174-1.766,2.208-1.59c1.497,0.255,3.132,1.629,4.4,3.396C247.705,156.943,248.492,159.199,248.26,160.554z" /><path  d="M174.854,233.294c2.337,14.167,12.706,24.847,25.146,24.847s22.809-10.68,25.146-24.847H174.854z" /><path  fill="#FFFFFF" d="M179.335,235c0.622,1.533,4.15,4.095,20.766,4.156c0,0,15.456,0.148,19.313-4.156H179.335z" /><path  fill="#822006" d="M212.373,254.302c-3.114-2.137-7.441-3.469-12.238-3.469c-4.865,0-9.248,1.37-12.37,3.56   c3.637,2.386,7.803,3.747,12.235,3.747C204.488,258.141,208.704,256.745,212.373,254.302z" /><path  fill="#51C2F4" d="M217.197,250.156c0,0,1.469-1.156,1.553,1.76c0.083,2.917-2.917,6.083-1.417,8c1.5,1.917,4.5,2.083,5.917,0   c1.417-2.083-2.083-6-2.167-8.917c0,0-1.161-4.082,0.083-6.333C221.167,244.667,216.708,244.501,217.197,250.156z" /><path  fill="#51C2F4" d="M213.156,263.5c-0.29-1.641-0.88-5.484,0.66-10.227c0,0-4.266-1.48-4.416,2.717   c0,0,2.712-0.895,1.795,7.857c-0.195,1.215-0.758,1.494-0.758,2.09c0,1.07,0.867,1.938,1.938,1.938s1.938-0.867,1.938-1.938   C214.313,265.131,213.25,264.313,213.156,263.5z" /></g></svg>