<?xml version="1.0" encoding="iso-8859-1"?><svg id="MegFaceScream" version="1.1" xmlns="http://www.w3.org/2000/svg" xmlns:xlink="http://www.w3.org/1999/xlink" xml:space="preserve" x="0px" y="0px" viewbox="0 0 400 400" width="400" height="400" ><g id="Face"><g  /><g  /><circle  cx="133.333" cy="173.238" r="20" class="SkinColor" fill="#F7CCBA"  /><circle  cx="266.667" cy="173.238" r="20" class="SkinColor" fill="#F7CCBA"  /><circle  fill="#D97755" cx="266.667" cy="173.238" r="10.146" /><circle  fill="#D97755" cx="133.333" cy="173.238" r="10.146" /><path  d="M267,189v-50h0.18c-0.184-37-29.986-59-66.325-59h-1.521c-36.338,0-66.141,22-66.325,59H133v50l12,64.999    c0,0,37.999,26.001,45,26.001h20.189c7.001,0,44.811-26,44.811-26L267,189z" class="SkinColor" fill="#F7CCBA"  /></g><g id="Beard"><path  d="M214.04,280l-0.072-0.123c-0.072-0.263-0.21-0.492-0.407-0.692L199.674,266.5l-13.234,12.645    c-0.2,0.225-0.347,0.471-0.419,0.746L185.96,280h0.045c-0.018,0-0.045,0.19-0.045,0.294c0,7.754,6.286,14.04,14.04,14.04    s14.04-6.286,14.04-14.04c0-0.107-0.033-0.294-0.051-0.294H214.04z" class="BeardColor" fill="#5D2300"  /></g><g id="Nose"><path  fill="#D97755" d="M200,175.508c-1.524,2.12-8.023,16.568-7.442,23.818c0.418,5.214,4.393,6.361,7.442,6.674    c3.239-0.313,7.024-1.459,7.442-6.674C208.022,192.076,201.046,177.628,200,175.508z" /></g><g id="Eyebrow"><polygon  points="212.415,153.629 223.5,156.375 240.589,127.562" /><polygon  points="177.5,154.434 188.25,154.434 161.175,127.562" /></g><g id="Hair"><path  fill="#845F41" d="M281.925,96.463c0,0-10.925-22.188-36.925-15.333v-0.001c0,0-6.501,1.873-19.448-1.317    c-5.177-1.275-15.013-4.092-25.351-4.366c-10.338-0.274-20.388,3.09-25.586,4.366C161.622,83.003,155,81.129,155,81.129v0.001    c-26-6.855-36.981,15.333-36.981,15.333c-16.356,35.722,9.628,54.036,9.628,54.036c2.274,2.845,4.066,5.255,5.353,7.301V139    c0-36.451,29.883-59,66.333-59H200h0.667C237.117,80,267,102.55,267,139v18.915c1.291-2.07,3.06-4.517,5.368-7.416    C272.368,150.499,298.223,132.185,281.925,96.463z" /></g><g id="Top"><polygon  points="211.268,171.473 232.544,155.047 236.495,159.847 219.746,169.205 240.063,170.303 234.549,175.518" /><polygon  points="191.063,171.473 169.786,155.047 165.835,159.847 182.585,169.205 162.268,170.303 167.782,175.518" /><polygon  fill="#D97755" points="202.25,145 204,154.434 235.25,121.275 207.75,145" /><polygon  fill="#D97755" points="190,156.375 194.125,147.875 190,148.625 171.386,119.875" /><polygon  fill="#D97755" points="199,149 199,158 194.125,156" /><path  d="M200.886,236.865c0,0-4.886,1.642-9.896-2.64c-3.517-3.005-14.918-5.084-16.9,5.584   c-1.983,10.669,8.203,14.092,23.977,10.937c0,0,7.361-1.534,13.461,1.126c0,0,12.62,6.446,16.406-7.646   C227.933,244.226,233.509,226.822,200.886,236.865z" /><path  fill="#FFFFFF" d="M177.019,244.956c2.264,4.013,9.733,6.143,21.303,2.226c0,0,6.73-0.865,12.307,0.635    c0,0,10.425,5.743,14.257-1.752C209.894,242.949,183.914,244.474,177.019,244.956z" /><path  fill="#FFFFFF" d="M225.86,243.207c0.032-0.15,0.07-0.29,0.098-0.447c0,0-0.041-12.322-25.059-3.404    c0,0-4.467,0.926-9.048-1.488c-3.215-1.694-13.6-6.514-15.451,3.148c-0.063,0.331-0.095,0.659-0.105,0.982    C182.544,241.535,209.953,239.783,225.86,243.207z" /></g></svg>