<?xml version="1.0" encoding="iso-8859-1"?><svg id="MegFaceLike" version="1.1" xmlns="http://www.w3.org/2000/svg" xmlns:xlink="http://www.w3.org/1999/xlink" xml:space="preserve" x="0px" y="0px" viewbox="0 0 400 400" width="400" height="400" ><g id="Face"><g  /><g  /><circle  cx="133.333" cy="173.238" r="20" class="SkinColor" fill="#F7CCBA"  /><circle  cx="266.667" cy="173.238" r="20" class="SkinColor" fill="#F7CCBA"  /><circle  fill="#D97755" cx="266.667" cy="173.238" r="10.146" /><circle  fill="#D97755" cx="133.333" cy="173.238" r="10.146" /><path  d="M200.667,80h-1.333C162.883,80,133,102.549,133,139v58c4,22.105,17.193,45.733,27.333,55.5    c24.917,24,36.479,22.833,39.667,22.833c3.63,0,17.083,0.265,39.667-22.833C249.509,242.433,263,219.105,267,197v-58    C267,102.549,237.117,80,200.667,80z" class="SkinColor" fill="#F7CCBA"  /></g><g id="Beard"><path  d="M246.378,218.938h-92.756c-3.427-25-14.622-23.75-20.622-25.275v20.275c0,36.451,23.75,66,67,66     s67-29.549,67-66v-20.275C261,195.188,249.799,193.938,246.378,218.938z M245.37,245.317c0,0-14.203,22.926-45.65,23.844     c-31.496-0.918-45.053-23.74-45.053-23.74c0.061-4.879-0.117-16.484-0.457-20.484h91.581     C245.452,228.938,245.309,240.438,245.37,245.317z" class="BeardColor" fill="#5D2300"  /></g><g id="Nose"><path  fill="#D97755" d="M209.45,199.181c0,0-8.677-27.241-9.45-29.514c-1.022,2.063-10.857,29.741-10.857,29.741    c-3.107,0.223-17.628,14.594,10.221,15.092C223.438,214.931,216.305,199.397,209.45,199.181z" /></g><g id="Eye"><radialGradient  cx="241.5589" cy="196.4411" r="21.559" gradientunits="userSpaceOnUse" /><circle  fill="url(#SVGID_1_)" cx="241.559" cy="196.441" r="21.559" /><radialGradient  cx="155.5589" cy="196.4411" r="21.5589" gradientunits="userSpaceOnUse" /><circle  fill="url(#SVGID_2_)" cx="155.559" cy="196.441" r="21.559" /></g><g id="Eyebrow"><path  d="M211.438,148.083c0,0,4.75-19.458,36.125,6.167C247.563,154.25,220.813,151.416,211.438,148.083z" /><path  d="M188.563,148.083c0,0-4.75-19.458-36.125,6.167C152.438,154.25,179.188,151.416,188.563,148.083z" /></g><g id="Glass"><rect  x="188.508" y="170.721" width="22.984" height="5.033" /><ellipse  fill="none" stroke="#000000" stroke-width="3" stroke-linecap="round" stroke-linejoin="round" stroke-miterlimit="10" cx="233" cy="173.5" rx="22.515" ry="21" /><ellipse  fill="none" stroke="#000000" stroke-width="3" stroke-linecap="round" stroke-linejoin="round" stroke-miterlimit="10" cx="167" cy="173.5" rx="22.515" ry="21" /></g><g id="Hair"><path  fill="#845F41" d="M282.667,125.667c0.427-40.667-19-55.375-43.333-60.042c-24.333-4.667-48.856-0.774-68.083,5.708    c0,0-12.583-14.333-30.583,1.333c-15.842,13.789-26,51.667-14.667,80.571l13.333,20c0,0-1.333-47.905,9-47.571    c0,0-3.195-15.492,6.568-20.981c4.084-0.965,9.045-1.031,15.099-0.019c2.714,8.402,29.695,13.241,39,13.241    c9.269,0,35.292,1.067,47.652,13.441l1.868,36.984L267,155.704v-0.022l6-0.85C273,154.833,282.439,147.344,282.667,125.667z" /><g  /></g><g id="Top"><polyline  fill="none" stroke="#000000" stroke-width="4" stroke-linecap="round" stroke-linejoin="round" stroke-miterlimit="10" points="184.667,242.167 198.833,253.5 214.5,241" /><path  fill="#AF2409" stroke="#FFFFFF" stroke-width="3" stroke-miterlimit="10" d="M60.062,149.592   c-3.737-2.562-9.768-0.753-13.097,2.157c-6.566,5.738-7.438,15.489-1.499,22.285c11.135,12.742,26.217,5.554,39.473,7.453   c0.133,0.033,0.262,0.042,0.404,0.051c1.552,0.097,2.895-1.076,3.006-2.627c0.011-0.143,0.002-0.256-0.013-0.393   c-0.112-13.415,9.082-27.323-2.098-40.116c-5.939-6.796-15.719-7.238-22.285-1.499C60.624,139.812,58.024,145.546,60.062,149.592z" /><path  fill="#AF2409" stroke="#FFFFFF" stroke-width="3" stroke-miterlimit="10" d="M64.461,226.037   c-3.271-1.17-7.39,1.348-9.292,4.156c-3.75,5.537-2.493,12.938,3.238,16.819c10.744,7.276,20.526-0.998,30.727-2.177   c0.105-0.001,0.203-0.02,0.31-0.041c1.17-0.231,1.937-1.363,1.717-2.535c-0.02-0.108-0.049-0.19-0.086-0.289   c-2.701-9.926,1.403-22.035-9.385-29.339c-5.731-3.88-13.069-2.3-16.819,3.238C62.969,218.675,62.16,223.434,64.461,226.037z" /><path  d="M230.167,172c3.314,0,6,2,6,6h4c0-6-4.477-10-10-10c-5.523,0-10,4-10,10h4C224.167,174,226.854,172,230.167,172z" /><path  d="M170.167,172c3.314,0,6,2,6,6h4c0-6-4.477-10-10-10c-5.523,0-10,4-10,10h4C164.167,174,166.854,172,170.167,172z" /></g></svg>