<?xml version="1.0" encoding="iso-8859-1"?><svg id="MegFaceStrive" version="1.1" xmlns="http://www.w3.org/2000/svg" xmlns:xlink="http://www.w3.org/1999/xlink" xml:space="preserve" x="0px" y="0px" viewbox="0 0 400 400" width="400" height="400" ><g id="Bottom"><path  fill="#D32929" d="M242.333,129c0,0,28,14.908,40.667,6.574s33.167-39.074,81-17.666l-18,13.814    c0,0-13.29,3.835-21.197,1.348c-8.218-2.585-19.264-2.697-30.136,7.597C294.667,140.667,267,175,242.333,129z" /><path  fill="#910505" d="M257.802,140.245c0,0,42.364-28.841,69.364,20.255c0,0,15.063,33.083,40.833,14.167l19.667,20.971    c0,0-62.667,11.213-70-27.546c0,0-9.667-54.092-58.56-17.842L257.802,140.245z" /><path  fill="#910505" d="M325.706,133.008c0,0,34.628-1.008,38.628-25.008H389C389,108,370.745,144.349,325.706,133.008z" /></g><g id="Face"><g  /><g  /><circle  cx="133.333" cy="173.238" r="20" class="SkinColor" fill="#F7CCBA"  /><circle  cx="266.667" cy="173.238" r="20" class="SkinColor" fill="#F7CCBA"  /><circle  fill="#D97755" cx="266.667" cy="173.238" r="10.146" /><circle  fill="#D97755" cx="133.333" cy="173.238" r="10.146" /><path  d="M200.667,80h-1.333C162.883,80,133,102.549,133,139v58c4,22.105,17.193,45.733,27.333,55.5    c24.917,24,36.479,22.833,39.667,22.833c3.63,0,17.083,0.265,39.667-22.833C249.509,242.433,263,219.105,267,197v-58    C267,102.549,237.117,80,200.667,80z" class="SkinColor" fill="#F7CCBA"  /></g><g id="Beard"><path  d="M246.378,218.938h-92.756c-3.427-25-14.622-23.75-20.622-25.275v20.275c0,36.451,23.75,66,67,66     s67-29.549,67-66v-20.275C261,195.188,249.799,193.938,246.378,218.938z M245.37,245.317c0,0-14.203,22.926-45.65,23.844     c-31.496-0.918-45.053-23.74-45.053-23.74c0.061-4.879-0.117-16.484-0.457-20.484h91.581     C245.452,228.938,245.309,240.438,245.37,245.317z" class="BeardColor" fill="#5D2300"  /></g><g id="Nose"><path  fill="#D97755" d="M209.45,199.181c0,0-8.677-27.241-9.45-29.514c-1.022,2.063-10.857,29.741-10.857,29.741    c-3.107,0.223-17.628,14.594,10.221,15.092C223.438,214.931,216.305,199.397,209.45,199.181z" /></g><g id="Eye"><path  fill="#FFFFFF" d="M184.536,167.25c0,0-14.912-6.75-28.162-2.457c0,0-10.249,22.707,14.318,24.063     C170.692,188.856,188,190.875,184.536,167.25z" /><circle  cx="170.625" cy="175" r="6.667" class="EyeColor" fill="#1860B5"  /><path  fill="none" stroke="#000000" stroke-width="2" stroke-linecap="round" stroke-linejoin="round" stroke-miterlimit="10" d="M153.878,165.625c0,0,15.497-6.583,31.997,2.708" /><path  fill="none" stroke="#000000" stroke-width="2" stroke-linecap="round" stroke-linejoin="round" stroke-miterlimit="10" d="M153.878,161.625c0,0,15.497-6.583,31.997,2.708" /><line  fill="none" stroke="#000000" stroke-width="2" stroke-linecap="round" stroke-linejoin="round" stroke-miterlimit="10" x1="153.125" y1="157.313" x2="156.875" y2="164.333" /><line  fill="none" stroke="#000000" stroke-width="2" stroke-linecap="round" stroke-linejoin="round" stroke-miterlimit="10" x1="160.208" y1="155.813" x2="163.261" y2="163.092" /><line  fill="none" stroke="#000000" stroke-width="2" stroke-linecap="round" stroke-linejoin="round" stroke-miterlimit="10" x1="167.563" y1="155.813" x2="169.208" y2="163.429" /><path  fill="#FFFFFF" d="M215.464,167.25c0,0,14.912-6.75,28.162-2.457c0,0,10.249,22.707-14.318,24.063     C229.308,188.856,212,190.875,215.464,167.25z" /><circle  cx="229.375" cy="175" r="6.667" class="EyeColor" fill="#1860B5"  /><path  fill="none" stroke="#000000" stroke-width="2" stroke-linecap="round" stroke-linejoin="round" stroke-miterlimit="10" d="M246.122,165.625c0,0-15.497-6.583-31.997,2.708" /><path  fill="none" stroke="#000000" stroke-width="2" stroke-linecap="round" stroke-linejoin="round" stroke-miterlimit="10" d="M246.122,161.625c0,0-15.497-6.583-31.997,2.708" /><line  fill="none" stroke="#000000" stroke-width="2" stroke-linecap="round" stroke-linejoin="round" stroke-miterlimit="10" x1="246.875" y1="157.313" x2="243.125" y2="164.333" /><line  fill="none" stroke="#000000" stroke-width="2" stroke-linecap="round" stroke-linejoin="round" stroke-miterlimit="10" x1="239.792" y1="155.813" x2="236.739" y2="163.092" /><line  fill="none" stroke="#000000" stroke-width="2" stroke-linecap="round" stroke-linejoin="round" stroke-miterlimit="10" x1="232.438" y1="155.813" x2="230.792" y2="163.429" /></g><g id="Eyebrow"><path  d="M211.438,148.083c0,0,4.75-19.458,36.125,6.167C247.563,154.25,220.813,151.416,211.438,148.083z" /><path  d="M188.563,148.083c0,0-4.75-19.458-36.125,6.167C152.438,154.25,179.188,151.416,188.563,148.083z" /></g><g id="Glass"><rect  x="188.508" y="170.721" width="22.984" height="5.033" /><ellipse  fill="none" stroke="#000000" stroke-width="3" stroke-linecap="round" stroke-linejoin="round" stroke-miterlimit="10" cx="233" cy="173.5" rx="22.515" ry="21" /><ellipse  fill="none" stroke="#000000" stroke-width="3" stroke-linecap="round" stroke-linejoin="round" stroke-miterlimit="10" cx="167" cy="173.5" rx="22.515" ry="21" /></g><g id="Hair"><path  fill="#845F41" d="M282.667,125.667c0.427-40.667-19-55.375-43.333-60.042c-24.333-4.667-48.856-0.774-68.083,5.708    c0,0-12.583-14.333-30.583,1.333c-15.842,13.789-26,51.667-14.667,80.571l13.333,20c0,0-1.333-47.905,9-47.571    c0,0-3.195-15.492,6.568-20.981c4.084-0.965,9.045-1.031,15.099-0.019c2.714,8.402,29.695,13.241,39,13.241    c9.269,0,35.292,1.067,47.652,13.441l1.868,36.984L267,155.704v-0.022l6-0.85C273,154.833,282.439,147.344,282.667,125.667z" /><g  /></g><g id="Top"><path  fill="#910505" d="M130,136.667c0,0,76.667,20.667,140.667,0c0,0,0-26.667-10.667-31.333c0,0-108.333,9-118.667,0   C141.333,105.333,125,117.908,130,136.667z" /><path  d="M177.718,236.465c0,0,14.456,11.755,47.231-6.233c0,0-0.286,20.485,2.938,21.152   C227.888,251.383,192.448,271.13,177.718,236.465z" /><path  fill="#FFFFFF" d="M210.381,246.502c9.952-3.175,10.579-4.757,11.662-5.639l0.128-5.772c0,0-25.762,14.75-37.716,7.369    c0,0,0.508,2.095,3.654,4.91C190.333,249.191,196.55,250.775,210.381,246.502z" /><path  fill="#FFFFFF" d="M221.955,245.169c-19.231,8.38-27.042,6.336-27.81,6.369c5.962,2.8,15.134,3.975,28.77-1.139    L221.955,245.169z" /></g></svg>