<?xml version="1.0" encoding="iso-8859-1"?><svg id="MegFaceSob Eye" version="1.1" xmlns="http://www.w3.org/2000/svg" xmlns:xlink="http://www.w3.org/1999/xlink" xml:space="preserve" x="0px" y="0px" viewbox="0 0 400 400" width="400" height="400" ><g id="Face"><g  /><g  /><circle  cx="133.333" cy="173.238" r="20" class="SkinColor" fill="#F7CCBA"  /><circle  cx="266.667" cy="173.238" r="20" class="SkinColor" fill="#F7CCBA"  /><circle  fill="#D97755" cx="266.667" cy="173.238" r="10.146" /><circle  fill="#D97755" cx="133.333" cy="173.238" r="10.146" /><path  d="M267,189v-50h0.18c-0.184-37-29.986-59-66.325-59h-1.521c-36.338,0-66.141,22-66.325,59H133v50l12,64.999    c0,0,37.999,26.001,45,26.001h20.189c7.001,0,44.811-26,44.811-26L267,189z" class="SkinColor" fill="#F7CCBA"  /></g><g id="Beard"><path  d="M214.04,280l-0.072-0.123c-0.072-0.263-0.21-0.492-0.407-0.692L199.674,266.5l-13.234,12.645    c-0.2,0.225-0.347,0.471-0.419,0.746L185.96,280h0.045c-0.018,0-0.045,0.19-0.045,0.294c0,7.754,6.286,14.04,14.04,14.04    s14.04-6.286,14.04-14.04c0-0.107-0.033-0.294-0.051-0.294H214.04z" class="BeardColor" fill="#5D2300"  /></g><g id="Nose"><path  fill="#D97755" d="M200,175.508c-1.524,2.12-8.023,16.568-7.442,23.818c0.418,5.214,4.393,6.361,7.442,6.674    c3.239-0.313,7.024-1.459,7.442-6.674C208.022,192.076,201.046,177.628,200,175.508z" /></g><g id="Eyebrow"><path  d="M188.125,148c0,0-10.219-21.702-29.25-7.25c0,0,14.292-10.5,20.792,10.75L188.125,148z" /><path  d="M211.875,148c0,0,10.219-21.702,29.25-7.25c0,0-17.542-5.32-19.875,10.75L211.875,148z" /></g><g id="Hair"><path  fill="#845F41" d="M281.925,96.463c0,0-10.925-22.188-36.925-15.333v-0.001c0,0-6.501,1.873-19.448-1.317    c-5.177-1.275-15.013-4.092-25.351-4.366c-10.338-0.274-20.388,3.09-25.586,4.366C161.622,83.003,155,81.129,155,81.129v0.001    c-26-6.855-36.981,15.333-36.981,15.333c-16.356,35.722,9.628,54.036,9.628,54.036c2.274,2.845,4.066,5.255,5.353,7.301V139    c0-36.451,29.883-59,66.333-59H200h0.667C237.117,80,267,102.55,267,139v18.915c1.291-2.07,3.06-4.517,5.368-7.416    C272.368,150.499,298.223,132.185,281.925,96.463z" /></g><g id="Top"><path  fill="#51C2F4" d="M233.963,220.677c-0.634,0-1.278-0.121-1.9-0.377c-7.743-3.18-7.744-13.974-6.531-18.704   c0.313-1.218,0.921-2.351,1.563-3.551c2.232-4.163,2.401-5.608,0.857-7.365c-6.31-7.18-4.09-14.162-1.06-17.103   c0,0,9.668,1.853,9.774,1.714c-0.475,0.625-2.537,7.27-1.203,8.788c6.501,7.397,2.257,15.313,0.444,18.692   c-0.256,0.476-0.601,1.119-0.71,1.389c-0.561,2.31-0.181,6.266,0.673,6.895c2.555,1.049,3.77,3.967,2.721,6.521   C237.799,219.51,235.931,220.677,233.963,220.677z" /><path  fill="#51C2F4" d="M172.963,220.677c-0.634,0-1.278-0.121-1.9-0.377c-7.743-3.18-7.744-13.974-6.531-18.704   c0.313-1.218,0.921-2.351,1.563-3.551c2.232-4.163,2.401-5.608,0.857-7.365c-6.31-7.18-4.09-14.162-1.06-17.103   c0,0,9.334,0.92,9.441,0.78c-0.475,0.625-2.203,8.203-0.869,9.721c6.501,7.397,2.257,15.313,0.444,18.692   c-0.256,0.476-0.601,1.119-0.71,1.389c-0.561,2.31-0.181,6.266,0.673,6.895c2.555,1.049,3.77,3.967,2.721,6.521   C176.799,219.51,174.931,220.677,172.963,220.677z" /><circle  fill="#FFFFFF" cx="172.5" cy="165.375" r="17.375" /><circle  fill="#FFFFFF" cx="227.5" cy="165.375" r="17.375" /><circle  cx="172.5" cy="165.375" r="5" class="EyeColor" fill="#1860B5"  /><circle  cx="227.5" cy="165.375" r="5" class="EyeColor" fill="#1860B5"  /><polygon  points="190,247 215,247 216,252 189,252" /></g></svg>