<?xml version="1.0" encoding="iso-8859-1"?><svg id="MegFaceHot Kiss" version="1.1" xmlns="http://www.w3.org/2000/svg" xmlns:xlink="http://www.w3.org/1999/xlink" xml:space="preserve" x="0px" y="0px" viewbox="0 0 400 400" width="400" height="400" ><g id="Face"><g  /><g  /><circle  cx="133.333" cy="173.238" r="20" class="SkinColor" fill="#F7CCBA"  /><circle  cx="266.667" cy="173.238" r="20" class="SkinColor" fill="#F7CCBA"  /><circle  fill="#D97755" cx="266.667" cy="173.238" r="10.146" /><circle  fill="#D97755" cx="133.333" cy="173.238" r="10.146" /><path  d="M266.991,139c-0.184-37-29.986-59-66.325-59H200h-0.667c-36.338,0-66.141,22-66.325,59H133v112.667    C133,267.315,145.976,280,161.982,280h76.036C254.024,280,267,267.315,267,251.667V139H266.991z" class="SkinColor" fill="#F7CCBA"  /></g><g id="Beard"><path  d="M237.914,232.667c0.588,21.514-6.496,33.333-17.278,34.781c-20.001,6.178-35.59,1.095-41.147,0    c-10.782-1.447-17.798-13.266-17.21-34.781c0,0-13.424,35.792,4.507,42.458c0,0,14.733,6.248,33.209,5.721    c18.663,0.527,33.311-5.721,33.311-5.721C251.236,268.459,237.914,232.667,237.914,232.667z" class="BeardColor" fill="#5D2300"  /></g><g id="Eyebrow"><path  d="M215.25,155.703c0,0,0-20.167,27.5-11.032l-1.5,11.032C241.25,155.703,224.583,143.37,215.25,155.703z" /><path  d="M184.75,155.703c0,0,0-20.167-27.5-11.032l1.5,11.032C158.75,155.703,175.417,143.37,184.75,155.703z" /></g><g id="Hair"><path  fill="#845F41" d="M284.5,297.5c-5.833,3.333,3.064-12.29-4.506-9.449c-10.16,3.81-19.062-3.01-19.062-3.01      s13.042-0.502,12.415-8.528c-1.347-14.014-7.934-6.833-11.697-18.872c-3.157-10.1,11.568-15.566,2.099-18.881      c-7.524-2.634-6.622-11.816-3.2-15.334c4.013-7.526,7.975-9.405,0.45-16.426c-7.525-7.023-5.586-12.753-2.074-19.275      c3.511-6.52,10.532-16.268,5.741-19.392c-13.167-8.584-8.648-16.805-8.146-25.334c-19-4.665-9.205-19.74-16.354-22.75      c-8.087-3.406-5.819-8.503-14.852-13.286c-8.527-4.514-19.483,0-28.512,0c-14,0-32.686-8.026-40.71,14.547      c-4.321,12.153-19.043,9.497-17.031,21.654c2.883,17.433-9.705,23.509-4.061,31.787c5.644,8.277,3.817,16.618-1.073,21.133      s-0.57,8.134,5.073,17.165c5.643,9.029-4.511,10.98-0.75,17c3.763,6.02,7.731,14.972,0.583,23.25      c-11,11,2.333,18.125-3.309,23.015c-5.644,4.892-17.191,7.651-4.524,20.151c0,0-13.032-3.597-19.554-14.634      c-4.6-7.784-10.032-1.003-13.794,3.511c-3.763,4.515-10.639,9.313-14.652,2.29c-5.19-9.082-9.494-9.665-13.188-5.299      c-5.517,6.52-14.305,5.654-16.312-0.367c-2.007-6.02,6.333-11-5.258-14.181C35.484,260.5,39.483,250.85,45,244.83      c5.518-6.021,12.517-17.31,7.5-23.83c-17.016-13.5-8.513-27.976-4.5-35.5c4.704-8.821,16.789-14.184,9.773-23.358      c-6.52-8.528-6.294-13.086-3.01-18.562c4.514-7.524,9.531-7.524,11.537-19.061c2.007-11.535,3.352-15.832,8.367-21.852      C79.057,97.4,91,99,96.594,80C98,62,113.398,66.39,118.47,60.811c5.014-5.518,12.969-20.823,25.009-16.811      c15.521,10,23.647-6.264,32.176-5.26c8.528,1.002,26.132-3.966,36.117-3.512c11.037,0.502,16.051,7.526,21.068,7.526      c5.018,0,13.544-2.51,21.069,1.504C261.434,48.272,273.5,52,274.5,63c4.014,5.017,12.015,2.326,16.531,4.332      c4.515,2.008,12.039,3.009,16.554,11.537c3.71,7.01,0.501,12.541,6.02,18.059C319.123,102.446,338.5,102,334.5,125      c2.006,8.528,15.724,11.054,16.224,21.588c0.501,10.534-14.724,26.649,9.385,40.411c11.391,13,6.758,21.208,2.391,29.5      c-5.017,9.533-11,12.257-11,19.28c0,7.024,11.262,13.144,8.253,22.173c-3.01,9.029-13.203,6.246-12.542,11.536      c1.001,8.022-6.68,16.681-14.547,12.54c-5.031-2.647-11.199,1.028-14.852,6.085c-5.106,7.069-2.646,11.219-22.642,7.94      C295.17,296.056,290.333,294.167,284.5,297.5z" /></g><g id="Top"><path  d="M206.858,218.32c-2.967,0-5.258,1.738-6.955,3.885c-1.689-2.136-3.819-3.697-6.519-3.697   c-5.186,0-7.646,5.734-8.172,7.141c-2.327,5.556-10.513,6.601-11.235,7.179c-0.947,0.759-1.415,1.924-1.415,3.138   c0,4.669,3.605,7.518,7.96,8.687c-1.898,15.908,19.576,15.924,19.773,15.908c8.607-0.545,20.017-3.079,20.017-18.601   c0-1.18,7.563-4.044,5.859-8.881c-0.475-1.742-2.058-3.08-3.858-3.08c-0.024,0-0.048,0-0.072,0   C216.875,229.625,212.5,218.32,206.858,218.32L206.858,218.32z" class="SkinColor" fill="#F7CCBA"  /><path  fill="none" stroke="#000000" stroke-width="2" stroke-linecap="round" stroke-linejoin="round" stroke-miterlimit="10" d="M189.895,261.333c0,0,10.23-13.5,21.105,0" /><path  fill="none" stroke="#000000" stroke-width="4" stroke-linecap="round" stroke-linejoin="round" stroke-miterlimit="10" d="M216.875,171.25c0,0,8.946,7.125,28.25-2.375" /><path  fill="none" stroke="#000000" stroke-width="2" stroke-linecap="round" stroke-linejoin="round" stroke-miterlimit="10" d="M219.75,165.25c0,0,7.125,7.125,22.5-2.375" /><line  fill="none" stroke="#000000" stroke-width="2" stroke-linecap="round" stroke-linejoin="round" stroke-miterlimit="10" x1="221.375" y1="180.688" x2="223.25" y2="173.815" /><line  fill="none" stroke="#000000" stroke-width="2" stroke-linecap="round" stroke-linejoin="round" stroke-miterlimit="10" x1="232.125" y1="182.188" x2="231" y2="173.815" /><line  fill="none" stroke="#000000" stroke-width="2" stroke-linecap="round" stroke-linejoin="round" stroke-miterlimit="10" x1="239.063" y1="171.345" x2="242.875" y2="177.251" /><path  fill="none" stroke="#000000" stroke-width="4" stroke-linecap="round" stroke-linejoin="round" stroke-miterlimit="10" d="M183.125,171.25c0,0-8.946,7.125-28.25-2.375" /><path  fill="none" stroke="#000000" stroke-width="2" stroke-linecap="round" stroke-linejoin="round" stroke-miterlimit="10" d="M180.25,165.25c0,0-7.125,7.125-22.5-2.375" /><line  fill="none" stroke="#000000" stroke-width="2" stroke-linecap="round" stroke-linejoin="round" stroke-miterlimit="10" x1="178.625" y1="180.688" x2="176.75" y2="173.815" /><line  fill="none" stroke="#000000" stroke-width="2" stroke-linecap="round" stroke-linejoin="round" stroke-miterlimit="10" x1="167.875" y1="182.188" x2="169" y2="173.815" /><line  fill="none" stroke="#000000" stroke-width="2" stroke-linecap="round" stroke-linejoin="round" stroke-miterlimit="10" x1="160.938" y1="171.345" x2="157.125" y2="177.251" /><path  fill="#AF1212" d="M176.563,235.967c0,0,8.104,1.452,12.375-8.857c0,0,4.5-12.435,11.063,3.578c0,0,4.167-12.965,10.167-6.62   c0,0,4.167,12.794,12.146,11.265c0,0-6,2.333-6,6.627c0,11.033-6.313,13.986-16.313,14.612c0,0-16.25,1.551-15.563-15.327   C184.438,241.245,176.563,240.798,176.563,235.967z" /><path  fill="#FFFFFF" d="M196.958,240.211c0,0,2.621-5.163,6.583,0C203.542,240.211,200.023,245.944,196.958,240.211z" /><line  fill="none" stroke="#FF1E00" stroke-width="5" stroke-linecap="round" stroke-linejoin="round" stroke-miterlimit="10" x1="174.895" y1="196" x2="166" y2="212.75" /><line  fill="none" stroke="#FF1E00" stroke-width="5" stroke-linecap="round" stroke-linejoin="round" stroke-miterlimit="10" x1="189.895" y1="196" x2="181" y2="212.75" /><line  fill="none" stroke="#FF1E00" stroke-width="5" stroke-linecap="round" stroke-linejoin="round" stroke-miterlimit="10" x1="204.895" y1="196" x2="196" y2="212.75" /><line  fill="none" stroke="#FF1E00" stroke-width="5" stroke-linecap="round" stroke-linejoin="round" stroke-miterlimit="10" x1="219.895" y1="196" x2="211" y2="212.75" /><line  fill="none" stroke="#FF1E00" stroke-width="5" stroke-linecap="round" stroke-linejoin="round" stroke-miterlimit="10" x1="234.895" y1="196" x2="226" y2="212.75" /><circle  fill="#F47878" cx="209.75" cy="247" r="3.645" /></g></svg>