<?xml version="1.0" encoding="iso-8859-1"?><svg id="MegFacePuke" version="1.1" xmlns="http://www.w3.org/2000/svg" xmlns:xlink="http://www.w3.org/1999/xlink" xml:space="preserve" x="0px" y="0px" viewbox="0 0 400 400" width="400" height="400" ><g id="Face"><g  /><g  /><circle  cx="133.333" cy="173.238" r="20" class="SkinColor" fill="#F7CCBA"  /><circle  cx="266.667" cy="173.238" r="20" class="SkinColor" fill="#F7CCBA"  /><circle  fill="#D97755" cx="266.667" cy="173.238" r="10.146" /><circle  fill="#D97755" cx="133.333" cy="173.238" r="10.146" /><path  d="M200.667,80h-1.333C162.883,80,133,102.549,133,139v58c4,22.105,17.193,45.733,27.333,55.5    c24.917,24,36.479,22.833,39.667,22.833c3.63,0,17.083,0.265,39.667-22.833C249.509,242.433,263,219.105,267,197v-58    C267,102.549,237.117,80,200.667,80z" class="SkinColor" fill="#F7CCBA"  /></g><g id="Beard"><path  d="M246.378,218.938h-92.756c-3.427-25-14.622-23.75-20.622-25.275v20.275c0,36.451,23.75,66,67,66     s67-29.549,67-66v-20.275C261,195.188,249.799,193.938,246.378,218.938z M245.37,245.317c0,0-14.203,22.926-45.65,23.844     c-31.496-0.918-45.053-23.74-45.053-23.74c0.061-4.879-0.117-16.484-0.457-20.484h91.581     C245.452,228.938,245.309,240.438,245.37,245.317z" class="BeardColor" fill="#5D2300"  /></g><g id="Nose"><path  fill="#D97755" d="M209.45,199.181c0,0-8.677-27.241-9.45-29.514c-1.022,2.063-10.857,29.741-10.857,29.741    c-3.107,0.223-17.628,14.594,10.221,15.092C223.438,214.931,216.305,199.397,209.45,199.181z" /></g><g id="Eye"><path  fill="#FFFFFF" d="M184.536,167.25c0,0-14.912-6.75-28.162-2.457c0,0-10.249,22.707,14.318,24.063    C170.692,188.856,188,190.875,184.536,167.25z" /><circle  cx="170.625" cy="175" r="4.5" class="EyeColor" fill="#1860B5"  /><path  fill="none" stroke="#000000" stroke-width="2" stroke-linecap="round" stroke-linejoin="round" stroke-miterlimit="10" d="M153.878,165.625c0,0,15.497-6.583,31.997,2.708" /><path  fill="none" stroke="#000000" stroke-width="2" stroke-linecap="round" stroke-linejoin="round" stroke-miterlimit="10" d="M153.878,161.625c0,0,15.497-6.583,31.997,2.708" /><line  fill="none" stroke="#000000" stroke-width="2" stroke-linecap="round" stroke-linejoin="round" stroke-miterlimit="10" x1="153.125" y1="157.313" x2="156.875" y2="164.333" /><line  fill="none" stroke="#000000" stroke-width="2" stroke-linecap="round" stroke-linejoin="round" stroke-miterlimit="10" x1="160.208" y1="155.813" x2="163.261" y2="163.092" /><line  fill="none" stroke="#000000" stroke-width="2" stroke-linecap="round" stroke-linejoin="round" stroke-miterlimit="10" x1="167.563" y1="155.813" x2="169.208" y2="163.429" /><path  fill="#FFFFFF" d="M215.464,167.25c0,0,14.912-6.75,28.162-2.457c0,0,10.249,22.707-14.318,24.063    C229.308,188.856,212,190.875,215.464,167.25z" /><circle  cx="229.375" cy="175" r="4.5" class="EyeColor" fill="#1860B5"  /><path  fill="none" stroke="#000000" stroke-width="2" stroke-linecap="round" stroke-linejoin="round" stroke-miterlimit="10" d="M246.122,165.625c0,0-15.497-6.583-31.997,2.708" /><path  fill="none" stroke="#000000" stroke-width="2" stroke-linecap="round" stroke-linejoin="round" stroke-miterlimit="10" d="M246.122,161.625c0,0-15.497-6.583-31.997,2.708" /><line  fill="none" stroke="#000000" stroke-width="2" stroke-linecap="round" stroke-linejoin="round" stroke-miterlimit="10" x1="246.875" y1="157.313" x2="243.125" y2="164.333" /><line  fill="none" stroke="#000000" stroke-width="2" stroke-linecap="round" stroke-linejoin="round" stroke-miterlimit="10" x1="239.792" y1="155.813" x2="236.739" y2="163.092" /><line  fill="none" stroke="#000000" stroke-width="2" stroke-linecap="round" stroke-linejoin="round" stroke-miterlimit="10" x1="232.438" y1="155.813" x2="230.792" y2="163.429" /></g><g id="Eyebrow"><path  d="M211.438,148.083c0,0,4.75-19.458,36.125,6.167C247.563,154.25,220.813,151.416,211.438,148.083z" /><path  d="M188.563,148.083c0,0-4.75-19.458-36.125,6.167C152.438,154.25,179.188,151.416,188.563,148.083z" /></g><g id="Glass"><rect  x="188.508" y="170.721" width="22.984" height="5.033" /><ellipse  fill="none" stroke="#000000" stroke-width="3" stroke-linecap="round" stroke-linejoin="round" stroke-miterlimit="10" cx="233" cy="173.5" rx="22.515" ry="21" /><ellipse  fill="none" stroke="#000000" stroke-width="3" stroke-linecap="round" stroke-linejoin="round" stroke-miterlimit="10" cx="167" cy="173.5" rx="22.515" ry="21" /></g><g id="Hair"><path  fill="#845F41" d="M282.667,125.667c0.427-40.667-19-55.375-43.333-60.042c-24.333-4.667-48.856-0.774-68.083,5.708    c0,0-12.583-14.333-30.583,1.333c-15.842,13.789-26,51.667-14.667,80.571l13.333,20c0,0-1.333-47.905,9-47.571    c0,0-3.195-15.492,6.568-20.981c4.084-0.965,9.045-1.031,15.099-0.019c2.714,8.402,29.695,13.241,39,13.241    c9.269,0,35.292,1.067,47.652,13.441l1.868,36.984L267,155.704v-0.022l6-0.85C273,154.833,282.439,147.344,282.667,125.667z" /><g  /></g><g id="Top"><path  fill="#51C2F4" d="M297.05,263.331c8.108,2.711,24.88,25.16,37.536,24.513c10.238-0.524,3.952-11.812,3.952-11.812     C330.565,264.252,297.05,263.331,297.05,263.331z" /><path  fill="#51C2F4" d="M338.954,183.096c13.184-3.813,6.439-10.195,6.439-10.195c-7.359-5.435-14.996,10.845-14.996,10.845     S332.285,185.025,338.954,183.096z" /><path  fill="#51C2F4" d="M312.493,244.604c0,0,1.876,0.953,8.16,3.903c9.935,4.663,10.274-2.268,10.274-2.268     C328.93,237.311,312.493,244.604,312.493,244.604z" /><path  fill="#51C2F4" d="M346.411,262.271c-0.094-5.559-27.954-4.968-27.954-4.968s15.069,7.185,19.571,7.833     C348.28,266.613,346.411,262.271,346.411,262.271z" /><path  fill="#51C2F4" d="M294.535,255.848c16.09-1.001,10.103-9.243,10.103-9.243c-1.932-4.341-14.309-6.637-29.031-7.812     c32.272-1,63.394-3.648,66.558-12.773c2.385-6.878-11.102-7.749-30.511-5.766c22.001-4.551,38.593-9.734,37.948-15.68     c-1.681-15.503-61.079,4.023-101.683,19.266l0,0c0,0,0.432-0.517,1.072-1.332c34.711-13.391,82.115-30.759,74.579-40.594     c-10.932-14.27-50.888,11.457-78.823,32.33c-0.81,0.356-1.654,0.738-2.527,1.145c13.317-9.923,27.368-29.893,20.78-34.262     c-11.069-7.341-30.028,38.208-48.966,48.875c-5.197,3-8.925,5.551-9.435,5.997c0,0-8.463,6.724-2.179,7.326     c3.612,0.346,9.451-0.535,18.417,0.423c12.063,3.657,29.303,10.508,50.077,23.174c20.393,12.435,25.307,0.463,5.011-10.541     c0,0-3.836-2.557-11.359-5.676C276.794,253.844,288.351,256.232,294.535,255.848z" /><path  fill="#A2DDF2" d="M227.979,237.796c0,0,57.635,16.127,58.894,9.952C288.401,240.249,268.276,238.132,227.979,237.796z" /><path  fill="#A2DDF2" d="M242.891,224.873c0,0,46.902-35.773,54.334-27.862C304.657,204.922,251.24,222.719,242.891,224.873z" /><path  fill="#A2DDF2" d="M321.419,215.154c8.098,3.305,6.476,17.266-50.979,12.371C270.44,227.525,311.211,210.988,321.419,215.154    z" /><path  fill="none" stroke="#000000" stroke-width="4" stroke-linecap="round" stroke-linejoin="round" stroke-miterlimit="10" d="M186.562,226.911c0,0,25.104,8.149,7.504,30.169" /></g></svg>