<?xml version="1.0" encoding="iso-8859-1"?><svg id="MegFacePig" version="1.1" xmlns="http://www.w3.org/2000/svg" xmlns:xlink="http://www.w3.org/1999/xlink" xml:space="preserve" x="0px" y="0px" viewbox="0 0 400 400" width="400" height="400" ><g id="Face"><g  /><g  /><circle  cx="133.333" cy="173.238" r="20" class="SkinColor" fill="#F7CCBA"  /><circle  cx="266.667" cy="173.238" r="20" class="SkinColor" fill="#F7CCBA"  /><circle  fill="#D97755" cx="266.667" cy="173.238" r="10.146" /><circle  fill="#D97755" cx="133.333" cy="173.238" r="10.146" /><path  d="M200.667,80h-1.333C162.883,80,133,102.549,133,139v58c4,22.105,17.193,45.733,27.333,55.5    c24.917,24,36.479,22.833,39.667,22.833c3.63,0,17.083,0.265,39.667-22.833C249.509,242.433,263,219.105,267,197v-58    C267,102.549,237.117,80,200.667,80z" class="SkinColor" fill="#F7CCBA"  /></g><g id="Hair"><path  fill="#845F41" d="M282.667,125.667c0.427-40.667-19-55.375-43.333-60.042c-24.333-4.667-48.856-0.774-68.083,5.708    c0,0-12.583-14.333-30.583,1.333c-15.842,13.789-26,51.667-14.667,80.571l13.333,20c0,0-1.333-47.905,9-47.571    c0,0-3.195-15.492,6.568-20.981c4.084-0.965,9.045-1.031,15.099-0.019c2.714,8.402,29.695,13.241,39,13.241    c9.269,0,35.292,1.067,47.652,13.441l1.868,36.984L267,155.704v-0.022l6-0.85C273,154.833,282.439,147.344,282.667,125.667z" /><g  /></g><g id="Top"><ellipse  fill="#D97755" cx="246.876" cy="223.442" rx="17.672" ry="23.442" /><ellipse  cx="259" cy="223.442" rx="26.795" ry="25.422" class="SkinColor" fill="#F7CCBA"  /><ellipse  fill="#D97755" cx="153.124" cy="223.442" rx="17.672" ry="23.442" /><ellipse  cx="141" cy="223.442" rx="26.795" ry="25.422" class="SkinColor" fill="#F7CCBA"  /><ellipse  fill="#D97755" cx="200.5" cy="213.806" rx="41.275" ry="36.317" /><path  fill="#D97755" d="M177.641,236.931c-16.414,45.391,37.121,35.482,45.706,25.253c8.586-10.229-4.04-27.491-4.04-27.491   L177.641,236.931z" /><path  d="M181.654,239c-13.102,35.5,29.631,27.75,36.484,19.75s-3.225-21.5-3.225-21.5L181.654,239z" /><path  fill="#FFFFFF" d="M189.346,238.677c-9.581,17.432,17.085,13.424,22.251,9.823c6.499-4.53,0.796-12.333,0.796-12.333   L189.346,238.677z" /><ellipse  cx="200.5" cy="213.806" rx="36.75" ry="32.335" /><circle  fill="#D97755" cx="172.5" cy="165.375" r="22" /><circle  fill="#FFFFFF" cx="172.5" cy="165.375" r="17.375" /><circle  cx="172.5" cy="165.375" r="5.493" class="EyeColor" fill="#1860B5"  /><circle  fill="#D97755" cx="227.5" cy="165.375" r="22" /><circle  fill="#FFFFFF" cx="227.5" cy="165.375" r="17.375" /><circle  cx="227.5" cy="165.375" r="5.493" class="EyeColor" fill="#1860B5"  /><ellipse  fill="#E59477" cx="200.5" cy="213.806" rx="30.75" ry="27.056" /><ellipse  cx="187" cy="213.333" rx="5.833" ry="12.333" /><ellipse  cx="213" cy="213.333" rx="5.833" ry="12.333" /></g></svg>