<?xml version="1.0" encoding="iso-8859-1"?><svg id="MegFaceSurprised" version="1.1" xmlns="http://www.w3.org/2000/svg" xmlns:xlink="http://www.w3.org/1999/xlink" xml:space="preserve" x="0px" y="0px" viewbox="0 0 400 400" width="400" height="400" ><g id="Face"><g  /><g  /><circle  cx="133.333" cy="173.238" r="20" class="SkinColor" fill="#F7CCBA"  /><circle  cx="266.667" cy="173.238" r="20" class="SkinColor" fill="#F7CCBA"  /><circle  fill="#D97755" cx="266.667" cy="173.238" r="10.146" /><circle  fill="#D97755" cx="133.333" cy="173.238" r="10.146" /><path  d="M200.667,80h-1.333C162.883,80,133,102.549,133,139v58c4,22.105,17.193,45.733,27.333,55.5    c24.917,24,36.479,22.833,39.667,22.833c3.63,0,17.083,0.265,39.667-22.833C249.509,242.433,263,219.105,267,197v-58    C267,102.549,237.117,80,200.667,80z" class="SkinColor" fill="#F7CCBA"  /></g><g id="Beard"><path  d="M246.378,218.938h-92.756c-3.427-25-14.622-23.75-20.622-25.275v20.275c0,36.451,23.75,66,67,66     s67-29.549,67-66v-20.275C261,195.188,249.799,193.938,246.378,218.938z M245.37,245.317c0,0-14.203,22.926-45.65,23.844     c-31.496-0.918-45.053-23.74-45.053-23.74c0.061-4.879-0.117-16.484-0.457-20.484h91.581     C245.452,228.938,245.309,240.438,245.37,245.317z" class="BeardColor" fill="#5D2300"  /></g><g id="Nose"><path  fill="#D97755" d="M209.45,199.181c0,0-8.677-27.241-9.45-29.514c-1.022,2.063-10.857,29.741-10.857,29.741    c-3.107,0.223-17.628,14.594,10.221,15.092C223.438,214.931,216.305,199.397,209.45,199.181z" /></g><g id="Eye"><path  fill="#FFFFFF" d="M184.536,167.25c0,0-14.912-6.75-28.162-2.457c0,0-10.249,22.707,14.318,24.063    C170.692,188.856,188,190.875,184.536,167.25z" /><circle  cx="170.625" cy="175" r="4.5" class="EyeColor" fill="#1860B5"  /><path  fill="none" stroke="#000000" stroke-width="2" stroke-linecap="round" stroke-linejoin="round" stroke-miterlimit="10" d="M153.878,165.625c0,0,15.497-6.583,31.997,2.708" /><path  fill="none" stroke="#000000" stroke-width="2" stroke-linecap="round" stroke-linejoin="round" stroke-miterlimit="10" d="M153.878,161.625c0,0,15.497-6.583,31.997,2.708" /><line  fill="none" stroke="#000000" stroke-width="2" stroke-linecap="round" stroke-linejoin="round" stroke-miterlimit="10" x1="153.125" y1="157.313" x2="156.875" y2="164.333" /><line  fill="none" stroke="#000000" stroke-width="2" stroke-linecap="round" stroke-linejoin="round" stroke-miterlimit="10" x1="160.208" y1="155.813" x2="163.261" y2="163.092" /><line  fill="none" stroke="#000000" stroke-width="2" stroke-linecap="round" stroke-linejoin="round" stroke-miterlimit="10" x1="167.563" y1="155.813" x2="169.208" y2="163.429" /><path  fill="#FFFFFF" d="M215.464,167.25c0,0,14.912-6.75,28.162-2.457c0,0,10.249,22.707-14.318,24.063    C229.308,188.856,212,190.875,215.464,167.25z" /><circle  cx="229.375" cy="175" r="4.5" class="EyeColor" fill="#1860B5"  /><path  fill="none" stroke="#000000" stroke-width="2" stroke-linecap="round" stroke-linejoin="round" stroke-miterlimit="10" d="M246.122,165.625c0,0-15.497-6.583-31.997,2.708" /><path  fill="none" stroke="#000000" stroke-width="2" stroke-linecap="round" stroke-linejoin="round" stroke-miterlimit="10" d="M246.122,161.625c0,0-15.497-6.583-31.997,2.708" /><line  fill="none" stroke="#000000" stroke-width="2" stroke-linecap="round" stroke-linejoin="round" stroke-miterlimit="10" x1="246.875" y1="157.313" x2="243.125" y2="164.333" /><line  fill="none" stroke="#000000" stroke-width="2" stroke-linecap="round" stroke-linejoin="round" stroke-miterlimit="10" x1="239.792" y1="155.813" x2="236.739" y2="163.092" /><line  fill="none" stroke="#000000" stroke-width="2" stroke-linecap="round" stroke-linejoin="round" stroke-miterlimit="10" x1="232.438" y1="155.813" x2="230.792" y2="163.429" /></g><g id="Eyebrow"><path  d="M211.438,148.083c0,0,4.75-19.458,36.125,6.167C247.563,154.25,220.813,151.416,211.438,148.083z" /><path  d="M188.563,148.083c0,0-4.75-19.458-36.125,6.167C152.438,154.25,179.188,151.416,188.563,148.083z" /></g><g id="Glass"><rect  x="188.508" y="170.721" width="22.984" height="5.033" /><ellipse  fill="none" stroke="#000000" stroke-width="3" stroke-linecap="round" stroke-linejoin="round" stroke-miterlimit="10" cx="233" cy="173.5" rx="22.515" ry="21" /><ellipse  fill="none" stroke="#000000" stroke-width="3" stroke-linecap="round" stroke-linejoin="round" stroke-miterlimit="10" cx="167" cy="173.5" rx="22.515" ry="21" /></g><g id="Hair"><path  fill="#845F41" d="M282.667,125.667c0.427-40.667-19-55.375-43.333-60.042c-24.333-4.667-48.856-0.774-68.083,5.708    c0,0-12.583-14.333-30.583,1.333c-15.842,13.789-26,51.667-14.667,80.571l13.333,20c0,0-1.333-47.905,9-47.571    c0,0-3.195-15.492,6.568-20.981c4.084-0.965,9.045-1.031,15.099-0.019c2.714,8.402,29.695,13.241,39,13.241    c9.269,0,35.292,1.067,47.652,13.441l1.868,36.984L267,155.704v-0.022l6-0.85C273,154.833,282.439,147.344,282.667,125.667z" /><g  /></g><g id="Top"><path  fill="#680505" d="M84.284,251.829l-33.37,65.979l77.928-42.907c0,0-30.691-24.209-18.724-46.2l-39.82-27.407L84.284,251.829z" /><path  fill="#FFD110" d="M105.619,227.461L66.22,213.17l20.943,26.924l-23.321,63.506l54.653-30.397   C118.495,273.202,99.476,262.536,105.619,227.461z" /><path  fill="#680505" d="M101.634,232.282l-65.853-22.54c0,0,53.216,54.531,5.158,72.983c0,0,55.716-15.537,42.447,14.295   c-13.269,29.832-11.977,46.778-11.977,46.778l61.348-48.101C132.757,295.697,80.85,272.52,101.634,232.282z" /><path  d="M188.047,255.757c-11.432,0-19.248-6.433-14.741-12.216c4.504-5.78,12.919-10.726,28.496-10.922   c0,0,15.044-0.498,24.629,10.587c5.036,5.824-2.749,12.552-14.465,12.552H188.047z" /><path  fill="#822006" d="M184.227,249.974c1.762,1.639,4.686,3.026,8.155,3.026h14.831c3.261,0,6.022-1.122,7.802-2.593   C209.815,248.283,198.411,244.985,184.227,249.974z" /><path  fill="#FFD110" d="M97.209,234.811l-50.402-9.095c0,0,32.282,10.917,26.319,29.724c-5.962,18.807-13.174,20.133-13.174,20.133   s35.1-18.06,35.878,10.235c0.348,12.648-14.538,40.732-14.538,40.732l36.81-32.773C118.101,293.768,81.225,282.251,97.209,234.811z" /></g></svg>