<?xml version="1.0" encoding="iso-8859-1"?><svg id="MegFaceEmbarrassed" version="1.1" xmlns="http://www.w3.org/2000/svg" xmlns:xlink="http://www.w3.org/1999/xlink" xml:space="preserve" x="0px" y="0px" viewbox="0 0 400 400" width="400" height="400" ><g id="Face"><g  /><g  /><circle  cx="133.333" cy="173.238" r="20" class="SkinColor" fill="#F7CCBA"  /><circle  cx="266.667" cy="173.238" r="20" class="SkinColor" fill="#F7CCBA"  /><circle  fill="#D97755" cx="266.667" cy="173.238" r="10.146" /><circle  fill="#D97755" cx="133.333" cy="173.238" r="10.146" /><path  d="M267,189v-50h0.18c-0.184-37-29.986-59-66.325-59h-1.521c-36.338,0-66.141,22-66.325,59H133v50l12,64.999    c0,0,37.999,26.001,45,26.001h20.189c7.001,0,44.811-26,44.811-26L267,189z" class="SkinColor" fill="#F7CCBA"  /></g><g id="Mouth"><path  d="M169.146,239.908l63.708-3.167C232.854,236.742,201.438,253.575,169.146,239.908z" /></g><g id="Beard"><path  d="M214.04,280l-0.072-0.123c-0.072-0.263-0.21-0.492-0.407-0.692L199.674,266.5l-13.234,12.645    c-0.2,0.225-0.347,0.471-0.419,0.746L185.96,280h0.045c-0.018,0-0.045,0.19-0.045,0.294c0,7.754,6.286,14.04,14.04,14.04    s14.04-6.286,14.04-14.04c0-0.107-0.033-0.294-0.051-0.294H214.04z" class="BeardColor" fill="#5D2300"  /></g><g id="Nose"><path  fill="#D97755" d="M200,169.667c-1.524,3.256-8.023,25.447-7.442,36.582c0.418,8.008,4.393,9.769,7.442,10.25    c3.239-0.481,7.024-2.242,7.442-10.25C208.022,195.114,201.046,172.923,200,169.667z" /></g><g id="Eye"><circle  fill="#FFFFFF" cx="230" cy="175" r="12" /><circle  cx="232.834" cy="179" r="5" class="EyeColor" fill="#1860B5"  /><circle  fill="#FFFFFF" cx="170" cy="175" r="12" /><circle  cx="172.612" cy="179" r="5" class="EyeColor" fill="#1860B5"  /></g><g id="Eyebrow"><path  d="M188.125,148c0,0-10.219-21.702-29.25-7.25c0,0,14.292-10.5,20.792,10.75L188.125,148z" /><path  d="M211.875,148c0,0,10.219-21.702,29.25-7.25c0,0-17.542-5.32-19.875,10.75L211.875,148z" /></g><g id="Glass"><rect  x="188.508" y="165" width="22.984" height="5.033" /><path  fill="none" stroke="#000000" stroke-width="3" stroke-linecap="round" stroke-linejoin="round" stroke-miterlimit="10" d="M211.492,173.238c0,0-0.508-9.738,0-11.405C212,160.167,234,155.925,249.333,165c0,0,8.167,3.183,3.667,10" /><path  fill="none" stroke="#000000" stroke-width="3" stroke-linecap="round" stroke-linejoin="round" stroke-miterlimit="10" d="M188.232,173.238c0,0,0.508-9.738,0-11.405c-0.508-1.667-22.508-5.908-37.841,3.167c0,0-7.64,4.683-3.14,11.5" /></g><g id="Hair"><path  fill="#845F41" d="M281.925,96.463c0,0-10.925-22.188-36.925-15.333v-0.001c0,0-6.501,1.873-19.448-1.317    c-5.177-1.275-15.013-4.092-25.351-4.366c-10.338-0.274-20.388,3.09-25.586,4.366C161.622,83.003,155,81.129,155,81.129v0.001    c-26-6.855-36.981,15.333-36.981,15.333c-16.356,35.722,9.628,54.036,9.628,54.036c2.274,2.845,4.066,5.255,5.353,7.301V139    c0-36.451,29.883-59,66.333-59H200h0.667C237.117,80,267,102.55,267,139v18.915c1.291-2.07,3.06-4.517,5.368-7.416    C272.368,150.499,298.223,132.185,281.925,96.463z" /></g><g id="Top"><rect  x="251" y="73" width="7" height="54" /><rect  x="266" y="73" width="7" height="54" /><rect  x="280" y="73" width="7" height="54" /><path  fill="#034287" d="M136.57,129.267c0.509-3.925,2.815-9.485,8.336-17.393c0,0,17.836,24.009,0,26.753   c0,0-0.671,0.018-1.635-0.133c5.02,9.828,9.074,23.652-6.139,25.993C137.132,164.487,111.885,165.163,136.57,129.267z" /><path  fill="#51C2F4" d="M134.52,128.449c0,0,22.735,30.605,0,34.102C134.52,162.551,110.255,163.207,134.52,128.449z" /><path  fill="#51C2F4" d="M144.388,114.068c0,0,13.91,18.725,0,20.865C144.388,134.933,129.542,135.334,144.388,114.068z" /><path  fill="#FFFFFF" d="M136.694,159.251c0.175,0,0.353-0.031,0.527-0.096c2.844-1.066,4.661-2.637,5.402-4.669   c0.93-2.549-0.236-4.742-0.372-4.983c-0.406-0.723-1.32-0.979-2.042-0.572c-0.718,0.404-0.975,1.31-0.579,2.03   c0.026,0.05,0.641,1.262,0.164,2.527c-0.431,1.142-1.685,2.13-3.627,2.858c-0.775,0.29-1.169,1.155-0.877,1.931   C135.515,158.879,136.087,159.251,136.694,159.251z" /></g></svg>