<?xml version="1.0" encoding="iso-8859-1"?><svg id="MegFaceHot Kiss" version="1.1" xmlns="http://www.w3.org/2000/svg" xmlns:xlink="http://www.w3.org/1999/xlink" xml:space="preserve" x="0px" y="0px" viewbox="0 0 400 400" width="400" height="400" ><g id="Face"><g  /><g  /><circle  cx="133.333" cy="173.238" r="20" class="SkinColor" fill="#F7CCBA"  /><circle  cx="266.667" cy="173.238" r="20" class="SkinColor" fill="#F7CCBA"  /><circle  fill="#D97755" cx="266.667" cy="173.238" r="10.146" /><circle  fill="#D97755" cx="133.333" cy="173.238" r="10.146" /><path  d="M200.667,80h-1.333C162.883,80,133,102.549,133,139v58c4,22.105,17.193,45.733,27.333,55.5    c24.917,24,36.479,22.833,39.667,22.833c3.63,0,17.083,0.265,39.667-22.833C249.509,242.433,263,219.105,267,197v-58    C267,102.549,237.117,80,200.667,80z" class="SkinColor" fill="#F7CCBA"  /></g><g id="Beard"><path  d="M246.378,218.938h-92.756c-3.427-25-14.622-23.75-20.622-25.275v20.275c0,36.451,23.75,66,67,66     s67-29.549,67-66v-20.275C261,195.188,249.799,193.938,246.378,218.938z M245.37,245.317c0,0-14.203,22.926-45.65,23.844     c-31.496-0.918-45.053-23.74-45.053-23.74c0.061-4.879-0.117-16.484-0.457-20.484h91.581     C245.452,228.938,245.309,240.438,245.37,245.317z" class="BeardColor" fill="#5D2300"  /></g><g id="Eyebrow"><path  d="M211.438,148.083c0,0,4.75-19.458,36.125,6.167C247.563,154.25,220.813,151.416,211.438,148.083z" /><path  d="M188.563,148.083c0,0-4.75-19.458-36.125,6.167C152.438,154.25,179.188,151.416,188.563,148.083z" /></g><g id="Hair"><path  fill="#845F41" d="M282.667,125.667c0.427-40.667-19-55.375-43.333-60.042c-24.333-4.667-48.856-0.774-68.083,5.708    c0,0-12.583-14.333-30.583,1.333c-15.842,13.789-26,51.667-14.667,80.571l13.333,20c0,0-1.333-47.905,9-47.571    c0,0-3.195-15.492,6.568-20.981c4.084-0.965,9.045-1.031,15.099-0.019c2.714,8.402,29.695,13.241,39,13.241    c9.269,0,35.292,1.067,47.652,13.441l1.868,36.984L267,155.704v-0.022l6-0.85C273,154.833,282.439,147.344,282.667,125.667z" /><g  /></g><g id="Top"><path  d="M206.858,218.32c-2.967,0-5.258,1.738-6.955,3.885c-1.689-2.136-3.819-3.697-6.519-3.697   c-5.186,0-7.646,5.734-8.172,7.141c-2.327,5.556-10.513,6.601-11.235,7.179c-0.947,0.759-1.415,1.924-1.415,3.138   c0,4.669,3.605,7.518,7.96,8.687c-1.898,15.908,19.576,15.924,19.773,15.908c8.607-0.545,20.017-3.079,20.017-18.601   c0-1.18,7.563-4.044,5.859-8.881c-0.475-1.742-2.058-3.08-3.858-3.08c-0.024,0-0.048,0-0.072,0   C216.875,229.625,212.5,218.32,206.858,218.32L206.858,218.32z" class="SkinColor" fill="#F7CCBA"  /><path  fill="none" stroke="#000000" stroke-width="2" stroke-linecap="round" stroke-linejoin="round" stroke-miterlimit="10" d="M189.895,261.333c0,0,10.23-13.5,21.105,0" /><path  fill="none" stroke="#000000" stroke-width="4" stroke-linecap="round" stroke-linejoin="round" stroke-miterlimit="10" d="M216.875,171.25c0,0,8.946,7.125,28.25-2.375" /><path  fill="none" stroke="#000000" stroke-width="2" stroke-linecap="round" stroke-linejoin="round" stroke-miterlimit="10" d="M219.75,165.25c0,0,7.125,7.125,22.5-2.375" /><line  fill="none" stroke="#000000" stroke-width="2" stroke-linecap="round" stroke-linejoin="round" stroke-miterlimit="10" x1="221.375" y1="180.688" x2="223.25" y2="173.815" /><line  fill="none" stroke="#000000" stroke-width="2" stroke-linecap="round" stroke-linejoin="round" stroke-miterlimit="10" x1="232.125" y1="182.188" x2="231" y2="173.815" /><line  fill="none" stroke="#000000" stroke-width="2" stroke-linecap="round" stroke-linejoin="round" stroke-miterlimit="10" x1="239.063" y1="171.345" x2="242.875" y2="177.251" /><path  fill="none" stroke="#000000" stroke-width="4" stroke-linecap="round" stroke-linejoin="round" stroke-miterlimit="10" d="M183.125,171.25c0,0-8.946,7.125-28.25-2.375" /><path  fill="none" stroke="#000000" stroke-width="2" stroke-linecap="round" stroke-linejoin="round" stroke-miterlimit="10" d="M180.25,165.25c0,0-7.125,7.125-22.5-2.375" /><line  fill="none" stroke="#000000" stroke-width="2" stroke-linecap="round" stroke-linejoin="round" stroke-miterlimit="10" x1="178.625" y1="180.688" x2="176.75" y2="173.815" /><line  fill="none" stroke="#000000" stroke-width="2" stroke-linecap="round" stroke-linejoin="round" stroke-miterlimit="10" x1="167.875" y1="182.188" x2="169" y2="173.815" /><line  fill="none" stroke="#000000" stroke-width="2" stroke-linecap="round" stroke-linejoin="round" stroke-miterlimit="10" x1="160.938" y1="171.345" x2="157.125" y2="177.251" /><path  fill="#AF1212" d="M176.563,235.967c0,0,8.104,1.452,12.375-8.857c0,0,4.5-12.435,11.063,3.578c0,0,4.167-12.965,10.167-6.62   c0,0,4.167,12.794,12.146,11.265c0,0-6,2.333-6,6.627c0,11.033-6.313,13.986-16.313,14.612c0,0-16.25,1.551-15.563-15.327   C184.438,241.245,176.563,240.798,176.563,235.967z" /><path  fill="#FFFFFF" d="M196.958,240.211c0,0,2.621-5.163,6.583,0C203.542,240.211,200.023,245.944,196.958,240.211z" /><line  fill="none" stroke="#FF1E00" stroke-width="5" stroke-linecap="round" stroke-linejoin="round" stroke-miterlimit="10" x1="174.895" y1="196" x2="166" y2="212.75" /><line  fill="none" stroke="#FF1E00" stroke-width="5" stroke-linecap="round" stroke-linejoin="round" stroke-miterlimit="10" x1="189.895" y1="196" x2="181" y2="212.75" /><line  fill="none" stroke="#FF1E00" stroke-width="5" stroke-linecap="round" stroke-linejoin="round" stroke-miterlimit="10" x1="204.895" y1="196" x2="196" y2="212.75" /><line  fill="none" stroke="#FF1E00" stroke-width="5" stroke-linecap="round" stroke-linejoin="round" stroke-miterlimit="10" x1="219.895" y1="196" x2="211" y2="212.75" /><line  fill="none" stroke="#FF1E00" stroke-width="5" stroke-linecap="round" stroke-linejoin="round" stroke-miterlimit="10" x1="234.895" y1="196" x2="226" y2="212.75" /><circle  fill="#F47878" cx="209.75" cy="247" r="3.645" /></g></svg>