<?xml version="1.0" encoding="iso-8859-1"?><svg id="MegFaceSkull" version="1.1" xmlns="http://www.w3.org/2000/svg" xmlns:xlink="http://www.w3.org/1999/xlink" xml:space="preserve" x="0px" y="0px" viewbox="0 0 400 400" width="400" height="400" ><g id="Bottom"><rect  fill="#0E4F77" width="400" height="400" /><polyline  fill="none" stroke="#F4E419" stroke-width="6" stroke-miterlimit="10" points="339,0 276.813,48 297,81 12,395" /><polyline  fill="none" stroke="#F4E419" stroke-width="6" stroke-miterlimit="10" points="100.667,391.333 121.333,348    100.667,297.311" /><polyline  fill="none" stroke="#F4E419" stroke-width="6" stroke-linecap="square" stroke-linejoin="bevel" stroke-miterlimit="10" points="311.333,22 318.667,63.667 360.667,115 365.333,175 382,221.006" /><polyline  fill="none" stroke="#F4E419" stroke-width="6" stroke-linecap="square" stroke-linejoin="bevel" stroke-miterlimit="10" points="363.218,147.802 325.333,242.694 363.218,323.333" /><polyline  fill="none" stroke="#F4E419" stroke-width="6" stroke-linecap="square" stroke-linejoin="bevel" stroke-miterlimit="10" points="130,265 83,265 24,280" /><line  fill="none" stroke="#F4E419" stroke-width="6" stroke-linecap="square" stroke-linejoin="bevel" stroke-miterlimit="10" x1="73" y1="267.221" x2="63" y2="300.333" /></g><g id="Face"><g  /><g  /><path  fill="#F4E419" d="M273.833,147.79c0,0,8.811-62.79-61.83-68.79c-118.376-10.054-4.42,195.552-4.42,195.552     c22.5,0,68.774-24.582,79.083-66.552c2.419-9.847-12.667-20.21-12.667-20.21c11,0,19.917-8.954,19.917-20     C293.917,156.745,284.833,147.79,273.833,147.79z" /><path  fill="#FFFFFF" d="M191.333,79h-1.333C153.548,79,124,108.101,124,144.552v7.255c-11,0.18-19.667,9.05-19.667,19.983     c0,10.933,14.667,23.787,25.667,23.967c0,0-17.227,9.969-11.667,27.218c8.202,25.441,55.133,48.227,92.479,44.246     C262.555,261.706,227.783,79,191.333,79z" /><circle  cx="133.333" cy="173.238" r="20" /><circle  cx="266.667" cy="173.238" r="20" /><path  d="M200.667,80H200h-0.667C162.883,80,133,102.549,133,139l4,48c-15.5,11.5-14.748,29.741-5.667,40.5     c11.91,14.111,44.842,51.939,69.251,51.435c22.727-0.469,56.993-38.296,68.083-51.435c9.081-10.759,10.083-29-5.667-40.5l4-48     C267,102.549,237.117,80,200.667,80z" /></g><g id="Hair"><path  fill="#F4E419" d="M145.295,70.034c14.013-16.273,38.548-27.517,56.187-27.181c19.754,0.375,35.56,8.997,35.56,8.997      c46.023,7.292,49.5,44.644,44.427,69.528c-0.761,11.743-0.376,20.806-0.376,20.806l-14.692,7.959      c0,0-7.173-58.265-14.652-64.006C241.694,78.418,120.875,92.642,145.295,70.034z" /><path  fill="#FEFEFE" d="M158.221,68.686c0,0-55.554-4.335-44.887,87.823c0,0,18-2.386,19.667-8.781    C134.667,141.333,142.637,80.596,158.221,68.686z" /><path  d="M140.953,132.909c-3.96,3.934-4.493,27.592-4.493,27.592l-14.017-5.945c-1.274-5.966-9.109-51.555,15.311-74.163      c14.013-16.273,38.548-27.517,56.187-27.181c19.754,0.375,35.56,8.997,35.56,8.997c46.023,7.292,49.5,44.644,44.427,69.528      c-0.761,11.743-0.376,20.806-0.376,20.806L258.86,160.5c0,0-7.173-58.265-14.652-64.006      C234.153,88.775,145.784,79.434,140.953,132.909z" /></g><g id="Top"><path  fill="#FFFFFF" d="M199,97.666c0,0,53.333-12.333,56.346,43c0,0,9.654,50-15.596,68.333c-8.301,6.027-64.5,10.586-82.25-3.5   c0,0-15.966-13.25-14.92-57.698C142.58,147.802,140,97.407,199,97.666z" /><polygon  fill="#FFFFFF" points="168.125,209 167,218.003 176.443,219.788 179.083,209.5" /><path  d="M191.431,189.408c0,0-4.321,8.691-1.785,11.98c2.536,3.289,8.079,3.289,8.173-3.523   C197.913,191.053,195.001,185.18,191.431,189.408z" /><path  d="M205.431,189.408c0,0-4.321,8.691-1.785,11.98c2.536,3.289,8.079,3.289,8.173-3.523   C211.913,191.053,209.001,185.18,205.431,189.408z" /><path  fill="#FFFFFF" d="M191.875,256.333l-1.5-16.333c0,0,23.125-7.875,40.875,0.375L229.333,252" /><line  fill="none" stroke="#000000" stroke-width="3" stroke-linecap="round" stroke-miterlimit="10" x1="203.5" y1="236" x2="203.5" y2="250" /><line  fill="none" stroke="#000000" stroke-width="3" stroke-linecap="round" stroke-miterlimit="10" x1="216.5" y1="236" x2="216.5" y2="248" /><path  fill="none" stroke="#FFFFFF" stroke-width="3" stroke-linecap="round" stroke-miterlimit="10" d="M195.5,254" /><path  fill="none" stroke="#FFFFFF" stroke-width="3" stroke-linecap="round" stroke-miterlimit="10" d="M195.5,240" /><polyline  fill="#FFFFFF" points="171,257 171,244 179.09,242.667 183.167,257 171,257" /><path  d="M214.833,128.167c0,0-7.331,8-7.499,13c-0.168,5,1.832,20.833,7.499,26.667C220.5,173.667,236.667,179.5,240,175.5   s6.833-31.167,1.333-36.667S222.167,120.833,214.833,128.167z" /><path  fill="#51C2F4" d="M167.937,173.157c0,0-8.672,18.73-4.076,22.986c4.596,4.256,10.622-2.343,9.758-19.12    C173.619,177.023,175.62,159.258,167.937,173.157" /><path  d="M191.419,142.921c0,0-2.11,20.45-11.686,25.968c-9.576,5.518-21.586,0.811-24.345-5.518    c-2.759-6.33-1.623-19.314,20.044-30.026C175.432,133.345,192.23,126.853,191.419,142.921z" /><path  fill="#FFFFFF" d="M212,214v14.561c-19,3.606-33.5-3.561-33.5-3.561l2.875-15" /><polygon  fill="#FFFFFF" points="235.625,209 236.833,225.006 224,227.006 223.333,212" /><line  fill="none" stroke="#000000" stroke-width="3" stroke-linecap="round" stroke-miterlimit="10" x1="201.976" y1="217.25" x2="200.5" y2="230.875" /><line  fill="none" stroke="#000000" stroke-width="3" stroke-linecap="round" stroke-miterlimit="10" x1="189.604" y1="216.375" x2="186.375" y2="229.575" /><path  fill="#FFFFFF" d="M169.5,256.333c0,0,61.25-8.833,63.5-2.333S163.712,269.229,169.5,256.333z" /></g></svg>