<?xml version="1.0" encoding="iso-8859-1"?><svg id="MegFaceHypnotized" version="1.1" xmlns="http://www.w3.org/2000/svg" xmlns:xlink="http://www.w3.org/1999/xlink" xml:space="preserve" x="0px" y="0px" viewbox="0 0 400 400" width="400" height="400" ><g id="Face"><g  /><g  /><circle  cx="133.333" cy="173.238" r="20" class="SkinColor" fill="#F7CCBA"  /><circle  cx="266.667" cy="173.238" r="20" class="SkinColor" fill="#F7CCBA"  /><circle  fill="#D97755" cx="266.667" cy="173.238" r="10.146" /><circle  fill="#D97755" cx="133.333" cy="173.238" r="10.146" /><path  d="M266.991,139c-0.184-37-29.986-59-66.325-59H200h-0.667c-36.338,0-66.141,22-66.325,59H133v112.667    C133,267.315,145.976,280,161.982,280h76.036C254.024,280,267,267.315,267,251.667V139H266.991z" class="SkinColor" fill="#F7CCBA"  /></g><g id="Beard"><path  d="M237.914,232.667c0.588,21.514-6.496,33.333-17.278,34.781c-20.001,6.178-35.59,1.095-41.147,0     c-10.782-1.447-17.798-13.266-17.21-34.781c0,0-13.424,35.792,4.507,42.458c0,0,14.733,6.248,33.209,5.721     c18.663,0.527,33.311-5.721,33.311-5.721C251.236,268.459,237.914,232.667,237.914,232.667z" class="BeardColor" fill="#5D2300"  /></g><g id="Nose"><path  fill="#D97755" d="M209.45,197.18c-8.787-7.417-11.48-7.348-20.307,0.228c-2.039,1.75-11.393,14.217,1.026,9.26    c2.221-0.887,5.362,5.764,9.195,5.832c4.148,0.074,7.515-6.807,9.707-5.729C220.75,212.511,213.788,200.841,209.45,197.18z" /><path  fill="#D97755" d="M200,212.511" /></g><g id="Hair"><path  fill="#845F41" d="M284.5,297.5c-5.833,3.333,3.064-12.29-4.506-9.449c-10.16,3.81-19.062-3.01-19.062-3.01      s13.042-0.502,12.415-8.528c-1.347-14.014-7.934-6.833-11.697-18.872c-3.157-10.1,11.568-15.566,2.099-18.881      c-7.524-2.634-6.622-11.816-3.2-15.334c4.013-7.526,7.975-9.405,0.45-16.426c-7.525-7.023-5.586-12.753-2.074-19.275      c3.511-6.52,10.532-16.268,5.741-19.392c-13.167-8.584-8.648-16.805-8.146-25.334c-19-4.665-9.205-19.74-16.354-22.75      c-8.087-3.406-5.819-8.503-14.852-13.286c-8.527-4.514-19.483,0-28.512,0c-14,0-32.686-8.026-40.71,14.547      c-4.321,12.153-19.043,9.497-17.031,21.654c2.883,17.433-9.705,23.509-4.061,31.787c5.644,8.277,3.817,16.618-1.073,21.133      s-0.57,8.134,5.073,17.165c5.643,9.029-4.511,10.98-0.75,17c3.763,6.02,7.731,14.972,0.583,23.25      c-11,11,2.333,18.125-3.309,23.015c-5.644,4.892-17.191,7.651-4.524,20.151c0,0-13.032-3.597-19.554-14.634      c-4.6-7.784-10.032-1.003-13.794,3.511c-3.763,4.515-10.639,9.313-14.652,2.29c-5.19-9.082-9.494-9.665-13.188-5.299      c-5.517,6.52-14.305,5.654-16.312-0.367c-2.007-6.02,6.333-11-5.258-14.181C35.484,260.5,39.483,250.85,45,244.83      c5.518-6.021,12.517-17.31,7.5-23.83c-17.016-13.5-8.513-27.976-4.5-35.5c4.704-8.821,16.789-14.184,9.773-23.358      c-6.52-8.528-6.294-13.086-3.01-18.562c4.514-7.524,9.531-7.524,11.537-19.061c2.007-11.535,3.352-15.832,8.367-21.852      C79.057,97.4,91,99,96.594,80C98,62,113.398,66.39,118.47,60.811c5.014-5.518,12.969-20.823,25.009-16.811      c15.521,10,23.647-6.264,32.176-5.26c8.528,1.002,26.132-3.966,36.117-3.512c11.037,0.502,16.051,7.526,21.068,7.526      c5.018,0,13.544-2.51,21.069,1.504C261.434,48.272,273.5,52,274.5,63c4.014,5.017,12.015,2.326,16.531,4.332      c4.515,2.008,12.039,3.009,16.554,11.537c3.71,7.01,0.501,12.541,6.02,18.059C319.123,102.446,338.5,102,334.5,125      c2.006,8.528,15.724,11.054,16.224,21.588c0.501,10.534-14.724,26.649,9.385,40.411c11.391,13,6.758,21.208,2.391,29.5      c-5.017,9.533-11,12.257-11,19.28c0,7.024,11.262,13.144,8.253,22.173c-3.01,9.029-13.203,6.246-12.542,11.536      c1.001,8.022-6.68,16.681-14.547,12.54c-5.031-2.647-11.199,1.028-14.852,6.085c-5.106,7.069-2.646,11.219-22.642,7.94      C295.17,296.056,290.333,294.167,284.5,297.5z" /></g><g id="Top"><path  fill="none" stroke="#000000" stroke-width="4" stroke-linecap="round" stroke-linejoin="round" stroke-miterlimit="10" d="M175.873,163.176c0,0,7.212,1.967,5.682-5.791c0,0-2.404-7.102-9.398-2.404c-6.542,4.395-6.921,15.978,5.245,17.702   c13.113,1.858,14.096-14.929,10.6-20.652c-2.222-3.637-14.861-15.298-25.678-0.874c-13.147,17.53,2.076,28.629,6.337,29.831" /><path  fill="none" stroke="#000000" stroke-width="4" stroke-linecap="round" stroke-linejoin="round" stroke-miterlimit="10" d="M223.592,159.783c0,0-5.24-5.331-7.826,2.141c0,0-1.5,7.347,6.908,6.81c7.865-0.502,14.027-10.318,4.384-17.935   c-10.393-8.21-19.697,5.798-19.559,12.503c0.088,4.261,5.133,20.7,21.744,13.688c20.187-8.523,12.626-25.779,9.549-28.963" /><path  fill="none" stroke="#000000" stroke-width="4" stroke-linecap="round" stroke-miterlimit="10" d="M167.546,236.541   c0,0,3.471,12.247,5.093,8.431c1.622-3.816,7.105-11.232,9.465-7.034c2.36,4.198,8.542,9.123,13.176,2.709   c4.634-6.415,10.922-6.514,13.798-2.457c2.876,4.057,5.726,10.995,8.664,5.237c2.939-5.758,9.85-9.737,11.329-4.205   c1.478,5.532,2.737,0.263,2.737,0.263" /><path  fill="#FFD110" stroke="#680505" stroke-width="4" stroke-linecap="round" stroke-linejoin="round" d="M285.813,122.487    c0,0,12.938-3.987,5.188-12.987c-8.964-10.41-168.5-37.25-182.75,3c0,0-2.583,9.5,14.083,12.5c0,0-40.333,3.25-16.833-24.25    c0,0,25.5-23.75,103.5-15.75c0,0,98,7.316,92.5,29.908C301.5,114.908,300.338,125.653,285.813,122.487z" /><polygon  fill="#FFD110" stroke="#680505" stroke-width="4" points="120,64.667 121,84.5 106,95.881 123.188,98.758 128,121.25     138,98 157.084,101.407 143.479,86.192 153.333,69.667 135.583,79.331" /><polygon  fill="#FFD110" stroke="#680505" stroke-width="4" points="72.476,120.899 70.907,132.556 63.685,138.036 71.96,139.421     79.939,150.25 80.711,136.16 91.262,130.756 78.145,130.026" /><polygon  fill="#FFD110" stroke="#680505" stroke-width="4" points="327.07,74.545 317.845,81.842 308.843,80.769 313.835,87.512     312.055,100.845 322.396,91.244 333.74,94.684 324.81,85.049" /><circle  fill="#FFD110" stroke="#680505" stroke-width="4" stroke-linecap="round" stroke-linejoin="round" cx="274.25" cy="99.75" r="11.417" /></g></svg>