<?xml version="1.0" encoding="iso-8859-1"?><svg id="MegFaceOn Fire" version="1.1" xmlns="http://www.w3.org/2000/svg" xmlns:xlink="http://www.w3.org/1999/xlink" xml:space="preserve" x="0px" y="0px" viewbox="0 0 400 400" width="400" height="400" ><g id="Face"><g  /><g  /><circle  cx="133.333" cy="173.238" r="20" class="SkinColor" fill="#F7CCBA"  /><circle  cx="266.667" cy="173.238" r="20" class="SkinColor" fill="#F7CCBA"  /><circle  fill="#D97755" cx="266.667" cy="173.238" r="10.146" /><circle  fill="#D97755" cx="133.333" cy="173.238" r="10.146" /><path  d="M200.667,80h-1.333C162.883,80,133,102.549,133,139v58c4,22.105,17.193,45.733,27.333,55.5    c24.917,24,36.479,22.833,39.667,22.833c3.63,0,17.083,0.265,39.667-22.833C249.509,242.433,263,219.105,267,197v-58    C267,102.549,237.117,80,200.667,80z" class="SkinColor" fill="#F7CCBA"  /></g><g id="Beard"><path  d="M246.378,218.938h-92.756c-3.427-25-14.622-23.75-20.622-25.275v20.275c0,36.451,23.75,66,67,66     s67-29.549,67-66v-20.275C261,195.188,249.799,193.938,246.378,218.938z M245.37,245.317c0,0-14.203,22.926-45.65,23.844     c-31.496-0.918-45.053-23.74-45.053-23.74c0.061-4.879-0.117-16.484-0.457-20.484h91.581     C245.452,228.938,245.309,240.438,245.37,245.317z" class="BeardColor" fill="#5D2300"  /></g><g id="Nose"><path  fill="#D97755" d="M209.45,199.181c0,0-8.677-27.241-9.45-29.514c-1.022,2.063-10.857,29.741-10.857,29.741    c-3.107,0.223-17.628,14.594,10.221,15.092C223.438,214.931,216.305,199.397,209.45,199.181z" /></g><g id="Eyebrow"><path  d="M214.389,159.061c0,0-9.502-17.632,30.959-19.611C245.348,139.451,223.584,155.259,214.389,159.061z" /><path  d="M183.328,159.094c0,0,12.338-15.778-27.21-24.549C156.117,134.545,174.905,153.796,183.328,159.094z" /></g><g id="Hair"><path  fill="#845F41" d="M282.667,125.667c0.427-40.667-19-55.375-43.333-60.042c-24.333-4.667-48.856-0.774-68.083,5.708    c0,0-12.583-14.333-30.583,1.333c-15.842,13.789-26,51.667-14.667,80.571l13.333,20c0,0-1.333-47.905,9-47.571    c0,0-3.195-15.492,6.568-20.981c4.084-0.965,9.045-1.031,15.099-0.019c2.714,8.402,29.695,13.241,39,13.241    c9.269,0,35.292,1.067,47.652,13.441l1.868,36.984L267,155.704v-0.022l6-0.85C273,154.833,282.439,147.344,282.667,125.667z" /><g  /></g><g id="Top"><path  fill="#FFFFFF" d="M213.75,169.25l36.25-15C250,154.25,245,202.5,213.75,169.25z" /><path  fill="#D30010" d="M221.56,170.537L242.19,162C242.19,162,239.345,189.46,221.56,170.537z" /><path  fill="#FFFFFF" d="M190,169.25l-36.25-15C153.75,154.25,158.75,202.5,190,169.25z" /><path  fill="#D30010" d="M182.19,170.537L161.56,162C161.56,162,164.405,189.46,182.19,170.537z" /><path  d="M229.697,249.394c0,0-26.451-43.172-58.311,1.889C171.386,251.283,196.278,234.405,229.697,249.394z" /><path  fill="#D30010" d="M275.795,141.064c0,0-6.979,7.713-15.059,2.938c-8.081-4.775-1.469-15.392-3.673-21.102   c0,0,10.174,3.472,9.128,8.614c0,0,5.564-12.781-4.72-26.408c0,0-8.081-12.893,8.448-20.606c0,0-11.019,17.263,9.55,34.893   c0,0,7.346,4.408,8.081,8.448c0,0,5.142-3.215,2.571-12.81C290.12,115.031,302.975,144.002,275.795,141.064z" /><path  fill="#D30010" d="M104.635,146.321c0,0-8.004,3.52-12.563-2.92c-4.559-6.44,4.162-12.314,4.433-17.452   c0,0,6.613,6.16,4.043,9.745c0,0,8.661-7.894,5.453-21.882c0,0-1.769-12.668,13.562-12.906c0,0-14.386,9.458-4.663,30.052   c0,0,4.121,5.906,3.297,9.258c0,0,5.05-0.7,6.374-8.945C124.57,131.27,124.478,157.915,104.635,146.321z" /><polygon  fill="#D97755" points="202.25,145 204,154.434 235.25,121.275 207.75,145" /><polygon  fill="#D97755" points="190,156.375 194.125,147.875 190,148.625 171.386,119.875" /><polygon  fill="#D97755" points="199,149 199,158 194.125,156" /></g></svg>