<?xml version="1.0" encoding="iso-8859-1"?><svg id="MegFaceSob" version="1.1" xmlns="http://www.w3.org/2000/svg" xmlns:xlink="http://www.w3.org/1999/xlink" xml:space="preserve" x="0px" y="0px" viewbox="0 0 400 400" width="400" height="400" ><g id="Face"><g  /><g  /><circle  cx="133.333" cy="173.238" r="20" class="SkinColor" fill="#F7CCBA"  /><circle  cx="266.667" cy="173.238" r="20" class="SkinColor" fill="#F7CCBA"  /><circle  fill="#D97755" cx="266.667" cy="173.238" r="10.146" /><circle  fill="#D97755" cx="133.333" cy="173.238" r="10.146" /><path  d="M200.667,80H200h-0.667C162.883,80,133,102.549,133,139l4,48c-15.5,11.5-14.748,29.741-5.667,40.5    c11.91,14.111,44.842,51.939,69.251,51.435c22.727-0.469,56.993-38.296,68.083-51.435c9.081-10.759,10.083-29-5.667-40.5l4-48    C267,102.549,237.117,80,200.667,80z" class="SkinColor" fill="#F7CCBA"  /></g><g id="Beard"><rect  x="157" y="221" width="86" height="10" class="BeardColor" fill="#5D2300"  /><path  d="M157,273.05V221h10v52.05c0,2.734-2.216,4.95-4.95,4.95h-0.1C159.216,278,157,275.784,157,273.05z" class="BeardColor" fill="#5D2300"  /><path  d="M233,273.05V221h10v52.05c0,2.734-2.216,4.95-4.95,4.95h-0.1C235.216,278,233,275.784,233,273.05z" class="BeardColor" fill="#5D2300"  /></g><g id="Nose"><ellipse  fill="#D97755" cx="200" cy="205.875" rx="11.492" ry="8.625" /><ellipse  fill="#D97755" cx="200" cy="195.375" rx="4.5" ry="10.125" /></g><g id="Eye"><path  fill="#51C2F4" d="M233.963,220.677c-0.634,0-1.278-0.121-1.9-0.377c-7.743-3.18-7.744-13.974-6.531-18.704   c0.313-1.218,0.921-2.351,1.563-3.551c2.232-4.163,2.401-5.608,0.857-7.365c-6.31-7.18-4.09-14.162-1.06-17.103   c0,0,9.668,1.853,9.774,1.714c-0.475,0.625-2.537,7.27-1.203,8.788c6.501,7.397,2.257,15.313,0.444,18.692   c-0.256,0.476-0.601,1.119-0.71,1.389c-0.561,2.31-0.181,6.266,0.673,6.895c2.555,1.049,3.77,3.967,2.721,6.521   C237.799,219.51,235.931,220.677,233.963,220.677z" /><path  fill="#51C2F4" d="M172.963,220.677c-0.634,0-1.278-0.121-1.9-0.377c-7.743-3.18-7.744-13.974-6.531-18.704   c0.313-1.218,0.921-2.351,1.563-3.551c2.232-4.163,2.401-5.608,0.857-7.365c-6.31-7.18-4.09-14.162-1.06-17.103   c0,0,9.334,0.92,9.441,0.78c-0.475,0.625-2.203,8.203-0.869,9.721c6.501,7.397,2.257,15.313,0.444,18.692   c-0.256,0.476-0.601,1.119-0.71,1.389c-0.561,2.31-0.181,6.266,0.673,6.895c2.555,1.049,3.77,3.967,2.721,6.521   C176.799,219.51,174.931,220.677,172.963,220.677z" /><polygon  points="158.046,174.934 179.656,168.447 181.191,173.309 159.094,180.352" /><polygon  points="221.502,167.42 242.919,173.897 241.892,179.536 219.722,172.982" /></g><g id="Eyebrow"><path  d="M212.392,149.083c0,0,31.5,3.083,29.083-7.583c0,0-0.917-4.667-7.417-5.334    C234.059,136.166,237.892,145.667,212.392,149.083z" /><path  d="M187.608,149.083c0,0-31.5,3.083-29.083-7.583c0,0,0.917-4.667,7.417-5.334    C165.941,136.166,162.108,145.667,187.608,149.083z" /></g><g id="Hair"><path  fill="#845F41" d="M151.663,102.037c-7.479,5.741-1.512,21.741-10.711,30.872c-3.96,3.934-4.493,27.592-4.493,27.592      l-14.017-5.945c-1.274-5.966-9.109-51.555,15.311-74.163c14.013-16.273,38.548-27.517,56.187-27.181      c19.754,0.375,35.56,8.997,35.56,8.997c46.023,7.292,49.5,44.644,44.427,69.528c-0.761,11.743-0.376,20.806-0.376,20.806      l-14.692,7.959c0,0-0.534-23.657-4.494-27.59c-9.2-9.132-3.232-25.133-10.711-30.874c-10.055-7.719-30.987,2.086-45.995,2.086      C182.651,104.122,161.718,94.318,151.663,102.037z" /></g><g id="Top"><path  d="M191.001,243.412c-8.607,0-14.491-1.881-11.098-3.573c3.391-1.691,9.726-3.137,21.454-3.194c0,0,11.326-0.146,18.543,3.096   c3.791,1.703-2.07,3.671-10.891,3.671H191.001z" /></g></svg>