<?xml version="1.0" encoding="iso-8859-1"?><svg id="MegFaceSick" version="1.1" xmlns="http://www.w3.org/2000/svg" xmlns:xlink="http://www.w3.org/1999/xlink" xml:space="preserve" x="0px" y="0px" viewbox="0 0 400 400" width="400" height="400" ><g id="Face"><g  /><g  /><circle  fill="#49BC19" cx="133.333" cy="173.238" r="20" /><circle  fill="#49BC19" cx="266.667" cy="173.238" r="20" /><circle  fill="#226005" cx="266.667" cy="173.238" r="10.146" /><circle  fill="#226005" cx="133.333" cy="173.238" r="10.146" /><path  fill="#49BC19" d="M200.667,80h-1.333C162.883,80,133,102.549,133,139v58c4,22.105,17.193,45.733,27.333,55.5    c24.917,24,36.479,22.833,39.667,22.833c3.63,0,17.083,0.265,39.667-22.833C249.509,242.433,263,219.105,267,197v-58    C267,102.549,237.117,80,200.667,80z" /></g><g id="Beard"><path  d="M246.378,218.938h-92.756c-3.427-25-14.622-23.75-20.622-25.275v20.275c0,36.451,23.75,66,67,66     s67-29.549,67-66v-20.275C261,195.188,249.799,193.938,246.378,218.938z M245.37,245.317c0,0-14.203,22.926-45.65,23.844     c-31.496-0.918-45.053-23.74-45.053-23.74c0.061-4.879-0.117-16.484-0.457-20.484h91.581     C245.452,228.938,245.309,240.438,245.37,245.317z" class="BeardColor" fill="#5D2300"  /></g><g id="Eye"><path  fill="#FFFFFF" d="M184.536,167.25c0,0-14.912-6.75-28.162-2.457c0,0-10.249,22.707,14.318,24.063    C170.692,188.856,188,190.875,184.536,167.25z" /><circle  cx="170.625" cy="175" r="4.5" class="EyeColor" fill="#1860B5"  /><path  fill="none" stroke="#000000" stroke-width="2" stroke-linecap="round" stroke-linejoin="round" stroke-miterlimit="10" d="M153.878,165.625c0,0,15.497-6.583,31.997,2.708" /><path  fill="none" stroke="#000000" stroke-width="2" stroke-linecap="round" stroke-linejoin="round" stroke-miterlimit="10" d="M153.878,161.625c0,0,15.497-6.583,31.997,2.708" /><line  fill="none" stroke="#000000" stroke-width="2" stroke-linecap="round" stroke-linejoin="round" stroke-miterlimit="10" x1="153.125" y1="157.313" x2="156.875" y2="164.333" /><line  fill="none" stroke="#000000" stroke-width="2" stroke-linecap="round" stroke-linejoin="round" stroke-miterlimit="10" x1="160.208" y1="155.813" x2="163.261" y2="163.092" /><line  fill="none" stroke="#000000" stroke-width="2" stroke-linecap="round" stroke-linejoin="round" stroke-miterlimit="10" x1="167.563" y1="155.813" x2="169.208" y2="163.429" /><path  fill="#FFFFFF" d="M215.464,167.25c0,0,14.912-6.75,28.162-2.457c0,0,10.249,22.707-14.318,24.063    C229.308,188.856,212,190.875,215.464,167.25z" /><circle  cx="229.375" cy="175" r="4.5" class="EyeColor" fill="#1860B5"  /><path  fill="none" stroke="#000000" stroke-width="2" stroke-linecap="round" stroke-linejoin="round" stroke-miterlimit="10" d="M246.122,165.625c0,0-15.497-6.583-31.997,2.708" /><path  fill="none" stroke="#000000" stroke-width="2" stroke-linecap="round" stroke-linejoin="round" stroke-miterlimit="10" d="M246.122,161.625c0,0-15.497-6.583-31.997,2.708" /><line  fill="none" stroke="#000000" stroke-width="2" stroke-linecap="round" stroke-linejoin="round" stroke-miterlimit="10" x1="246.875" y1="157.313" x2="243.125" y2="164.333" /><line  fill="none" stroke="#000000" stroke-width="2" stroke-linecap="round" stroke-linejoin="round" stroke-miterlimit="10" x1="239.792" y1="155.813" x2="236.739" y2="163.092" /><line  fill="none" stroke="#000000" stroke-width="2" stroke-linecap="round" stroke-linejoin="round" stroke-miterlimit="10" x1="232.438" y1="155.813" x2="230.792" y2="163.429" /></g><g id="Eyebrow"><path  d="M211.438,148.083c0,0,4.75-19.458,36.125,6.167C247.563,154.25,220.813,151.416,211.438,148.083z" /><path  d="M188.563,148.083c0,0-4.75-19.458-36.125,6.167C152.438,154.25,179.188,151.416,188.563,148.083z" /></g><g id="Glass"><rect  x="188.508" y="170.721" width="22.984" height="5.033" /><ellipse  fill="none" stroke="#000000" stroke-width="3" stroke-linecap="round" stroke-linejoin="round" stroke-miterlimit="10" cx="233" cy="173.5" rx="22.515" ry="21" /><ellipse  fill="none" stroke="#000000" stroke-width="3" stroke-linecap="round" stroke-linejoin="round" stroke-miterlimit="10" cx="167" cy="173.5" rx="22.515" ry="21" /></g><g id="Hair"><path  fill="#845F41" d="M282.667,125.667c0.427-40.667-19-55.375-43.333-60.042c-24.333-4.667-48.856-0.774-68.083,5.708    c0,0-12.583-14.333-30.583,1.333c-15.842,13.789-26,51.667-14.667,80.571l13.333,20c0,0-1.333-47.905,9-47.571    c0,0-3.195-15.492,6.568-20.981c4.084-0.965,9.045-1.031,15.099-0.019c2.714,8.402,29.695,13.241,39,13.241    c9.269,0,35.292,1.067,47.652,13.441l1.868,36.984L267,155.704v-0.022l6-0.85C273,154.833,282.439,147.344,282.667,125.667z" /><g  /></g><g id="Top"><line  fill="none" stroke="#226005" stroke-width="5" stroke-linecap="round" stroke-linejoin="round" stroke-miterlimit="10" x1="174.895" y1="196" x2="166" y2="212.75" /><line  fill="none" stroke="#226005" stroke-width="5" stroke-linecap="round" stroke-linejoin="round" stroke-miterlimit="10" x1="189.895" y1="196" x2="181" y2="212.75" /><line  fill="none" stroke="#226005" stroke-width="5" stroke-linecap="round" stroke-linejoin="round" stroke-miterlimit="10" x1="204.895" y1="196" x2="196" y2="212.75" /><line  fill="none" stroke="#226005" stroke-width="5" stroke-linecap="round" stroke-linejoin="round" stroke-miterlimit="10" x1="219.895" y1="196" x2="211" y2="212.75" /><line  fill="none" stroke="#226005" stroke-width="5" stroke-linecap="round" stroke-linejoin="round" stroke-miterlimit="10" x1="234.895" y1="196" x2="226" y2="212.75" /><path  fill="#FFFFFF" d="M147.181,111.068c0,0-13.91,18.725,0,20.865C147.181,131.933,162.027,132.334,147.181,111.068z" /><path  fill="#FFFFFF" d="M166.181,94.068c0,0-13.91,18.725,0,20.865C166.181,114.933,181.027,115.334,166.181,94.068z" /><path  fill="#FFFFFF" d="M182.144,113.212c0,0-16.385,22.057,0,24.577C182.144,137.789,199.632,138.262,182.144,113.212z" /><path  fill="#FFFFFF" d="M205.181,107.068c0,0-13.91,18.725,0,20.865C205.181,127.933,220.027,128.334,205.181,107.068z" /><path  fill="#FFFFFF" d="M231.181,114.068c0,0-13.91,18.725,0,20.865C231.181,134.933,246.027,135.334,231.181,114.068z" /><path  fill="#FFFFFF" d="M246.242,104.154c0,0-9.795,13.186,0,14.693C246.242,118.847,256.697,119.129,246.242,104.154z" /><circle  fill="#FFFFFF" cx="226.216" cy="99.284" r="5.216" /><circle  fill="#FFFFFF" cx="253.216" cy="132.284" r="5.216" /><path  fill="none" stroke="#000000" stroke-width="4" stroke-linecap="round" stroke-miterlimit="10" d="M167.547,235.54   c0,0,3.471,12.247,5.093,8.431c1.622-3.816,7.105-11.232,9.465-7.034c2.36,4.198,8.542,9.123,13.176,2.709   c4.634-6.415,10.922-6.514,13.798-2.457c2.876,4.057,5.726,10.995,8.664,5.237c2.939-5.758,9.85-9.737,11.329-4.205   c1.478,5.532,2.737,0.263,2.737,0.263" /></g></svg>